<?xml version="1.0" encoding="UTF-8"?>
<svg id="Capa_2" data-name="Capa 2" xmlns="http://www.w3.org/2000/svg" viewBox="0 0 102.25 79.93">
  <defs>
    <style>
      .cls-1 {
        fill: #2e4527;
      }

      .cls-2 {
        fill: #523c40;
      }

      .cls-3 {
        fill: #c03e88;
      }

      .cls-4 {
        fill: #d33286;
      }

      .cls-5 {
        fill: #a01550;
      }

      .cls-6 {
        fill: #1f311b;
      }

      .cls-7 {
        fill: #d86ca6;
      }

      .cls-8 {
        fill: #343336;
      }

      .cls-9 {
        fill: #c59b5d;
      }

      .cls-10 {
        fill: #8cbc2a;
      }

      .cls-11 {
        fill: #c3d241;
      }

      .cls-12 {
        fill: #372c2b;
      }

      .cls-13 {
        fill: #ab7548;
      }

      .cls-14 {
        fill: #201f21;
      }

      .cls-15 {
        fill: #a0683f;
      }

      .cls-16 {
        fill: #332b29;
      }

      .cls-17 {
        fill: #7e8077;
      }

      .cls-18 {
        fill: #141f14;
      }

      .cls-19 {
        fill: #5c3928;
      }

      .cls-20 {
        fill: #e62379;
      }

      .cls-21 {
        fill: #e53189;
      }

      .cls-22 {
        fill: #6ea730;
      }

      .cls-23 {
        fill: #3b3231;
      }

      .cls-24 {
        fill: #403533;
      }

      .cls-25 {
        fill: #e6e5e5;
      }

      .cls-26 {
        fill: #11140f;
      }

      .cls-27 {
        fill: #becd41;
      }

      .cls-28 {
        fill: #ac7748;
      }

      .cls-29 {
        fill: #453e3b;
      }

      .cls-30 {
        fill: #cd4490;
      }

      .cls-31 {
        fill: #aac832;
      }

      .cls-32 {
        fill: #273827;
      }

      .cls-33 {
        fill: #e6227f;
      }

      .cls-34 {
        fill: #302e31;
      }

      .cls-35 {
        fill: #121c15;
      }

      .cls-36 {
        fill: #484548;
      }

      .cls-37 {
        fill: #a26a40;
      }

      .cls-38 {
        fill: #030403;
      }

      .cls-39 {
        fill: #3c2a27;
      }

      .cls-40 {
        fill: #a7bf33;
      }

      .cls-41 {
        fill: #b68650;
      }

      .cls-42 {
        fill: #ddbf78;
      }

      .cls-43 {
        fill: #9fc035;
      }

      .cls-44 {
        fill: #c5d460;
      }

      .cls-45 {
        fill: #5d3928;
      }

      .cls-46 {
        fill: #d9207e;
      }

      .cls-47 {
        fill: #d13484;
      }

      .cls-48 {
        fill: #3a2d2d;
      }

      .cls-49 {
        fill: #020302;
      }

      .cls-50 {
        fill: #293e22;
      }

      .cls-51 {
        fill: #51554d;
      }

      .cls-52 {
        fill: #1c241b;
      }

      .cls-53 {
        fill: #243d1e;
      }

      .cls-54 {
        fill: #23341f;
      }

      .cls-55 {
        fill: #c4d24a;
      }

      .cls-56 {
        fill: #e85296;
      }

      .cls-57 {
        fill: #090d09;
      }

      .cls-58 {
        fill: #1b2a1a;
      }

      .cls-59 {
        fill: #b95196;
      }

      .cls-60 {
        fill: #342b2a;
      }

      .cls-61 {
        fill: #6aae2e;
      }

      .cls-62 {
        fill: #5c3827;
      }

      .cls-63 {
        fill: #c1d03e;
      }

      .cls-64 {
        fill: #acc733;
      }

      .cls-65 {
        fill: #41232e;
      }

      .cls-66 {
        fill: #302625;
      }

      .cls-67 {
        fill: #5e4242;
      }

      .cls-68 {
        fill: #c3d14f;
      }

      .cls-69 {
        fill: #302624;
      }

      .cls-70 {
        fill: #d4b26e;
      }

      .cls-71 {
        fill: #85b82a;
      }

      .cls-72 {
        fill: #3f3331;
      }

      .cls-73 {
        fill: #152115;
      }

      .cls-74 {
        fill: #4e403c;
      }

      .cls-75 {
        fill: #a7c730;
      }

      .cls-76 {
        fill: #aac731;
      }

      .cls-77 {
        fill: #22351e;
      }

      .cls-78 {
        fill: #1b2119;
      }

      .cls-79 {
        fill: #86b62a;
      }

      .cls-80 {
        fill: #9eb34c;
      }

      .cls-81 {
        fill: #80b82a;
      }

      .cls-82 {
        fill: #2f432a;
      }

      .cls-83 {
        fill: #b6cb36;
      }

      .cls-84 {
        fill: #d86b51;
      }

      .cls-85 {
        fill: #6a6669;
      }

      .cls-86 {
        fill: #4d4a4d;
      }

      .cls-87 {
        fill: #77b42c;
      }

      .cls-88 {
        fill: #a6c332;
      }

      .cls-89 {
        fill: #c4266e;
      }

      .cls-90 {
        fill: #985e3a;
      }

      .cls-91 {
        fill: #1d1c1e;
      }

      .cls-92 {
        fill: #9fbc32;
      }

      .cls-93 {
        fill: #71b42d;
      }

      .cls-94 {
        fill: #b4518e;
      }

      .cls-95 {
        fill: #7bb928;
      }

      .cls-96 {
        fill: #b52466;
      }

      .cls-97 {
        fill: #c7d660;
      }

      .cls-98 {
        fill: #c6d44f;
      }

      .cls-99 {
        fill: #514e51;
      }

      .cls-100 {
        fill: #a77145;
      }

      .cls-101 {
        fill: #352a29;
      }

      .cls-102 {
        fill: #c0d161;
      }

      .cls-103 {
        fill: #3a2c2c;
      }

      .cls-104 {
        fill: #162115;
      }

      .cls-105 {
        fill: #1d2f1a;
      }

      .cls-106 {
        fill: #0a0e09;
      }

      .cls-107 {
        fill: #d63f8e;
      }

      .cls-108 {
        fill: #955e3a;
      }

      .cls-109 {
        fill: #cea967;
      }

      .cls-110 {
        fill: #3c302e;
      }

      .cls-111 {
        fill: #314923;
      }

      .cls-112 {
        fill: #212022;
      }

      .cls-113 {
        fill: #82b82b;
      }

      .cls-114 {
        fill: #90b730;
      }

      .cls-115 {
        fill: #1f331b;
      }

      .cls-116 {
        fill: #b0c836;
      }

      .cls-117 {
        fill: #73b22d;
      }

      .cls-118 {
        fill: #312f32;
      }

      .cls-119 {
        fill: #afca34;
      }

      .cls-120 {
        fill: #965e3a;
      }

      .cls-121 {
        fill: #84b92c;
      }

      .cls-122 {
        fill: #c0ce57;
      }

      .cls-123 {
        fill: #0d140d;
      }

      .cls-124 {
        fill: #c09459;
      }

      .cls-125 {
        fill: #ab7547;
      }

      .cls-126 {
        fill: #5b585a;
      }

      .cls-127 {
        fill: #bfce41;
      }

      .cls-128 {
        fill: #513b3f;
      }

      .cls-129 {
        fill: #131515;
      }

      .cls-130 {
        fill: #a7c712;
      }

      .cls-131 {
        fill: #be9056;
      }
    </style>
  </defs>
  <g id="Capa_1-2" data-name="Capa 1">
    <g>
      <path class="cls-95" d="M102.18,52.24c-.05-.33-.17-.62-.45-.82-.08-.2-.26-.29-.44-.36-.24-.23-.53-.35-.83-.45-.14-.15-.34-.17-.52-.24-1.41-.54-2.86-.96-4.3-1.39-.65-.19-1.28-.43-1.94-.56-.09-.04-.18-.08-.27-.11-2.09-.62-4.18-1.25-6.28-1.86-.33-.1-.65-.25-1.01-.26-.68-.25-1.38-.47-2.09-.61-.57-.23-1.16-.37-1.75-.54-.51-.15-1.04-.26-1.57-.29-.27-.02-.53,0-.76.17-.16.06-.27.17-.35.32-.07.02-.1.07-.1.14-.28.29-.36.68-.47,1.04-.13.42-.24.85-.42,1.26-.39.88-.82,1.74-1.29,2.59-.36.64-.8,1.23-1.21,1.84-.07.02-.1.06-.11.12-.06.02-.1.06-.11.12.04-.04.07-.08.11-.12.04-.04.08-.08.11-.12-.02.06-.07.09-.11.12-.03.05-.07.08-.11.12h0s-.07.08-.1.12h0c-.06.02-.09.06-.1.12l-.02.02c-.06.01-.09.04-.1.1h-.02s-.08.07-.11.11h-.01c-.06.02-.1.05-.11.11h0c-.07.01-.1.05-.12.11h0s-.07.09-.12.11c.04-.04.08-.07.12-.11-.07.01-.11.05-.12.11-.07,0-.12.05-.14.11-.03.02-.06.04-.1.06-.05,0-.08.02-.08.07l-.03.02c-.06,0-.1.03-.11.09h0c-.07.01-.12.04-.14.11-.2.1-.4.19-.55.36-.05.03-.09.05-.14.08-.02.01-.04.03-.06.04.03,0,.05-.02.06-.04h-.04l-.02.04c-.54.23-1.06.53-1.62.74-.29.11-.6.14-.86.31-.33.03-.65.09-.96.22-.03-.02-.06-.02-.08.01-.25,0-.51-.02-.74.11-.36,0-.72.02-1.09.02-.63,0-1.26,0-1.89-.01-.06,0-.12-.01-.18-.01-.2-.1-.42-.1-.63-.1-.03-.03-.06-.03-.09-.01-.02-.02-.05-.03-.07-.03-.17-.08-.35-.08-.52-.09-.26-.13-.53-.2-.81-.23-.06-.08-.14-.11-.24-.09-.03-.03-.06-.04-.1-.03-.27-.15-.55-.26-.85-.35-.02-.05-.05-.07-.1-.06-.13-.06-.25-.11-.38-.17,0-.04-.03-.06-.08-.05h0s-.09-.04-.13-.06c-.12-.13-.26-.21-.43-.25-.03-.06-.08-.1-.15-.1-.04-.03-.07-.06-.11-.09.04.03.08.06.11.09-.02-.06-.05-.09-.11-.09-.06-.08-.12-.14-.22-.15-.06-.02-.09-.06-.14-.1h0s-.06-.07-.1-.09c-.07-.06-.14-.11-.21-.17-.53-.53-1.06-1.05-1.53-1.63-.02-.1-.08-.16-.15-.22,0-.06-.03-.09-.09-.11,0-.07-.04-.13-.1-.16.01-.03,0-.06-.04-.07,0-.07-.03-.11-.09-.14,0-.04-.01-.08-.05-.1,0-.06-.02-.09-.08-.11,0-.1-.05-.17-.12-.22h0c0-.08-.03-.14-.09-.17-.16-.47-.37-.91-.59-1.35-.01-.04-.02-.08-.03-.12-.02-.05-.07-.09-.07-.15.02.05.05.1.07.15.01-.07-.02-.12-.07-.15.01-.03,0-.06-.02-.08.01-.1,0-.19-.09-.26.01-.04,0-.07-.02-.09.01-.1,0-.19-.09-.26.02-.03,0-.06-.02-.09.01-.1,0-.2-.09-.27,0-.16-.05-.3-.09-.45-.54-1.91-.83-3.86-.95-5.84-.07-1.2-.1-2.4-.07-3.6.04-1.71.2-3.4.52-5.08.27-1.41.67-2.78,1.27-4.09.81-1.76,1.96-3.24,3.58-4.33.24-.16.48-.32.72-.47.32-.14.64-.27.93-.47.22-.05.42-.13.61-.25.07-.02.13-.04.2-.06.06.02.1-.01.13-.07.08-.02.16-.04.24-.06.05.02.09,0,.11-.05h0s.07-.02.11-.03c.1.01.19,0,.26-.09.53-.12,1.07-.23,1.6-.35.08,0,.15-.02.23-.03.29,0,.57.01.86-.06.04,0,.08-.02.12-.03.06.04.12.03.18,0,.41.05.82.03,1.24.01.09.03.18.07.27.07,1.37.09,2.63.5,3.84,1.13.32.17.64.35.96.52,0,.05.03.07.07.06.07.08.15.15.26.18,0,.05.03.08.09.07.07.08.14.14.25.16.52.5,1.05,1.01,1.57,1.52.02.02.04.04.05.06-.01-.03-.03-.04-.05-.06v.04s.05.01.05.01c0,.03.01.05.04.05,0,.05.02.08.07.08v.03h.03s.05.08.08.11c-.03-.03-.06-.06-.08-.1,0,.06.03.09.08.1.06.16.17.27.29.38,0,.05.02.08.07.08.02.11.1.19.18.27,0,.04.01.07.06.08.01.11.07.19.14.26-.01.06.02.11.08.13.11.36.24.71.43,1.04-.01.04,0,.07.05.08.02.05.04.1.06.15-.01.04,0,.07.05.08,0,.11.06.2.15.27,0,.06.02.09.08.09.07.17.18.31.36.37,0,.06.04.09.1.08.03.05.06.09.12.08.42.21.85.19,1.29.06.52,0,1.01-.14,1.5-.27.5-.1,1.01-.2,1.51-.32.86-.2,1.71-.4,2.57-.6.1.02.2,0,.28-.08.06-.01.13-.02.19-.03.14.01.26,0,.37-.09h.05s.04-.02.04-.02c.14.01.27,0,.38-.1.07-.01.13-.02.2-.03.22.03.42-.06.62-.11.65-.15,1.31-.25,1.95-.46.14.02.27,0,.38-.09.07,0,.14-.02.21-.03.1.02.19,0,.26-.08.07-.01.13-.02.2-.03.13.02.26,0,.36-.09h.05s.05-.02.05-.02c.14.01.28.01.39-.09.06-.01.12-.02.19-.03.73-.12,1.45-.3,2.1-.68.1,0,.18-.02.24-.11.1,0,.18-.03.24-.11.1,0,.18-.03.23-.12.1,0,.18-.03.23-.12.1,0,.18-.03.23-.12.1,0,.18-.04.23-.12.1,0,.18-.03.23-.12.1,0,.17-.04.23-.12.1,0,.17-.04.23-.12h0c.1,0,.17-.04.22-.12h0c.06-.02.11-.03.16-.05,1.01-.52,2.03-1.04,3.04-1.57.19-.1.39-.18.53-.35.25-.09.42-.26.56-.47.1-.05.19-.12.23-.24h.01c.05-.02.09-.04.08-.1.19-.37.37-.73.18-1.16.04-.23-.06-.42-.15-.61-.34-.74-.67-1.48-1.01-2.22-.63-1.39-1.35-2.75-2.17-4.05-1.09-1.72-2.33-3.33-3.72-4.82-.85-.91-1.79-1.71-2.73-2.52-.36-.32-.75-.62-1.17-.85-.07-.06-.14-.13-.21-.19-1.12-.86-2.36-1.52-3.6-2.19-.24-.13-.49-.22-.74-.33-.08-.05-.17-.1-.25-.14-1.61-.77-3.27-1.39-4.99-1.86-.33-.09-.66-.24-1.01-.25-.07-.08-.17-.09-.26-.11-1.15-.27-2.3-.52-3.46-.71-1.26-.2-2.53-.35-3.81-.44-2.77-.2-5.53-.17-8.3,0-.17.01-.35,0-.51.09-.1,0-.19,0-.29,0-1.38.08-2.73.31-4.09.52-.4.06-.8.12-1.18.29-.36.01-.71.1-1.04.22-.13.02-.27.02-.4.05-.76.21-1.52.42-2.27.64-.47.14-.95.29-1.4.5-.1-.01-.2.01-.26.1-.04-.01-.06,0-.09.02-.1-.01-.19.01-.26.1-.04-.01-.07,0-.1.03-.1-.01-.18.01-.24.09-.04,0-.08,0-.11,0-.85.37-1.71.71-2.55,1.11-1.24.59-2.43,1.28-3.58,2.03-.88.57-1.69,1.23-2.52,1.86-.07.06-.13.14-.19.21-.08.06-.16.11-.23.17-1.07.9-2.05,1.9-2.96,2.95-.49.57-.98,1.15-1.38,1.79-.09.1-.19.19-.27.3-.48.72-.97,1.43-1.44,2.16-.19.29-.39.57-.48.91-.21.24-.37.51-.46.81-.19.18-.28.41-.39.63-.33.68-.67,1.35-.96,2.04-.4.94-.79,1.89-1.13,2.85-.47,1.36-.88,2.76-1.19,4.17-.17.75-.36,1.5-.4,2.27-.13.35-.16.71-.21,1.07-.2,1.43-.35,2.87-.43,4.31-.04.73-.11,1.46-.04,2.19.03-.04.06-.07.08-.1-.02.04-.04.07-.08.1-.02.25-.04.5-.06.75-.05,1.1.04,2.21.06,3.31,0,.39.02.77.05,1.16.09,1.12.14,2.24.32,3.35.08.51.07,1.04.23,1.54-.02.18-.02.36.1.51-.02.03-.02.05,0,.07,0,.21-.01.41.11.59.04.63.15,1.25.36,1.85-.01.14,0,.28.1.39-.02.03-.01.05.02.07,0,.13-.01.27.1.37.09.59.21,1.18.46,1.73,0,.13,0,.27.12.36h0c.03.13.05.27.09.39.24.82.55,1.61.87,2.39.8,1.96,1.77,3.83,2.91,5.61.09.15.21.28.31.42.03.07.04.15.08.21.33.5.65,1.01,1.01,1.49,1.36,1.84,2.83,3.58,4.53,5.12.26.23.48.5.8.66.36.35.74.67,1.16.93.14.19.33.33.52.45.72.49,1.44.98,2.17,1.46.18.12.35.24.57.28.04.04.08.08.13.11,1.42.82,2.93,1.47,4.48,2.02,2.14.76,4.33,1.28,6.56,1.67,1.62.28,3.25.45,4.89.59.27.02.54,0,.81.01.19.05.38.06.56.03l.02-.03h0s-.02.02-.03.03c.2.1.42.07.63.08.6.02,1.2.02,1.8.03,2.21.02,4.42-.03,6.62-.24,1.27-.13,2.54-.3,3.8-.53,1.2-.22,2.38-.51,3.56-.84,1.41-.4,2.8-.9,4.15-1.48.93-.4,1.82-.87,2.7-1.34.37-.2.71-.46,1.07-.7.07,0,.12-.03.15-.1.04,0,.07-.01.09-.05.07,0,.1-.03.12-.09.32-.12.58-.32.81-.57.07-.01.12-.04.14-.12h0c.52-.29.99-.68,1.44-1.06,1.73-1.46,3.21-3.14,4.51-4.98,1.18-1.66,2.19-3.42,3.1-5.25.73-1.48,1.32-3.02,1.84-4.57.1-.29.26-.56.27-.88.11-.27.21-.53.2-.83.07-.27.08-.54-.01-.81v.03ZM74.71,75.3s-.03-.02-.04-.03h.07s-.02.02-.03.03h0ZM52.32,3.62s-.01-.01-.01-.02c0,0,0,.01.01.02ZM43.25,8.52s0,0,0,.01c0,0,0,0-.01,0h0s0,0,0,0c0,0,0,0,0-.02h0ZM61.55,8.99h0s0,0,0,0ZM54.01,61.38v-.02s.01,0,.02-.02c0,.01-.01.03-.02.04h0ZM53.3,62.12s-.02.01-.03.02c0-.02.02-.03.03-.05,0,.01,0,.02,0,.03h0ZM94.55,17.16s-.06-.07-.04-.12c-.01.05,0,.09.05.12.03.02.05.05.08.07h0s0,0,0,0c-.02-.03-.05-.06-.08-.08h0ZM94.52,18.86s0-.01,0-.02c0,0,0,.01,0,.02ZM94.96,20.87s0-.02-.01-.03h.03s-.01.02-.02.03ZM82.79,13.52s-.01,0-.02,0h0s0,0-.02,0h0s.02-.01.02-.02h0s.02,0,.02,0h0ZM84.62,16.67s.02.02.02.02c-.01,0-.02-.02-.03-.02,0,0,0,0,0,0h0ZM83.41,13.55s-.04,0-.06,0v-.02s.04.02.06.03h0ZM78.41,14.61s.02,0,.03,0c0,0,0,0,0,.01,0,0-.01-.01-.02-.02ZM78.22,17.67s.02.03.04.05c0,0-.02-.02-.02-.03l-.05.02s.04-.03.04-.03ZM79.98,18.27h0s-.01.02-.03.02c0,0,.02-.02.03-.02ZM81.72,18.29h0s0,0,0,0h0ZM77.24,13.79s0,0-.01,0c.01-.02.02-.04.03-.06,0,.02,0,.05-.01.07ZM82.65,18.6s.01,0,.02,0c0,0-.01,0-.02.01v-.02ZM76.02,16.89h0s0,0,0,0c0,0,0,0-.01,0h0s0-.01,0-.01h0ZM85.11,17.12s.01.03.02.04c0,0-.01,0-.02,0v-.05h0ZM80.08,10.19s.04-.09.06-.13c0,.06-.02.12-.06.13ZM54.68,60.06c-.04-.1,0-.2.12-.26-.04.09-.08.18-.12.26ZM42.8,56.24s0-.02.01-.02c0,0,0,.02-.01.02ZM59.37,18.99s.07-.05.1-.08c-.03.03-.06.05-.09.08h0ZM53.21,57.49s0,0-.02,0c0,0,0,0,.01,0h0ZM53.2,56.86h0s0,0-.01,0h0s.02.02.03.04h0s-.01-.02-.02-.03ZM53.18,56.85s0,0,0,.01c0,0-.04.01-.04.01,0,0,.02-.02.02-.02h0ZM53.22,56.88h0s0,0,0,0h0ZM50.7,50.65s-.03.05-.04.05c.01-.03.02-.06.03-.08,0,.01.01.02.02.03ZM51.47,46.92s-.01,0-.01-.01c0,0,0,0,.01,0v.02h0ZM49.62,58.01s.02,0,.02,0c0,0-.01,0-.02,0ZM49.62,57.95s0,0,0-.01c0,0,0,0,0,.01h0ZM51.13,59.72v-.02.02ZM53.11,60.26h0s0,0,0,0h0ZM56.1,22.15s0,0,0,0c.02,0,.03.01.04.02-.02,0-.03-.01-.05-.02h0ZM37.48,52.84c0-.08.04-.13.12-.12-.04.04-.08.08-.12.12ZM45.58,50.4s-.01.03-.03.04c0,0-.01.01-.02.01.02-.02.03-.04.05-.06h0ZM49.97,40.38v-.02h.03s-.01.01-.02.02h0ZM42.64,60.38s0,0,0,.01v.02s0-.02-.01-.04c0,0,0,0,0,0ZM42.64,60.49s0,0,.01,0c0,0,0,.02-.01.02v-.02h0ZM42.64,60.61s0,0,0,0c0,0,0,0-.01,0h0ZM47.29,59.92s0,0-.01-.01h.01s0,0,0,0h0ZM50.97,57.57c.03.08.06.14.08.2-.06-.03-.12-.05-.21-.07.03-.05.04-.12.12-.13h0ZM56.95,21.54h0s0,0,0,0c0,0,0,0,0,0h0ZM59.96,18.2s0-.02,0-.03h.02s0,.02-.02.03h0ZM65.33,15.48h.02s-.01.03-.02,0ZM65.33,15.47s.01-.03.03-.03h.03s-.04.02-.06.04h0ZM47.52,37.94h0s0,0,0,0h0ZM51.25,62.24l-.03-.03s0,0,0,0c-.03-.03-.05-.05-.08-.08,0,0,0-.01,0-.01.02.04.05.07.09.11.02.01.02.02.03.03,0,.01,0,.03,0,.04,0,0,0,0,0,.02,0-.04,0-.07-.03-.09.01.01.02.02.03.03h0ZM51.21,62.2s-.05-.05-.08-.07c0,0,0,0,.01,0,.02.02.05.05.07.07h0ZM60.19,17.83s0,0,0-.01h.02-.01ZM80.21,8.89c-.01.06-.02.12-.09.12h-.02c.04-.06.09-.13.13-.19,0,.02-.01.04-.02.06h0ZM77.02,11.88h0s0,0,.01,0c0,0,0,0,0,0h0ZM86.96,25.26h0s0,0,0,0h0ZM51.73,63.28s.02.09-.05.16c-.02.02-.03.04-.04.06.03-.07.06-.14.09-.22h0ZM54.04,32.94v.02s-.02,0-.03-.02h.03ZM54.74,26.67s0,0,0,0h0s0,0,0,0h0ZM55.44,25.11s.03.01.04.02c-.01,0-.03.01-.04.02v-.03ZM78.34,20.37h0s0,0,0,0c0,0,0,0,0,0ZM82.54,23.75s.02,0,.03.02c0,0-.02,0-.03,0v-.02ZM84.17,26.08h0s0,0,0,0h0ZM90.23,11s0-.03.02-.05c.01.01.02.01.03.02-.02,0-.03.01-.05.02ZM64.97,17.01h0s0,0,0,0h.01ZM83.5,24.61s-.04.08-.06.12c.02-.04.04-.08.06-.12ZM40.49,63.72s.03.01.05.02c-.02,0-.03-.01-.05-.02ZM48.71,70.22c-.05.03-.11.04-.16.04.05-.01.11-.02.16-.04ZM55.32,26.89h0s0-.01.01,0c0,0,0,0-.01,0ZM82.53,25.03h0s0-.01,0,0c0,0,0,0,0,0ZM92,24.22h-.04s.03-.02.04-.04v.04h0ZM36.94,59.19s0,.01,0,.02c0,0-.02-.01-.02-.02,0,0,.01,0,.02,0h0ZM37.06,59.68h0s0,0,0,0h0ZM66.27,60.37h-.02s.01,0,.02,0ZM97.77,51.08h0s0,0,0,0h0ZM71.81,69.57c-.01-.08-.03-.16-.05-.23.06.07.08.15.05.23ZM73.93,59.92h-.01s0,0,0,0h.01,0ZM79.16,55.73h0s0,0,0,0c0,0,0,0,0,0ZM77.42,59.22s0,.02-.01.02c-.01,0-.02-.02-.03-.02h.04ZM73,60.38s-.02.02-.03.03c0-.01,0-.02,0-.03h.02ZM79.39,54.91v-.02s0,0,.01,0c0,0,0,.01,0,.01h0ZM78.93,54.46s0,.01,0,.02c0,0-.01,0-.01,0,0,0,.01,0,.02-.01ZM77.53,56.76s-.01.03-.01.05c0-.01,0-.03,0-.04,0,0,.01,0,.02,0ZM73.92,59.34v-.02s.01-.02,0,.02ZM85.79,47.7v.09s0-.05,0-.08h0s0,0,.01,0h0ZM80.33,56.77v-.02s0,0,0,.01c0,0,0,0,0,0ZM83.35,48.75v-.04s.01.01.02.02c0,0-.01.01-.02.02h0ZM82.88,47.35h0s0,0,0,0h0s0,0,0,0ZM89.06,48.19s0-.01-.01-.02h.03s-.01.01-.02.02h0ZM83.23,47.28v-.02s.01,0,.02.01c-.01,0-.02,0-.03,0h0ZM81.95,49.8h0s0,0,0,0ZM67.71,17.19s-.04-.04-.06-.07h.07s0,.05,0,.07ZM83.11,46.55h0s0,0,0,0h0ZM68.23,17.13h.02s0,0,0,.01c0,0-.01,0-.02-.01h0ZM92.78,24.7s0,0,0,0h.02s-.01,0-.02,0ZM96.96,14.56h0s0,0,0,0ZM92.07,10.03h.04s0,.02,0,.04c-.01-.01-.03-.02-.04-.04ZM43.46,8.39s0,0,0,0h0ZM39.62,63.65h0s0,0,0,0c0,0,0,0,0,0ZM46.83,70.5s0,0,.02,0c0,0-.01.01-.02.02v-.03ZM85.52,47.24s.02-.01.03-.01c0,0,.01,0,.02.01h-.05ZM71.14,59.69s0,0-.01.01c0,0-.01,0-.01-.01h.03ZM67.64,16.71s-.03-.01-.05-.02h.11s-.04.02-.06.03h0ZM70.67,16.67s0,.01,0,.01c0,0-.01-.01-.02-.01h.01ZM71.25,17.24h0s-.01.01-.02.02c0,0,0-.01,0-.01h.02s0,0,0,0ZM84.05,73.4s0,0,0-.01c0,0,0,0,0,.01h-.01ZM91.96,68.64s0-.01,0-.02c0,0,0,.01.01.02h-.02ZM92.08,68.37s.02,0,.02,0c0,0-.02.01-.03.02,0,0,0-.02,0-.03ZM99.86,22.24h0,0ZM37.21,15.72s-.02.02-.03.02h0s0,0,0,0v-.02s.02,0,.03,0ZM33.93,22.71h0s0,.03,0,.04c0,0-.02-.01-.03-.02.01-.01.02-.02.04-.03h0ZM40.78,64.8h.01s0,0-.01,0ZM62.87,75.58s.02,0,.03.02h-.04s0-.01.01-.02ZM86.14,72.36s-.01.04-.02.06c0-.01-.01-.03-.02-.04.01,0,.03-.01.04-.01ZM61.75,1.2h-.03s.02-.01.03-.02v.02ZM55.28,2.47s.03,0,.05,0c0,0-.02.01-.03.02,0,0,0-.02-.01-.02h0ZM54.49,2.72h0s0,0,.01,0c0,0-.01,0-.01,0h0ZM33.11,52.82h0,0,0ZM44.15,69.44s0,0,0,0h0s0,0,0,0ZM89.86,71.31s-.06-.05-.08-.07c.03.01.06.03.08.07ZM70.32,55.39h0,0ZM32.76,24.36s0,0-.01,0c0,0,0,0,0-.02,0,0,0,.01,0,.02Z"/>
      <g>
        <path class="cls-90" d="M40.25,45.62c-.23.19-.46.39-.69.58-.02-.01-.03-.02-.05-.03-.33.02-.59.18-.8.42-.07.19-.13.38-.2.57-.29.98-.69,1.92-1.12,2.84-.52,1.1-1.12,2.17-1.74,3.22-.53.89-1.15,1.72-1.76,2.56-.53.73-1.1,1.43-1.68,2.12-.84,1-1.71,1.96-2.66,2.87-.64.61-1.3,1.21-2.01,1.73-.19.14-.37.28-.57.42-.82.55-1.66,1.07-2.65,1.26-.03,0-.07.01-.1.03-.15.12-.3.07-.47.02-.66-.19-1.31-.4-2.01-.43-.29-.04-.43.11-.48.37-.05.27.03.48.3.59.18,0,.36.01.54.03.16.02.33.06.46.17.02.02.04.06.04.08,0,.04-.03.05-.07.05-.17-.05-.34-.13-.53-.13-.04-.01-.09-.03-.13-.04l-.18.04c-.37.16-.5.47-.49.84,0,.28.19.45.47.49.16-.04.33-.08.48-.11.25-.05.49-.02.74.02.05,0,.08.05.08.11,0,.04-.03.05-.07.05-.16,0-.33-.01-.5-.02-.62.27-.78,1.02-.08,1.49.31.21.63.36,1.01.35.26-.05.52-.1.78-.16,1.15.12,1.99-.53,2.83-1.16,1.07-2.56,2.61-4.82,4.41-6.91.61-.7,1.17-1.47,1.97-1.99.32-.12.46-.43.65-.68.02-.14.05-.27.14-.39.14.43.01.9.22,1.32.02.04-.01.09-.02.14-.01.08-.05.17-.03.24.07.38,0,.76.14,1.13.03.1.02.23,0,.35-.04.6.18,1.18.07,1.78,0,.03.01.07.02.1.04.2.06.39.06.59,0,.24,0,.51.22.68.03-.04.05-.08.07-.12h0s.05-.07.06-.11c.03-.07.06-.14.08-.21.01-.05.04-.1.08-.14.17-.26.3-.53.4-.82-.02-.03-.04-.06-.04-.09-.04-1.71-.21-3.4-.38-5.1-.03-.27-.02-.56-.22-.76,0,0,0,0,0,0,.19-.25.4-.48.56-.75.18-.29.37-.59.56-.88-.08.47,0,.94.06,1.4.16,1.34.02,2.72.54,4.01-.11.17-.14.36-.19.55-.22.53-.45,1.06-.66,1.6-.07.18-.2.34-.22.55-.34.57-.62,1.17-.92,1.76-.03.04-.05.08-.07.12-.03.04-.05.08-.07.12h0s0,0,0,0c-.03.03-.08.06-.1.11-.44.68-.85,1.39-1.37,2.02-.02.02-.03.07-.02.09.03.06.08.04.12.02.41-.22.84-.37,1.28-.48-.18.07-.35.15-.53.21-.48.17-.95.36-1.36.64.7-.72,1.25-1.55,1.78-2.4.11-.17.23-.34.15-.56-.23-.84-.22-1.71-.31-2.56-.03-.32,0-.67-.23-.95-.36-.07-.35.24-.43.43-.98,2.35-2.5,4.27-4.49,5.84-.73.59-1.51,1.11-2.33,1.55-.16.09-.31.17-.52.07-.89-.45-1.79-.4-2.7-.02-.03.02-.05.03-.09.04-.22.14-.35.35-.41.59-.05.22-.06.44.12.6.17.16.37.1.54-.01.44-.16.88-.16,1.33-.08.06.01.12.05.18.08.01,0,.02.03.02.04-.01.03-.04.07-.05.06-.17-.02-.33-.05-.5-.06-.51-.02-1,.06-1.38.44-.37.63.07,1.28.91,1.33.13-.02.24-.09.36-.15.29-.15.59-.29.93-.33.05,0,.1-.02.15-.01.04,0,.09.03.12.07.04.06-.02.08-.06.1-.18.05-.35.09-.53.13-.16.04-.32.09-.44.21-.62.62-.54,1.36.18,1.71.53.06,1.05.12,1.58.18.09.04.18.07.27.1-.12,0-.24,0-.36.01-.1,0-.2,0-.3,0-.4-.03-.8-.08-1.19-.11-.77-.04-1.53-.08-2.28.13-.33.48-.27.75.22.95.05-.01.1-.02.15-.03.43-.1.83.03,1.21.2.03.01.06.03.08.06.02.02.03.06.03.09,0,.04-.04.05-.08.04-.32-.09-.62-.26-.96-.24-.43.03-.51.36-.55.69-.05.43.19.78.62.94.16-.04.33-.07.49-.1.22-.04.43,0,.65.03.06,0,.13.02.16.13-.23.09-.46-.04-.68.01-.58.25-.72.7-.34,1.23.92,1.3,2.21,1.96,3.78,2.13.1.07.22-.04.32.04.35.01.69.02,1.05,0,.72-.03,1.43-.11,2.13-.22,1.45-.24,2.87-.62,4.21-1.23.64-.29,1.23-.66,1.82-1.04.02-.01.03-.06.02-.08,0-.03-.04-.06-.07-.06-.21-.04-.43-.08-.64-.12-.13-.02-.21-.1-.21-.24.02,0,.04,0,.06,0,.14.04.29.09.43.12.91.18,1.83.11,2.74-.03.63-.1,1.22-.35,1.79-.63,1.82-.91,2.93-2.4,3.39-4.36.25-1.08.33-2.17.27-3.28-.06-1.02-.16-2.03-.39-3.02-.17-.77-.34-1.54-.52-2.3-.39-1.75-.78-3.49-1.19-5.24-.28-1.19-.47-2.39-.68-3.59-.1-.27-.07-.56-.12-.84-.13-.72-.19-1.45-.29-2.18-.09-.65-.14-1.29-.18-1.94-.08-1.1-.09-2.2-.07-3.29,0-.5,0-1,.01-1.5-.43.28-.74.63-.89,1.12h.02ZM31.48,71.83c.37,1.27.96,2.45,1.69,3.56.02.04.05.09.08.13.06.08.12.14.18.22.04.04.07.07.12.09-.06.04-.11-.04-.17-.03-.47-.05-.92-.16-1.37-.3-1.35-.43-2.6-1.05-3.79-1.81-.33-.11-.66-.2-1-.25.21-.04.42-.15.62-.36.23-.24.54-.41.77-.64.72-.72,1.5-1.42,1.76-2.45.24-.93.68-1.73,1.36-2.36,0,0,0,0-.01.01-.7,1.36-.66,2.78-.24,4.19h0ZM39.69,66.44c-.21-.14-.44-.22-.69-.24-.34-.16-.71-.19-1.08-.2-.2-.05-.41-.1-.62-.04-.31-.08-.62-.07-.93,0-.28-.1-.54.04-.81.08-.03,0-.06,0-.09.01h0c-.05-.14-.13-.16-.23-.16.12-.03.25-.06.37-.09l.21-.05c.41-.02.81-.04,1.22-.06.07,0,.15.01.22.02h.05s.05,0,.05,0c.25.02.49.04.74.06-.09-1.21-.19-2.43-.29-3.64-.23-2.88-.49-5.76-.73-8.64-.02-.22,0-.47-.23-.58.23-.38.42-.79.64-1.17-.03.16-.04.33-.02.5.17,1.81.34,3.63.47,5.44.19,2.52.44,5.03.65,7.54.02.25.06.5.27.68.22.06.44.12.65.18.3.14.6.29.91.43h0c.06,0,.1.04.13.09.21.23.5.36.67.63.06.04.06.17.13.19.01.04.03.08.05.11-.07-.07-.14-.13-.24-.18-.18-.12-.3-.32-.51-.4-.27-.25-.56-.44-.92-.53h0ZM42.07,68.85s0-.02-.01-.06c-.02-.02-.04-.03-.06-.05-.05-.02-.1-.02-.15.01-.04.04-.06.09-.07.15.04,1.5.27,2.99.36,4.48.01.16.02.37.23.4,0,.01-.02.02-.03.03-.09.13-.19.24-.3.35,0-.5-.06-.99-.1-1.48-.14-1.56-.27-3.13-.36-4.7,0-.05-.02-.09-.03-.13.05.06.12.11.2.15.05.26.19.48.3.72.02.04.04.08.03.13h0Z"/>
        <path class="cls-90" d="M29.68,64.88c.21-.07.4-.17.58-.29,1.34-.91,2.3-2.15,3.03-3.58.1-.22.2-.44.32-.65.03-.06.11-.03.16.02.09-.19.11-.38.07-.58-.04-.18-.04-.36-.04-.54,0-.45-.03-.9-.17-1.33-.17.14-.3.31-.42.49-.08.12-.16.26-.3.33-.14.21-.26.43-.41.62-.44.57-.87,1.14-1.26,1.74-.52.8-1.01,1.61-1.44,2.45-.21.4-.46.78-.52,1.23.09.25.27.14.41.09h0Z"/>
        <path class="cls-38" d="M18.32,52.2c-1.14.14-2.29.27-3.44.39-1.26.12-2.53.22-3.79.29-1.7.1-3.4.11-5.1.07-1.13-.03-2.27-.08-3.39-.22-.08-.01-.16-.04-.24-.06-.07-.04-.15-.01-.23-.03h0c-.09-.1-.21.03-.31-.05-.07-.05-.15-.02-.23-.04h0c-.07-.06-.15-.03-.23-.04h.01c-.06-.08-.15-.04-.23-.05h0c-.41-.24-.3-.6-.18-.93.12-.31.41-.31.68-.26,2.62.43,5.26.43,7.91.38,2.24-.05,4.47-.23,6.7-.49,1.91-.22,3.82-.47,5.68-.94.13-.03.26-.06.39-.09.16-.02.35-.1.46.06.1.14-.02.29-.07.42-.07.17-.14.34-.23.5-.02.05-.04.1-.07.16-.04.08-.08.15-.13.21-.09.11-.21.19-.35.23-.32.09-.64.18-.98.2-.22-.02-.43.02-.64.08-.08.02-.16.04-.24.06-.5.12-1,.25-1.52.21-.09-.01-.17-.03-.25-.06h-.01Z"/>
        <path class="cls-48" d="M54.75,75.27c-.66,0-1.32,0-1.98.01-.26.06-.52.07-.79.04-.98-.11-1.97-.2-2.95-.31-1.44-.24-2.89-.24-4.34-.13-.18.01-.36.07-.54.11-.16.04-.32.07-.48.11-.41.11-.84.14-1.23.33-.06.04-.13.09-.19.14-.04.04-.08.07-.13.1-.57.4-1.18.71-1.81.99-.57.2-1.17.27-1.75.42-.05.01-.11.02-.16.03-.08.01-.16.01-.23.01-.14-.02-.28,0-.42.01-.19.02-.38-.03-.56.07-.04.02-.07.04-.11.06-.05.03-.11.06-.16.09-.03.03-.07.05-.1.08-.07.06-.14.11-.22.16-.38.25-.79.44-1.17.67-.83.42-1.71.72-2.6.99-.55.19-1.12.3-1.7.4-.06,0-.11,0-.17,0-.3-.03-.59.09-.88.14-.29.03-.58.02-.87.09-.4.01-.81.05-1.21.05-.05,0-.09,0-.14,0-.13-.02-.27-.01-.41,0-.04,0-.09,0-.13,0-.11-.01-.22,0-.33-.01-.12,0-.23-.01-.35-.02-.51-.06-1.02-.08-1.52-.18-.55-.14-1.1-.29-1.62-.51-.86-.42-1.23-1.16-1.37-2.06,0-.08.02-.16.06-.23.24-.42.52-.79,1.02-.92.34-.09.68-.17,1.03-.09.15.03.33.07.32.25-.01.2-.22.15-.36.16-.1,0-.2,0-.3-.02-.5,0-.93.16-1.16.62-.23.47-.11.91.23,1.29.4.45.92.72,1.49.88.87.24,1.76.39,2.67.37.05,0,.1,0,.15,0,.13.02.25,0,.38-.01,3.13-.02,6.09-.63,8.81-2.33-.21-.21-.63-.11-.63-.51.03-.05.08-.08.14-.1.85.1,1.69.17,2.55.08,2.81-.28,5.07-2.3,5.65-5.08.4-1.9.34-3.8-.06-5.69-.65-3.07-1.35-6.12-2.05-9.17-.15-.67-.2-1.36-.33-2.03-.03-.14-.05-.3.09-.42.26.23.23.54.26.84.02.05.05.09.05.14.46,2.49,1.05,4.94,1.63,7.4.19.8.37,1.6.54,2.4.32,1.49.5,3,.45,4.53,0,.15.03.25.1.37.77,1.18,1.78,2.08,3.14,2.52,1.29.42,2.61.73,3.94.97.69.12,1.38.24,2.07.37.71.14,1.4.33,2.04.67.13.07.27.15.39.23.11.07.1.16-.01.22-.36.19-.75.27-1.15.31-.06-.02-.13.02-.19.01-.11.02-.21.04-.32.06h0Z"/>
        <path class="cls-66" d="M22.23,76.98s-.06.08-.09.13c-.56-.05-.95-.4-.94-1.01,0-.63-.02-1.26-.04-1.88,0-.05.03-.1.05-.15,0-.02.02-.05.03-.07.02-.04.05-.08.08-.13.01-.02.03-.04.04-.06.02-.04.05-.08.08-.12.01-.02.03-.04.05-.05.13-.14.3-.23.46-.31.33-.13.65-.32,1.03-.3.09,0,.16-.04.15-.15-.07-.12-.19-.16-.29-.23-.19-.12-.4-.24-.4-.51-.2-.34-.28-.71-.19-1.11.03-.12,0-.23-.06-.33-.04-.07-.07-.15-.11-.23-.19-.38-.22-.77-.1-1.17.01-.05.04-.09.05-.14,0-.03,0-.06,0-.1-.1-.09-.24-.08-.36-.13-.56-.22-.93-.6-.92-1.23,0-.14-.05-.22-.15-.29-.08-.06-.16-.13-.22-.2-.39-.42-.5-.9-.25-1.43.1-.21.14-.4.1-.62-.05-.3,0-.6.11-.88.04-.1.04-.18-.02-.27-.26-.38-.44-.79-.35-1.27.01-.07-.03-.11-.07-.17-.24-.41-.22-.62.09-.99.07-.08.1-.15.1-.26.02-.63.26-.87.88-.9.05,0,.1.01.15.01.04.04.04.08.02.13-.13.15-.33.14-.48.24-.12.07-.23.17-.2.31.04.19.21.1.33.11.15,0,.3,0,.44.05.14.11.46.17.1.4-.19.01-.38-.05-.57-.03-.52.06-.57.1-.63.55.18,0,.33-.13.52-.12.12,0,.24,0,.36,0,.08,0,.15.02.22.06.03.04.05.09.05.14-.02.12-.11.16-.22.18-.73.08-.98.45-.68.99.09.17.2.27.4.18.66-.3,1.33-.19,2.01-.02.03,0,.07.01.1.03,1,.42,1.92.19,2.81-.32.43-.24.85-.49,1.26-.77.15-.1.3-.21.49-.21.09.02.15.06.16.15-.15.35-.51.47-.78.67-.78.57-1.65.94-2.59,1.17-.21.05-.4,0-.59-.04-.6-.16-1.2-.32-1.81-.4-.66-.03-1.05.17-1.21.64-.04.11-.1.23-.02.33.1.13.21,0,.31-.04.21-.1.44-.15.67-.19.3-.04.6-.02.89.1.14.06.31.15.25.33-.07.19-.25.07-.39.06-.07,0-.13-.03-.19-.05-.07-.01-.14-.03-.21-.03-.07,0-.14.01-.2.03-.38.07-.74.17-1.03.47-.24.26-.36.56-.32.91.03.22.08.46.3.54.23.08.28-.19.39-.32.2-.23.45-.39.72-.52.3-.11.62-.16.94-.12.18.02.41.05.39.29-.02.19-.23.14-.37.15-.07,0-.13,0-.2,0-.71.03-1.23.37-1.39.92-.13.44,0,.86.35,1.11.36.26.69.24,1.04-.05.26-.21.57-.33.9-.42.24-.05.47-.15.72-.05.12.18-.04.23-.15.29-.15.08-.33.08-.47.17-.04.02-.09.05-.14.06-.45.13-.81.38-1.03.81-.09.17-.15.34-.11.53.02.14,0,.33.16.4.15.06.23-.11.31-.2.26-.28.6-.41.93-.57.37-.16.75-.17,1.13-.1.18.03.42.07.39.3-.03.22-.27.14-.42.13-.52-.04-1,.05-1.43.35-.8.51-1.03,1.34-.53,1.93.3.35.42.35.66-.03.19-.3.43-.54.72-.75.37-.23.76-.43,1.2-.47.16-.01.34,0,.38.17.04.19-.16.23-.29.27-.24.08-.49.13-.71.23-.49.19-.86.51-1.02,1.02-.12.38-.05.47.35.48.25,0,.5,0,.75.03.53.07,1.09-.04,1.58.28.02.09-.03.15-.1.2-.32.14-.65.03-.98,0-.91-.08-1.82-.13-2.72.06-.83.25-1.02.49-.95,1.23.35-.21.66-.47,1.06-.51.42-.13.83-.06,1.23.09.15.06.35.15.31.34-.06.24-.27.11-.42.08-.21-.05-.42-.12-.63-.16-.61-.03-1.26.36-1.47.9-.16.4-.12.78.21,1.1.12.12.28.18.34.36h-.01Z"/>
        <path class="cls-110" d="M21.12,60.53s-.01-.06-.02-.08c.26-.1.52.07.8,0-.3-.31-.61-.59-.74-1-.06-.08-.03-.14.05-.18.15.02.22.14.3.25.97,1.34,2.34,1.65,3.87,1.38.85-.15,1.44-.73,1.94-1.41.31-.42.5-.91.8-1.33.12-.12.31,0,.44-.12.8-.47,1.66-.37,2.49-.21.59.11.92-.08,1.27-.51,1.33-1.64,2.55-3.35,3.61-5.18.84-1.46,1.62-2.96,2.15-4.57.06-.19.09-.39.3-.5.08,0,.14.03.19.1-.09.88-.5,1.66-.85,2.45-.69,1.52-1.47,3.02-2.41,4.4-2.07,3.03-4.35,5.86-7.21,8.2-.16.13-.29.34-.55.29-.04-.02-.09-.05-.13-.07,0-.33.3-.41.49-.59.21-.19.44-.37.65-.54.16-.12.29-.28.44-.41.18-.16.34-.33.52-.48.03-.03.06-.06.09-.09.04-.05.09-.1.13-.14.16-.18.35-.33.52-.5.12-.15.25-.3.39-.44.03-.03.06-.06.09-.09.05-.05.09-.09.14-.14.06-.07.12-.14.18-.2.06-.08.13-.16.19-.23.14-.17.1-.27-.11-.31-.84-.15-1.66-.17-2.46.19-.26.12-.42.32-.53.57-.17.4-.4.79-.72,1.08-.45.4-.66.91-.76,1.48-.03.18-.08.36-.16.53-.08.16-.17.21-.36.13-1.56-.7-3.21-1.12-4.87-1.53-.07-.03-.12-.08-.15-.15h0Z"/>
        <path class="cls-73" d="M22.33,51.19c.14-.31.29-.63.43-.94-.08-.1-.17-.04-.24-.03-.69.15-1.37.31-2.06.46-.31.07-.61.14-.94.13-.26,0-.52.1-.79.15-.21.04-.42.11-.64.07-.08-.01-.17.01-.25.03-.31.06-.61.16-.94.12-.11-.01-.23.04-.35.06-.18.04-.36.09-.55.06-.08-.01-.17,0-.25.02-.5.11-1.03.09-1.54.16-.36.05-.73,0-1.09.11-.23.07-.47.03-.7.04-.5.03-.99.07-1.49.09-.78.03-1.56.05-2.34.07-.95.02-1.9.02-2.84-.02-.95-.03-1.9-.12-2.84-.18-.4-.02-.79-.12-1.19-.18-.12-.02-.23-.05-.34-.06-.2,0-.27.07-.32.29-.07.28-.14.56.09.8-.2,0-.38-.06-.56-.17-.32-.33-.35-.96.06-1.32.48-.43.54-.91.47-1.47-.02-.16-.02-.33-.01-.5.12-.55.17-1.11.18-1.67,0-.22.02-.43.11-.63.09-.19.21-.3.41-.12.09.75-.18,1.48-.18,2.23,0,.68.15,1.36.11,2.04-.01.24.15.31.36.32,2.38.36,4.77.37,7.16.31,2.81-.07,5.61-.3,8.4-.66,1.54-.2,3.08-.41,4.59-.79.26-.06.52-.14.71-.34.04-.04.08-.07.11-.11.02-.02.04-.03.06-.05.03-.04.07-.07.11-.1.04-.03.08-.06.13-.08.08-.02.14-.01.2.06.03.12-.02.24-.09.33-.32.41-.62.83-.83,1.3-.04.09-.12.16-.22.19-.05.01-.1,0-.13-.03h0Z"/>
        <path class="cls-24" d="M60.5,32.96c-.3.69-.85,1.14-1.51,1.46-1.04.5-2.15.59-3.28.38-.74-.14-1.45-.4-2.13-.72-1.25-.6-2.47-1.26-3.63-2.03-.57-.38-1.14-.76-1.72-1.12-.49-.32-1.01-.59-1.55-.82-.77-.33-1.57-.44-2.4-.41-.55.02-1.1.1-1.63.25-.15.04-.11.13-.07.23-.03.05-.08.07-.13.07-.09-.02-.13-.08-.13-.17.09-.45.55-.33.81-.52,1.48-.35,2.89-.16,4.23.53.88.45,1.69,1.01,2.51,1.55,1.69,1.11,3.43,2.19,5.4,2.73,1.82.5,3.53.27,4.85-1.27.03-.04.06-.08.1-.12.02-.02.04-.03.06-.05.06-.05.13-.09.21-.08.06.03.07.07.03.12h0Z"/>
        <path class="cls-36" d="M30.58,22.76c.32.22.58.51.8.81.24.32.43.68.55,1.06.12.36.18.74.23,1.14.21,0,.39-.01.57,0,1.95.06,3.41.91,4.35,2.64,0,.09-.04.14-.14.14-.19-.08-.25-.26-.36-.41-1.52-2.22-4.41-2.71-6.59-1.14-.66.47-1.07,1.14-1.44,1.84-.08.16-.11.36-.31.44-.08,0-.15-.05-.19-.12.03-.54.29-.99.6-1.4.69-.95,1.58-1.62,2.73-1.92.34-.08.41-.25.34-.58-.13-.65-.36-1.24-.81-1.75-.16-.18-.36-.35-.46-.59,0-.09,0-.16.11-.17Z"/>
        <path class="cls-23" d="M42.07,55.07c-.05-.19-.09-.38-.14-.57-.02-.1-.05-.19-.14-.24-.17-.08-.2-.25-.23-.42-.43-2.89-.67-5.8-.56-8.73,0-.17.03-.33.03-.5,0-1.66.2-3.3.53-4.92.02-.05.04-.09.07-.14.04-.04.09-.05.14-.05.05.02.08.06.11.1-.09.49-.17.98-.26,1.48-.2,1.24-.27,2.49-.28,3.75-.02,1.19-.06,2.38.01,3.56.04.8.1,1.6.17,2.4.12,1.32.3,2.63.54,3.93.02.11.01.23.01.35h0Z"/>
        <path class="cls-16" d="M9.84,35.96c.12.07.24.15.36.22.71.82,1.41,1.65,2.2,2.4,2.03,1.93,4.29,3.52,6.9,4.57.15.06.33.09.37.29-.07.22-.23.28-.44.24-.1-.08-.11-.22-.21-.29-2.16-.92-4.12-2.16-5.89-3.7-1.11-.97-2.12-2.04-3.04-3.2-.13-.16-.25-.31-.26-.53h0Z"/>
        <path class="cls-53" d="M1.83,46.62c-.19-.05-.26-.04-.27.06-.02.23-.13.43-.1.68.03.22.05.47-.06.69-.03.05-.04.13-.02.19.08.28-.05.52-.15.77-.02.31-.04.62-.05.93,0,.19-.01.5-.29.5-.26,0-.23-.28-.25-.47.18-1.1.39-2.21.52-3.32.08-.67.41-1.03,1.03-1.17.07.25.1.5.15.76.04.2,0,.35-.18.46-.13.05-.25.04-.33-.09h0Z"/>
        <path class="cls-78" d="M19.18,43.58c.21.11.34-.02.49-.13h.05s.07-.01.11,0c.04,0,.07.02.11.03.04.01.07.03.11.04.02,0,.04,0,.06.01.06,0,.13.02.19.03,1.25.41,2.52.71,3.83.85.13.01.26.03.36.15,0,.18-.13.2-.26.22-.57-.02-1.12-.11-1.68-.21-1.71-.55-3.48-.62-5.26-.59-.1,0-.21,0-.31,0-.1.01-.21.02-.31.02-.41,0-.82.02-1.23.02-.15,0-.34.06-.41-.16.15-.2.36-.26.6-.25h-.01c.19.1.37-.07.56-.02.5-.1,1-.04,1.5-.07.43-.02.87,0,1.3-.01.08.02.18-.05.23.06h0Z"/>
        <path class="cls-6" d="M2.14,46.65c.05-.12.16-.21.06-.39-.08-.16,0-.37-.1-.55-.02-.04.05-.14.08-.22.05-.04.1-.09.17-.1.91-.31,1.84-.55,2.8-.71.06-.01.13,0,.2,0-.14.26-.42.22-.64.3-.3.11-.66.04-.9.32-.02.04-.05.08-.08.12-.11.09-.24.14-.35.22-.06.05-.14.09-.2.15-.27.23-.26.34.06.49.22.1.51.07.63.34.04.17-.03.3-.18.39-.53.09-1.03,0-1.51-.21-.04-.04-.05-.08-.03-.14h0Z"/>
        <path class="cls-52" d="M3.71,45.37s-.02-.06-.03-.09c-.04-.1-.08-.19.07-.22l.73-.16c.29-.07.58-.14.87-.21.34-.07.68-.15,1.03-.21.91-.14,1.82-.26,2.73-.38.1-.01.2,0,.3,0,.25.07.48-.12.73-.08.07.13.01.22-.08.32-.12.1-.28.13-.43.16-1.73.14-3.44.44-5.13.86-.25.06-.52.17-.78.02h0Z"/>
        <path class="cls-60" d="M41.87,39.6s-.07-.05-.11-.08c-.04-.02-.07-.02-.09.02-.32.73-.87,1.31-1.41,1.87-.58.6-.91,1.24-.94,2.11-.02,1.03-.25,2.05-.53,3.05-.08.2-.06.45-.29.57-.04-.04-.08-.07-.12-.1-.17-.23-.04-.45.02-.67.25-.99.4-2,.52-3.01.02-.21.08-.43-.05-.63-.05-.06-.08-.12-.08-.2.08-.31.34-.48.54-.7.74-.83,1.45-1.7,2.13-2.57.1-.13.18-.28.36-.33.08,0,.14.03.13.13,0,.18-.04.36-.11.53h0Z"/>
        <path class="cls-12" d="M37.03,28.56s.05-.1.07-.14c.05.05.11.06.18.06.45-.03.89-.06,1.34-.02.13.01.21-.05.28-.16.17-.3.35-.6.54-.89.1-.15.19-.31.34-.42.04.02.09.04.13.07-.02.39-.31.65-.5.95-.18.28-.21.43.19.47.5.05.96.25,1.42.44.33.13.63.3.91.52.28.22.55.28.88.16.13-.02.26-.04.37.06-.1.16-.28.16-.43.18-.2.03-.31.15-.4.3-.27.06-.43-.16-.6-.29-1.11-.8-2.36-1.12-3.72-1.1-.58.01-.61.05-.38.61.06.15.08.31.09.46-.03.19.05.39-.09.56-.15.02-.2-.09-.26-.19-.08-.55-.43-1.04-.36-1.62h0Z"/>
        <path class="cls-12" d="M42.44,30.21s.09-.03.13-.04c.21.14.35.33.5.53.15.2.32.36.54.48-.02.04-.04.08-.07.12-.04.05-.03.08.02.1.57.44.69,1.09.81,1.74.03.16.01.33,0,.5-.02.91-.23,1.79-.59,2.62-.11.24-.12.48-.08.73.04.26.09.53-.07.78-.09-.03-.12-.12-.16-.2-.02-.12-.04-.25-.05-.37.08-.25-.14-.31-.27-.42-.06-.22.08-.38.15-.56.46-1.12.83-2.26.51-3.5-.2-.78-.68-1.41-1.14-2.04-.1-.14-.29-.24-.23-.47Z"/>
        <path class="cls-54" d="M10.06,44.25c.02-.08.04-.16.07-.24.49-.12.99-.13,1.49-.17,1.25-.1,2.5-.17,3.74-.25.08,0,.17-.02.24.03-.19.08-.38.16-.58.24-.12.18-.31.18-.49.19-1.3.09-2.6.17-3.89.28-.2.02-.4.04-.58-.08h0Z"/>
        <path class="cls-77" d="M.64,49.98c.14.07.11.23.18.35.01.02.05.05.08.05.03,0,.07-.03.07-.05.13-.36.11-.75.19-1.12.01-.07.02-.13.07-.18.08.33,0,.67.1.99-.09.26-.1.56-.24.81-.03.05-.07.06-.12.07-.15.04-.38.29-.41.44-.03.18-.05.36-.09.54-.04.17.09.28.13.42-.06-.02-.13-.03-.19-.06-.45-.23-.47-.27-.36-.78.07-.34.16-.68.24-1.01.46.15.1-.27.24-.34.03-.04.07-.08.1-.11h0Z"/>
        <path class="cls-103" d="M18.32,52.2c.08-.01.15-.02.23-.04.44.37.77.86,1.25,1.19.28.23.57.46.88.66.24.16.34.11.42-.16.16-.56.34-1.12.57-1.66.09-.22.19-.43.34-.61.11-.02.19-.1.26-.18.02.01.04.03.06.04.08.16,0,.29-.06.43-.4.86-.68,1.76-.89,2.68-.03.13-.07.26-.2.33-.08,0-.15-.02-.12-.13-.01-.1-.03-.19-.13-.25-.16-.09-.32-.19-.47-.29-.83-.55-1.57-1.19-2.13-2.02Z"/>
        <path class="cls-86" d="M23.98,26.3l-.06-.28c.03-.07,0-.15.02-.23.02-.13.03-.26.05-.4.22-1.4.97-2.42,2.2-3.09.07-.04.16-.05.24-.08.09-.06.18-.11.27,0-.03.2-.2.25-.34.33-1.37.74-2.07,1.87-2.09,3.43,0,.13.02.27-.09.38-.09.05-.14-.02-.19-.07h0Z"/>
        <path class="cls-128" d="M21.05,54.75s.08.07.12.1c.19.23.08.48.04.72-.16.91-.18,1.82-.11,2.74.02.33.3.61.14.96-.02.05-.05.11-.07.16-.09-.06-.11-.16-.14-.25-.22-.6-.32-1.23-.3-1.86.02-.86.09-1.72.33-2.56h0Z"/>
        <path class="cls-99" d="M26.67,22.28c-.08-.07-.16-.05-.25-.04.39-.26.84-.32,1.28-.36.81-.07,1.59.07,2.3.5.04.1-.02.15-.1.18-.21.02-.39-.08-.58-.14-.66-.22-1.33-.31-2.02-.12-.2.06-.42.14-.62-.01h0Z"/>
        <path class="cls-74" d="M43.19,36.83c.28.02.3.06.23.36-.03-.08-.06-.15-.1-.27-.43.75-.85,1.47-1.35,2.14-.04-.03-.09-.06-.13-.08-.06-.1-.02-.2.03-.28.35-.59.72-1.18,1.12-1.75.05-.07.12-.11.21-.12h0Z"/>
        <path class="cls-126" d="M24.79,28.18s-.05.1-.07.15c-.24-.24-.38-.54-.47-.86.06-.07-.06-.22.11-.24.28.25.44.57.43.95h0Z"/>
        <path class="cls-129" d="M.54,50.09s.09.06.09.1c0,.11,0,.23-.02.33-.02.08,0,.22-.12.22-.11,0-.13-.12-.16-.21,0-.03-.02-.06-.03-.09-.01-.09,0-.16.09-.2,0-.04.03-.07.07-.08.03-.02.06-.04.09-.06h0Z"/>
        <path class="cls-85" d="M29.91,22.5s.06-.09.09-.13c.23.08.43.21.59.39-.03.04-.05.09-.07.13-.31.04-.51-.09-.61-.39h0Z"/>
        <path class="cls-34" d="M24.3,27.23c-.02.08.01.17-.06.24-.15-.38-.25-.76-.26-1.17.04.03.09.06.13.1.24.24.3.52.19.84Z"/>
        <path class="cls-54" d="M10.13,44.02c-.17.04-.34.09-.5.13-.08.02-.16,0-.22-.05.24-.05.47-.14.72-.08Z"/>
        <path class="cls-54" d="M16.15,43.6c-.11.03-.22.06-.33.09-.08.02-.16,0-.22-.07.18-.03.37-.09.56-.02Z"/>
        <path class="cls-25" d="M23.93,25.79c.03.08.03.15-.02.23-.04-.08-.04-.16.02-.23Z"/>
        <path class="cls-130" d="M.45,50.16s-.04.06-.07.08c0-.05.01-.08.07-.08Z"/>
        <path class="cls-8" d="M8.88,27.52s-.05.08-.08.12c.02-.04.05-.08.08-.12Z"/>
        <path class="cls-91" d="M17.93,25.98c-.08-.08-.17-.16-.24-.25-.63-.81-1.42-1.42-2.32-1.88-.52-.27-1.07-.47-1.66-.55-.77-.11-1.53-.08-2.27.22-.66.27-1.23.66-1.74,1.16-.56.56-1.02,1.19-1.4,1.89-.87,1.59-1.11,3.28-.73,5.05.22,1.04.64,2.01,1.2,2.91.32.51.63,1.02,1.07,1.44h0c.11.14.2.3.4.32.39.06.79.08,1.18.08.62-.02,1.24-.07,1.85-.2.64-.18,1.27-.42,1.85-.74.38-.24.76-.5,1.1-.81.3-.29.59-.61.85-.93.16-.2.28-.42.42-.63.16-.3.29-.62.42-.93.09-.23.18-.47.25-.71.05-.23.1-.45.17-.68.07-.29.07-.58.12-.87.04-.29,0-.58.02-.86,0-.4-.03-.8-.13-1.19-.15-.61-.24-1.24-.44-1.84Z"/>
        <path class="cls-91" d="M10.88,24.92c-.01.05-.05.09-.1.1,0-.06.04-.09.1-.1Z"/>
        <path class="cls-120" d="M20.11,51.91c.08.07.11.15.05.26-.2.4-.35.82-.43,1.26-.49-.33-.9-.74-1.19-1.27.53-.04,1.04-.15,1.56-.25Z"/>
        <path class="cls-103" d="M20.93,51.81c-.13.03-.26.06-.38.09-.08.02-.16,0-.23-.05l.38-.09c.08-.02.16,0,.23.04Z"/>
        <path class="cls-103" d="M22.26,51.4s.04-.08.06-.13c.02.01.04.03.05.04,0,.05-.03.09-.07.11-.02,0-.03-.02-.05-.03h0Z"/>
        <path class="cls-103" d="M22.33,51.19s.07-.01.11-.02c.04.07,0,.11-.06.13-.01,0-.03-.02-.04-.03,0-.03,0-.06,0-.09h0Z"/>
        <path class="cls-56" d="M44.34,72.2s-.03.09-.05.14c0-.05.01-.1.05-.14Z"/>
        <path class="cls-90" d="M28.62,61.32c-.21.28-.52.46-.78.69-.15.13-.33.22-.44.4-.39.25-.78.51-1.18.75-.17.1-.33.23-.53.27-.15.13-.35.12-.52.13-1.22.06-2.43,0-3.62-.26-.21-.05-.47-.09-.52-.39.12-.17.3-.19.49-.21.82-.05,1.6-.32,2.43-.47-.08-.15-.22-.12-.31-.17-.28-.1-.56-.2-.84-.27-.52-.21-1.08-.26-1.6-.46-.13.04-.26,0-.39-.02-.2-.44-.08-.63.45-.73.56.03,1.09.15,1.61.36.18.08.38.15.57.18.86.16,1.65.53,2.48.79.16.05.29.13.37.28.11-.06.12-.14.14-.23.1-.39.2-.78.29-1.17.04-.18.13-.34.28-.47.45-.41.83-.88,1.05-1.45.14-.36.42-.55.75-.68.73-.28,2.07-.29,2.81.05-.15.25-.35.44-.54.65-.2.03-.4.03-.6,0-.75-.11-1.43.05-2.03.52-.07.05-.14.11-.21.17-.03.03-.06.07-.08.1-.11.15-.21.32-.31.48-.06.1-.1.22-.15.33-.02.06-.04.11-.06.17,0,.04-.02.08-.03.12-.03.12-.08.24-.11.37,0,.29.19.2.35.18.26-.02.5-.19.77-.04h0Z"/>
        <path class="cls-24" d="M24.13,68.01c.1-.01.2-.02.29-.03.07,0,.14.01.2,0,.77-.3,1.53-.61,2.2-1.12.04-.03.07-.07.11-.11.26-.29.52-.57.88-.73.08.01.14.05.17.12,0,.3-.24.42-.43.57-.62.48-1.28.91-2.02,1.23.57.34,1.07.26,1.58-.1.59-.42,1.24-.76,1.74-1.32.13.06.17.17.19.3-.24.28-.56.47-.86.68-.55.38-1.11.74-1.7,1.05-.14.07-.23.07-.37,0-.64-.35-1.32-.43-2.03-.32-.23.04-.46.09-.69.14.09-.16.25-.14.39-.18.12-.04.27-.03.34-.17h0Z"/>
        <path class="cls-90" d="M22.83,61.69c.27.05.52.14.77.24.02.23-.16.28-.31.32-.65.18-1.3.33-1.96.43-.14.02-.31.05-.37-.15.05-.14.32-.03.27-.26-.03-.03-.05-.05-.08-.08.36-.4.88-.33,1.33-.46.11-.03.23.02.34-.04h0Z"/>
        <path class="cls-90" d="M22.83,61.69c-.07.14-.21.15-.33.18-.45.11-.89.21-1.34.32-.06,0-.11,0-.17,0-.15-.31.02-.47.28-.58q.16-.08.06-.16s-.1-.07-.15-.11c.58-.02,1.11.16,1.64.35h0Z"/>
        <path class="cls-45" d="M20.67,62.18c-.23.04-.44.1-.62.29-.11-.25-.2-.48,0-.67.18-.19.4-.36.7-.25.09.22.02.43-.07.63h0Z"/>
        <path class="cls-19" d="M21.25,60.6c-.17.03-.29.12-.38.27-.09.15-.14.29-.07.45-.08.02-.16.04-.24.05-.25.04-.37-.13-.27-.35.09-.2.21-.37.46-.41.13-.02.26-.06.39-.09.04.02.08.05.12.07Z"/>
        <path class="cls-108" d="M20.67,62.18c-.11-.22-.03-.43.07-.63.19-.05.37-.03.53.07-.14.17-.25.35-.28.58-.11.05-.21,0-.32-.02h0Z"/>
        <path class="cls-15" d="M21.24,62.27c.08.07.08.13,0,.18-.08.04-.18.05-.26.08.02-.04.04-.09.07-.13.09-.01.17-.03.21-.13Z"/>
        <path class="cls-56" d="M21.29,74.12c0-.06.01-.11.06-.15,0,.06-.01.11-.06.15Z"/>
        <path class="cls-56" d="M21.36,73.98s.05-.08.07-.12c0,.06-.02.1-.07.12Z"/>
        <path class="cls-56" d="M21.43,73.85s.06-.08.09-.12c0,.06-.03.1-.09.12Z"/>
        <path class="cls-19" d="M22.01,64.94s-.09-.03-.13-.04c.04.01.09.03.13.04Z"/>
        <path class="cls-20" d="M22.37,51.3s.07-.07.06-.13c.36-.62.75-1.21,1.16-1.8.08-.29.32-.48.52-.68.04-.04.09-.08.14-.12.03-.02.06-.05.09-.07.04-.04.09-.07.13-.11.03-.03.06-.05.09-.07.05-.04.09-.08.14-.11.03-.03.07-.05.11-.07.18-.12.34-.25.54-.33.31-.16.63-.26.97-.32.31-.07.62-.05.93-.01.33.04.4.22.19.47-.18.21-.26.5-.53.63-.48.09-.97.14-1.39.43-.75.49-1.29,1.16-1.75,1.91-.28.41-.54.84-.74,1.29-.09.15-.15.31-.21.47-.06.14-.11.28-.16.43-.01.04-.03.08-.05.12-.03.06-.05.12-.08.17-.04.1-.06.2-.09.3-.04.14-.1.28-.14.42-.05.18-.1.37-.14.56-.02.11-.04.21-.05.32-.02.15-.06.3-.09.45-.04.19-.05.39-.09.59-.04.17-.05.35-.06.52,0,.04,0,.09-.01.14-.01.09-.02.18-.02.28-.13,1.71.72,2.68,2.2,3.11.09.02.18.03.28.04.04,0,.09,0,.14.01.11.01.23.02.34.02.33,0,.64-.09.92-.24.1-.04.2-.09.29-.15.11-.07.2-.15.28-.25.12-.15.21-.32.31-.48.11-.16.21-.33.27-.51.04-.1.1-.2.14-.29.08-.18.14-.37.2-.56.19-.51.36-1.02.46-1.55.3-1.16.35-2.34.41-3.53.05-.71.08-1.42.24-2.11.22-.76-.34-1.18-.73-1.67-.1-.13-.27-.19-.36-.33.14-.57.5-1.01.83-1.47.87-1.05,2-1.39,3.31-1.19.19.03.54.03.33.41-1.33,1.4-1.96,3.14-2.36,4.98-.03.15-.06.29-.1.44-.2.93-.13,1.88-.21,2.82-.09,1.08-.3,2.13-.59,3.18-.05.18-.1.35-.24.48-.17.33-.32.66-.49.98-.22.4-.49.76-.82,1.07-.73.7-1.6,1.01-2.6.93-.26-.02-.53-.07-.79-.13-1.01-.23-1.81-.75-2.28-1.7-.37-.94-.37-1.91-.27-2.89.05-.51.14-1.02.21-1.53.25-1.13.59-2.23,1.1-3.28.02-.04.03-.09.04-.14.05-.03.07-.07.06-.13h0Z"/>
        <path class="cls-90" d="M28.3,59.43c.41-.4.89-.67,1.49-.67.32,0,.63.01.94.04.11,0,.23.02.32.11-.05.05-.11.1-.16.15-.02.03-.05.07-.08.1-.01.03-.03.04-.06.05-.71.42-1.5.5-2.3.54-.13,0-.28.02-.32-.16.03-.07.13-.08.16-.15h0Z"/>
        <path class="cls-90" d="M27.61,60.52c.04-.11.04-.24.14-.33.71-.28,1.47-.38,2.22-.54.12-.03.23-.01.33.06-.15.22-.34.4-.56.55-.05.03-.08.07-.1.11-.51.37-1.13.4-1.72.52-.13.03-.31.04-.36-.16,0-.03-.01-.07-.02-.1.03-.04.05-.08.07-.12h0Z"/>
        <path class="cls-90" d="M30.3,59.7c-.73.16-1.45.33-2.17.49-.13.03-.26.08-.38-.02.08-.23.2-.44.39-.6.04.02.09.06.13.05.57-.07,1.15-.1,1.71-.26.25-.07.52-.11.78-.16-.11.2-.28.35-.45.49h0Z"/>
        <path class="cls-2" d="M28.22,58.12c.21-.7.42-1.4.55-2.12.16-.95.23-1.91.27-2.88.02-.51.02-1.03.17-1.53.07,0,.09.05.12.1-.07,1.01-.13,2.02-.21,3.03-.09,1.1-.3,2.18-.66,3.22-.02.05-.04.09-.04.14,0,.05.05.08.11.08-.04.1-.11.11-.19.04-.04-.03-.08-.06-.12-.09h0Z"/>
        <path class="cls-90" d="M27.56,60.73c.12.1.25.05.38.02l1.7-.38c-.16.22-.35.4-.59.55-.4.2-.84.23-1.27.31-.13.02-.31.05-.35-.16.04-.12.04-.24.13-.34h0Z"/>
        <path class="cls-90" d="M27.43,61.07c.07.06.15.07.23.05.19-.04.39-.08.57-.13.27-.07.54-.1.82-.08-.12.15-.24.32-.43.4-.34.08-.67.15-1.01.22-.26.05-.32-.03-.26-.3.01-.06.06-.12.08-.18Z"/>
        <path class="cls-13" d="M29.64,60.37c.01-.06.05-.09.1-.11-.04.04-.07.07-.1.11Z"/>
        <path class="cls-124" d="M30.82,59.16s.06-.07.08-.1c0,.05-.03.09-.08.1Z"/>
        <path class="cls-49" d="M2.16,46.74c.43.06.85.12,1.28.18.07,0,.13,0,.2,0,.18,0,.36-.05.54-.04,1.82.12,3.65.14,5.47.09.08,0,.15,0,.22,0,.11,0,.23.02.34,0,.07,0,.14-.01.21,0,.07,0,.14,0,.21,0,.05-.01.1-.02.14-.03.05-.01.1-.02.16-.03,1.71-.07,3.42-.29,5.13-.4,1.25-.19,2.51-.33,3.75-.6.99-.22,2-.35,2.97-.7.14-.07.28-.11.43-.13.31-.05.46.11.54.38.21.74.35,1.5.31,2.27-.03.62-.37,1.16-.7,1.68-.03.04-.05.08-.08.12-.03.04-.05.08-.08.12-.05.05-.1.09-.13.15-.1.18-.25.25-.44.29-.69.15-1.37.31-2.06.46-.06.01-.13.04-.2.03-.34-.04-.66.07-.99.13-.29.06-.58.16-.89.11-.09-.01-.2.03-.29.05-.26.05-.52.14-.79.09-.03,0-.07,0-.1.01-.45.16-.92.1-1.38.19-.39.08-.79.06-1.19.1-.36.03-.73.06-1.09.12-.25.04-.5.03-.75.04-.55.03-1.09.09-1.64.1-1,.01-1.99.1-2.99.12-.93.01-1.86-.03-2.8-.04-.97-.02-1.93-.14-2.89-.23-.18-.02-.35-.11-.54-.08-.14-.13-.23-.3-.24-.48-.04-1.19-.26-2.39.02-3.58.05-.21.03-.45.33-.49h0Z"/>
        <path class="cls-26" d="M23.37,49.41c.1-.44.23-.87.5-1.24.15-.21.1-.46.08-.68-.07-.69-.14-1.39-.34-2.06v-.05c-.06-.17-.07-.17-.36-.17-.01-.27.2-.27.37-.28.19-.02.31.11.37.28.09.24.13.48.19.73.19.77.3,1.57.57,2.33l-.02.03h-.04s-.07.07-.11.1c-.01.03-.04.05-.07.05-.03.03-.07.06-.1.1,0,.03-.03.05-.07.05-.04.02-.07.07-.1.1-.22.23-.43.46-.65.69-.07.01-.15.03-.22.04h0Z"/>
        <path class="cls-123" d="M2.16,46.74c-.2.17-.21.42-.24.64-.06.53-.1,1.06-.13,1.6,0,.19.03.4.07.59.05.23.08.46.05.69-.04.36.04.7.13,1.04-.52-.12-.39-.11-.4-.52-.02-.43,0-.86-.09-1.28-.05-.24.01-.49,0-.74,0-.4,0-.79.11-1.18.05-.17.04-.36.04-.54,0-.15.01-.3.11-.42.11.01.21.02.32.03l.02.1h0Z"/>
        <path class="cls-19" d="M41.67,39.54c.02-.06.05-.07.1-.02-.03,0-.07.01-.1.02Z"/>
        <path class="cls-118" d="M28.04,31.08c.1.4.14.81.29,1.19.03.05.04.11.05.17,0,.07-.03.11-.11.1-.09-.15-.08-.35-.22-.48-.02-.09-.05-.18-.07-.27-.03-.15-.06-.3-.09-.46.04-.15-.06-.29-.03-.45h.03c.08.04.11.12.14.19h0Z"/>
        <path d="M3.71,45.37l3.13-.7c.18-.04.36-.09.55-.06.05,0,.1.02.15,0,.48-.16.99-.12,1.48-.21.21-.04.43-.03.64-.05.54.45,1.17.49,1.84.42,1.45-.14,2.9-.22,4.35-.25.47-.01.77-.11.82-.61l.29-.07c.06.05.15,0,.22.05.34-.1.69-.05,1.04-.04.63.02,1.26,0,1.89.07.4.04.79.11,1.18.21.42.11.84.21,1.26.32.29.49-.15.55-.41.73-.16.05-.32.1-.47.2-.05.03-.11.05-.16.07-.93.2-1.84.51-2.8.57-.83-.3-1.69-.17-2.53-.17-2.14,0-4.27.16-6.39.42-1.05.13-2.12.24-3.12.65-.98,0-1.97.01-2.91-.31-.13-.11-.31-.11-.46-.16-.15-.04-.28-.1-.41-.18-.17-.12-.19-.27-.03-.41.14-.12.3-.19.46-.29.09-.13.28-.05.37-.19h0Z"/>
        <path class="cls-106" d="M16.68,43.91c.04.19.12.39.03.59-.04.09-.09.14-.18.14-.56.02-1.13.04-1.69.06-.36.01-.73,0-1.09.07-.14.03-.3,0-.45,0-.51.04-1.03.05-1.54.12-.41.05-.83.05-1.24.08-.05,0-.11,0-.14-.02-.24-.2-.59-.27-.71-.6l.39-.09c.38-.04.76-.09,1.14-.12.4-.04.8-.05,1.19-.09.25-.03.5-.01.75-.04.56-.06,1.12-.06,1.69-.09.07,0,.13-.02.2-.04.05.04.12.07.19.06.46-.09.93-.03,1.39-.06.03,0,.06.03.09.05h0Z"/>
        <path class="cls-115" d="M21.62,45.27l.1-.02c.09-.13.28-.05.37-.19.1-.06.2-.12.3-.17.21-.1.23-.26.17-.46.46.06.91.13,1.37.19.08.01.17,0,.23.07,0,.03,0,.05,0,.08.2.84.45,1.68.62,2.53.04.21.09.44.37.48.07.03.14.07.15.16-.18.11-.36.22-.55.32-.06-.02-.12-.04-.19-.05-.07-.02-.13-.05-.12-.13.04-.24-.05-.46-.09-.69-.14-.62-.28-1.24-.42-1.86-.03-.11-.05-.23-.08-.34-.03-.11-.1-.17-.22-.15-.15.02-.3.02-.39.18l-.39.09c-.24.15-.52.17-.8.21-.18.03-.41.04-.45-.24h0Z"/>
        <path class="cls-39" d="M24.44,44.54c.4.02.8.05,1.19.06.72.04,1.43.02,2.14-.08.06,0,.12.03.19.05-.06.13-.18.2-.29.26-.44.14-.9.07-1.34.1-.7-.04-1.41-.07-2.11.06-.08-.09-.09-.19-.04-.3h0c.11-.03.22-.03.27-.16h0Z"/>
        <path class="cls-106" d="M17.19,43.89c-.08.02-.16.02-.22-.05.08-.02.16-.01.22.05Z"/>
        <path class="cls-16" d="M19.89,43.5s.08.05.12.07c-.04-.02-.08-.05-.12-.07Z"/>
        <path class="cls-104" d="M3.78,46.59c.12-.03.23-.03.35,0,.77.15,1.55.16,2.33.22.05,0,.1-.02.15-.02.88-.11,1.76-.15,2.64-.14.18,0,.37-.05.51.12.07.11.07.22.01.33-.53.01-1.06.04-1.6.04-.98,0-1.96-.03-2.95-.05-.47-.01-.93-.06-1.4-.1-.06,0-.12-.04-.18-.06.12-.09.16-.2.13-.34h0Z"/>
        <path class="cls-52" d="M3.71,45.37c-.07.17-.24.14-.37.19.07-.16.24-.14.37-.19Z"/>
        <path class="cls-72" d="M29.97,49.39c-.3.55-.39,1.15-.53,1.83.42-.35.78-.64,1.13-.94.63-.54,1.26-1.09,1.89-1.65.97-.87,1.93-1.75,2.9-2.62,1.21-1.1,2.35-2.28,3.5-3.44.04.02.08.05.12.07-.1.2-.27.33-.42.49-1.78,1.86-3.67,3.6-5.6,5.3-1.09.96-2.19,1.91-3.28,2.86-.14.12-.3.21-.35.41-.04-.03-.08-.07-.12-.1,0-.03-.01-.07,0-.1.29-1.81.94-3.46,2.08-4.91.1-.13.19-.27.34-.35.06,0,.1.03.12.08-.42.5-.81,1.01-1.13,1.58-.26.48-.54.95-.65,1.5h0Z"/>
        <path class="cls-29" d="M37.69,30.44s0,.07.01.1c.15.23.08.47.05.72-.07.37-.12.75-.26,1.11-.14.31-.26.63-.43.93-.11.18-.25.36-.39.51-.02.03-.05.06-.08.1-.01.02-.03.03-.04.05-.03.03-.05.06-.08.09s-.06.06-.09.08c-.03.03-.06.06-.08.09-.01.02-.03.03-.04.04-.08.09-.18.17-.27.24-.05.04-.09.08-.14.12-.03.03-.07.05-.1.07-.05.04-.11.07-.16.12-.03.03-.07.06-.11.09-.39.21-.73.53-1.22.46-.02,0-.03,0-.05,0-.61.17-1.23.22-1.86.2-.03,0-.06,0-.08,0-.04-.01-.08-.03-.13-.04-.04,0-.08,0-.11,0-.06-.06-.14-.01-.21-.04-.03,0-.06-.01-.08,0-.05,0-.09-.03-.13-.05-.03-.01-.06-.01-.08,0-.05,0-.09-.03-.14-.05-.48-.18-.93-.4-1.37-.64h0s-.09-.04-.13-.09c-.26-.24-.53-.48-.79-.72-.2-.27-.39-.55-.59-.82-.07-.19-.14-.37-.22-.56.02-.04.04-.08.07-.12.02,0,.03-.02.05-.03.77,1.75,2.09,2.8,4.01,2.96,2.96.24,5.23-2.16,5.08-4.91,0-.1.01-.2.02-.3.04.07.06.16.14.2.04,0,.06.02.06.04,0,.03,0,.04-.01.05h0Z"/>
        <path class="cls-90" d="M37.69,30.44s-.03-.06-.05-.09c.01-.18-.08-.36-.01-.55.04.21.18.41.07.64h0Z"/>
        <path class="cls-91" d="M31.74,46.3s-.08-.05-.12-.08c.01-.03.02-.06.05-.09.08-.1.03-.15-.06-.17-.38-.09-.76-.13-1.14-.09-.83.07-1.54.39-2.12,1-.08.08-.16.16-.25.25-.07.05-.13.02-.18-.02-.12-.11-.22-.24-.31-.38-.07-.12-.15-.24-.19-.38-.04-.12-.05-.23-.05-.35,0-.12.02-.23.04-.35.04-.22.14-.42.26-.61.05-.09.06-.19.03-.29.05-.13.17-.13.27-.16.26-.05.52-.13.79-.1.13.02.26-.03.4-.06l2.3-.52c.21-.05.43-.08.61-.21.05-.04.12-.05.19-.07,1.01-.25,1.94-.7,2.88-1.12.32-.14.63-.3.94-.45.03-.01.08-.01.09,0,.04.04.03.09,0,.13-.19.32-.48.55-.74.82-.3.31-.63.59-.93.91-.44.46-.93.86-1.39,1.3-.42.41-.92.72-1.36,1.1h0Z"/>
        <path class="cls-37" d="M13.63,38.62s.08.05.12.08c-.04-.03-.08-.05-.12-.08Z"/>
        <path class="cls-37" d="M13.23,38.19l.02.1s-.07-.06-.11-.08l.09-.02h0Z"/>
        <path class="cls-28" d="M42,37.31s-.05.08-.08.12c.03-.04.05-.08.08-.12Z"/>
        <path class="cls-41" d="M31.8,35.48c.08-.02.15-.01.21.04-.08.02-.15.02-.21-.04Z"/>
        <path class="cls-41" d="M32.12,35.53c.05-.01.09,0,.13.04-.04-.01-.08-.03-.13-.04Z"/>
        <path class="cls-41" d="M31.58,35.43s.09.03.13.05c-.05-.02-.09-.03-.13-.05Z"/>
        <path class="cls-41" d="M31.36,35.37s.09.03.14.05c-.04-.02-.09-.03-.14-.05Z"/>
        <path class="cls-131" d="M29.86,34.64s.09.06.12.09c-.06,0-.1-.04-.12-.09Z"/>
        <path class="cls-90" d="M27.86,30.89c.05.15.08.29.03.45-.03-.11-.06-.22-.09-.33.02-.04.04-.08.06-.12h0Z"/>
        <path class="cls-90" d="M25.47,29.78c.08-.02.15-.01.21.05-.08.02-.15.02-.21-.05Z"/>
        <path class="cls-90" d="M25.69,29.83c.08-.02.16-.01.22.05-.08.02-.16.02-.22-.05Z"/>
        <path class="cls-90" d="M25.9,29.88c.08-.02.16,0,.23.05-.09.02-.17.03-.23-.05Z"/>
        <path class="cls-90" d="M26.44,29.98c.08-.02.16-.01.22.05-.08.02-.16.02-.22-.05Z"/>
        <path class="cls-90" d="M26.66,30.02c.08-.02.16-.01.24.04-.09.03-.17.03-.24-.04Z"/>
        <path class="cls-42" d="M25.25,29.74s.09.03.14.05c-.05-.02-.09-.03-.14-.05Z"/>
        <path class="cls-56" d="M33.5,75.68c-.1-.02-.13-.09-.15-.17.09.02.12.09.15.17Z"/>
        <path class="cls-90" d="M42.03,74.29c-.17-.08-.16-.24-.16-.39-.02-.45-.02-.9-.11-1.34-.05-.21,0-.43-.03-.65-.07-.59-.08-1.19-.14-1.78-.04-.38-.02-.76-.1-1.14-.07-.31-.07-.62-.09-.94,0-.08.07-.11.13-.14.31.19.52.43.41.83-.02.05-.06.09-.06.14.03.35.09.69.11,1.03.02.63.18,1.24.14,1.87,0,.07,0,.13.03.2.11.42.1.85.11,1.28,0,.2,0,.41.2.53-.07.22-.24.36-.41.49h0Z"/>
        <path class="cls-90" d="M43.56,66.34l-1.24-5.52c.11.07.13.19.15.3.36,1.59.72,3.18,1.08,4.78.03.14.08.29.01.44h0Z"/>
        <path class="cls-90" d="M41.67,57.9c-.15-.68-.31-1.37-.46-2.05-.03-.11-.06-.23.02-.33.16.7.31,1.4.46,2.09.02.1.04.2-.02.29h0Z"/>
        <path class="cls-90" d="M41.08,54.83c-.06-.27-.12-.55-.19-.82-.02-.1-.04-.19.03-.28.06.27.12.55.18.82.02.1.03.2-.02.29Z"/>
        <path class="cls-90" d="M55.89,74.55c-.36-.14-.71-.29-1.09-.39-.89-.25-1.8-.4-2.7-.55-1.37-.24-2.72-.56-4.04-.97-.94-.3-1.76-.78-2.46-1.49-.3-.31-.56-.65-.85-1.01-.08.18-.1.34-.11.5-.03.24-.06.47-.09.71-.12.28-.18.57-.22.86,0,.05-.03.09-.05.14,0,.03-.02.07-.02.1-.13.31-.25.62-.38.92-.2.32-.4.65-.6.97-.24.26-.37.46-.39.59.3-.07.59-.15.89-.2.46-.07.92-.16,1.39-.18,1.44-.08,2.87.02,4.29.21,1.29.17,2.59.32,3.89.36.89.03,1.77.02,2.63-.23.07-.02.17,0,.19-.17-.08-.04-.18-.11-.29-.15h0Z"/>
        <path class="cls-90" d="M46.43,74.13c.11-.02.22-.07.32.03-.11.02-.22.06-.32-.03Z"/>
        <path class="cls-90" d="M50.66,73.7c-.08.02-.15.02-.21-.05.08-.02.15-.01.21.05Z"/>
        <path class="cls-90" d="M49.78,74.42c.08-.03.16-.04.23.04-.08.02-.16.02-.23-.04Z"/>
        <path class="cls-90" d="M52.09,73.98c-.09.03-.17.04-.24-.04.09-.02.17-.02.24.04Z"/>
        <path class="cls-90" d="M52.39,74.03c-.08.02-.16.02-.22-.04.08-.03.16-.01.22.04Z"/>
        <path class="cls-70" d="M49.49,73.43s-.09-.04-.13-.05c.05.02.09.04.13.05Z"/>
        <path class="cls-9" d="M47.05,72.64c-.06,0-.1-.02-.13-.07.04.02.09.05.13.07Z"/>
        <path class="cls-90" d="M34.82,63.23c-.05.22-.21.39-.3.59-.01.04-.03.07-.06.09v.02s-.04.08-.08.11h0c-.08-.02-.16-.05-.17-.15-.06-.51-.17-1.02-.18-1.53,0-.33-.07-.66-.07-.99,0-.3-.03-.63-.18-.92-.04-.04-.06-.09-.06-.14-.05-.76-.04-1.53-.17-2.28.05-.32.25-.55.45-.78-.07-.14-.03-.29.11-.45.42.41.31.98.35,1.46.15,1.65.21,3.32.36,4.97h0Z"/>
        <path class="cls-69" d="M33.77,60.37s0,.05,0,.08c-.11.11-.13.27-.19.41-.46,1.23-1.15,2.34-1.95,3.38-.69.89-1.49,1.68-2.35,2.4-.08.06-.17.11-.25.17-.15-.05-.15-.2-.21-.31-.28-.28-.1-.59-.09-.89-.02-.03.06-.07,0-.09s.03,0-.02.04c-.22.23-.35.57-.74.58-.05-.03-.1-.06-.16-.08.16-.46.58-.72.86-1.09.54-.68.75-1.52,1.18-2.25.8-1.37,1.71-2.67,2.72-3.89.05-.06.13-.11.21-.12.05,0,.09.02.12.06-.1.63-.62,1.01-.95,1.5-.98,1.46-1.95,2.91-2.59,4.55-.13.48-.28.96-.25,1.54.36-.19.59-.46.83-.69,1.29-1.23,2.38-2.62,3.1-4.26.06-.14.12-.28.14-.43.07-.22.17-.42.31-.6.07-.09.2-.21.27.02h0Z"/>
        <path class="cls-90" d="M38.07,65.79c-.13-.14-.19-.31-.19-.5,0-.45-.05-.89-.12-1.34-.04-.24.01-.46-.02-.7-.01-.1.03-.21,0-.3-.13-.4-.1-.83-.16-1.24-.05-.34-.03-.69-.06-1.04-.03-.3-.06-.59-.07-.89-.02-.43-.02-.87-.1-1.29-.07-.4-.09-.79-.12-1.19-.06-.58-.16-1.15-.15-1.73,0-.34-.01-.69-.07-1.04-.06-.39-.09-.79-.1-1.19,0-.18-.06-.32-.17-.45.25-.49.45-1,.81-1.43.03.45.09.89.09,1.34,0,.4.11.79.1,1.19,0,.36.06.73.12,1.09.03.17,0,.33.01.5.03.48.09.96.13,1.44.03.35.09.69.11,1.04.02.3.02.6.05.9.04.4,0,.8.11,1.19.08.3-.02.61.09.89-.06.39.1.76.08,1.14-.01.34.1.7.09,1.04-.01.4.07.8.11,1.19.04.49.03,1,.19,1.48-.26-.02-.51-.05-.75-.13h0Z"/>
        <path class="cls-90" d="M36.05,53.99c.13.54.12,1.09.14,1.64,0,.08-.04.17-.01.25.13.4.08.83.15,1.24.06.33.08.66.08.99,0,.32.1.63.06.94-.02.14.09.25.15.36.05.08.03.16-.03.23-.02-.04-.03-.1-.06-.12-.05-.04-.09.02-.11.05-.08.2-.15.4-.23.6-.04.11-.09.21-.14.31-.02.05-.05.08-.06.13h0c-.3,0-.26-.24-.29-.42-.16-1.09-.14-2.19-.25-3.29-.06-.61-.25-1.21-.09-1.83.18-.39.41-.75.68-1.08h0Z"/>
        <path class="cls-90" d="M35.36,55.07c.04.18.06.36.12.54.07.19-.13.36-.05.53.08.15.17.31.15.47-.05.53.11,1.05.08,1.58-.01.31,0,.64.09.94.07.23-.13.42-.02.62.11.19.11.38.09.58,0,.05.01.1.02.15.02.07.07.11.13.14-.06.36-.23.68-.4,1.01-.03.04-.05.09-.07.14,0,.03,0,.06-.01.08-.1-.04-.19-.08-.19-.2,0-.31.04-.63-.08-.93.1-.48-.07-.95-.06-1.42,0-.33-.05-.66-.07-.99-.03-.39-.01-.8-.11-1.19-.02-.08-.05-.17-.04-.25.05-.36-.08-.69-.14-1.03.15-.27.36-.5.55-.75h0Z"/>
        <path class="cls-69" d="M32.88,58.72s-.03-.07-.04-.11c-.02-.03-.03-.06,0-.09h0s.05-.04.09-.02c.1-.05.15-.13.16-.23.03-.04.05-.09.08-.13h0s.05-.08.08-.12h0s.06-.08.08-.12h0c.17-.12.3-.28.41-.46.06-.1.13-.18.26-.19-.04.27-.29.43-.37.68-.18.32-.27.73-.72.82l-.02-.02h0Z"/>
        <path class="cls-90" d="M38.92,48.41c.02.08.01.16-.06.21-.01-.08,0-.16.06-.21Z"/>
        <path class="cls-90" d="M20.96,62.53c.07.06.15.06.23.04l2.22-.5c.08-.02.15-.06.19-.14.23.1.54.03.7.31-.2.17-.46.15-.7.21-.37.1-.75.17-1.13.25-.33.07-.64.17-.99.14-.15-.01-.3.05-.44.08-.19-.16-.19-.17-.09-.38Z"/>
        <path class="cls-90" d="M28.3,59.43c-.02.09-.08.13-.16.15.02-.09.08-.13.16-.15Z"/>
        <path class="cls-13" d="M27.61,60.52s-.05.08-.07.12c.02-.04.05-.08.07-.12Z"/>
        <path class="cls-101" d="M40.6,66.55s-.07-.06-.11-.08c-.04-.03-.08-.05-.12-.07-.28-.14-.58-.27-.87-.39-.21-.08-.44-.14-.66-.19-.25-.04-.51-.08-.76-.13-.24-.02-.47-.05-.7-.06-.05,0-.09,0-.14,0-.1,0-.19-.02-.29-.02-.38-.02-.76.03-1.14.05-.07.01-.15.02-.22.04-.81.22-1.67.28-2.36.68.46-.56.82-1.25,1.25-1.9.01-.02.03-.04.04-.06.03-.04.05-.08.08-.12.01-.02.03-.04.04-.06.03-.04.05-.08.07-.12.35-.57.61-1.18.93-1.77.32-.7.6-1.41.87-2.12.07-.2.14-.4.15-.62-.09-.29-.23-.17-.34-.02-.16.23-.22.52-.3.78-.02.06-.05.13-.08.19-.02.04-.03.08-.05.13-.1.3-.24.57-.35.85-.02.06-.05.12-.08.18-.02.04-.03.08-.05.12-.11.24-.24.47-.34.71-.03.06-.06.11-.09.17-.04.07-.07.14-.09.22-.02.04-.03.07-.04.11,0,.02-.02.03-.03.05-.02.03-.04.07-.06.1-.02.03-.05.07-.07.1-.08.12-.16.25-.21.39-.02.04-.03.08-.04.12,0,.02-.02.04-.02.06-.02.04-.03.08-.04.11,0,.02,0,.04,0,.06-.02.16-.12.27-.2.4-.36.58-.73,1.16-1.15,1.71-.34.43-.67.87-1.12,1.21-.7.54-1.22,1.24-1.49,2.1-.06.19-.12.39-.16.58-.04.24-.14.44-.29.63-.15.2-.31.4-.46.6-.32.43-.67.84-1.08,1.18-.29.23-.58.46-.85.7-.22.19-.44.29-.73.2-.16-.05-.33-.05-.49-.07-.03.04-.06.08-.09.12.06.02.12.05.19.05.59.11,1.19.16,1.77.32.94.38,1.94.46,2.93.62.31.05.56.16.78.38.45.44.88.93,1.51,1.13.14.02.23.17.39.14.01-.21-.21-.21-.29-.34,0-.01-.03-.02-.04-.02-.08-.03-.08-.13-.15-.17-.6-.58-1.26-1.09-1.76-1.78-.56-.78-1.03-1.59-1.09-2.59-.09-1.35.51-2.42,1.3-3.42.32-.37.71-.64,1.14-.87.53-.29,1.1-.47,1.66-.66.27-.09.56-.22.87-.12h.04s.04-.01.04-.01c.26.15.53-.01.8.02.31-.01.61-.04.92,0,.22.01.44.03.65.06.35.03.7.06,1.03.16.24.06.46.16.69.25.34.11.62.33.91.52.19.11.32.34.57.36.08-.03.11-.08.11-.16-.1-.34-.43-.47-.64-.7h0ZM31.08,73.64s.07.06.1.1c.09.11.21.21.27.39-.24.04-.46-.03-.68-.07-.25-.04-.49-.09-.73-.13-.23-.04-.46-.09-.68-.13-.04,0-.08,0-.12-.03-.03,0-.06,0-.1,0-.04-.01-.09-.02-.13-.04-.03,0-.06,0-.09,0-.05-.02-.08-.04-.14-.04-.03,0-.06,0-.08,0-.07-.04-.15,0-.22-.05-.03,0-.06,0-.1,0-.05,0-.09-.02-.13-.04-.03,0-.06,0-.09,0-.05-.01-.09-.05-.14-.04-.03,0-.05,0-.08,0-.14.03-.26,0-.42-.07.23-.25.49-.44.75-.63.02-.04.05-.08.1-.09.61-.55,1.14-1.18,1.63-1.85.09-.04.15-.02.15.09.04.7.25,1.36.53,2,.02,0,.04.02.04.04.04.06.05.13.1.18.01.03.02.05.03.08.1.1.17.23.21.36h0Z"/>
        <path class="cls-101" d="M41.19,67.25c.08.06.16.11.23.17.15.21.3.41.45.62.06.26.26.47.27.75-.02.04-.05.05-.09.04h0s-.08-.06-.12-.08c-.05-.32-.21-.59-.41-.83-.13-.18-.26-.36-.39-.54.02-.04.04-.08.07-.12h0Z"/>
        <path class="cls-56" d="M40.38,66.53c.07,0,.11.04.13.1-.06-.01-.11-.04-.13-.1Z"/>
        <path class="cls-125" d="M37.24,65.74s.06-.04.1,0h-.05s-.05,0-.05,0Z"/>
        <path class="cls-56" d="M34.53,64.23s-.05.08-.07.12c0-.05.02-.1.07-.12Z"/>
        <path class="cls-56" d="M34.38,64.04s.04-.07.07-.11c0,.05-.02.09-.07.11Z"/>
        <path class="cls-56" d="M34.45,63.92s.04-.06.06-.1c-.02.03-.04.06-.06.1Z"/>
        <path class="cls-56" d="M35.03,62.79c0-.06.02-.11.07-.14-.02.05-.05.09-.07.14Z"/>
        <path class="cls-56" d="M34.82,63.23s.05-.08.07-.12c0,.05-.02.09-.07.12Z"/>
        <path class="cls-90" d="M35.99,60.61s.04-.09.06-.13c0,.05-.02.1-.06.13Z"/>
        <g>
          <polygon class="cls-90" points="43.61 31.17 43.61 31.17 43.62 31.17 43.61 31.17"/>
          <path class="cls-90" d="M53.12,40.04c-.77-1.53-1.69-2.96-2.91-4.18-1.83-1.82-3.89-3.33-6.19-4.51-.13-.07-.27-.12-.41-.17-.18.08-.26.18-.04.32.02.01.04.02.07.04.25.43.47.88.56,1.37.04.26.05.53.07.8.04.15.13.27.21.39.36.56.73,1.12,1.02,1.72.24.51.47,1.02.66,1.56.24.67.49,1.34.64,2.04.15.68.3,1.37.45,2.05.03.11.07.23.06.34-.02.38.08.73.15,1.09.02.1.05.2.04.3-.03.27.05.53.11.79,0,0,0,0,0,0,0,0,0,0,0,0,.05.67.1,1.35.23,2.01.03.11,0,.23.02.34.04.28.03.59.24.83,0,0,0,0,0,0,.05.21.08.43.15.63.11.31.19.64.4.9,0,0,0,0,0,0,0,0,0,0,0,0,.09.35.28.65.51.91,0,0,0-.01,0-.02,0,0,0,0,0,.01.16.34.38.63.69.85,0,0,0,.02,0,.02.05.02.09.05.12.1.18.27.46.41.74.55,0,0,0,0,0,0,0,0,0,0,0,0h0c.11.11.23.17.37.21,0,0,0,0,0,0,.25.12.51.19.79.19-.36.29-.72.59-1.15.78-.03-.02-.05-.03-.1-.03-.27.01-.53.04-.8.03-1.36-.07-2.63-.44-3.72-1.31-.62-.49-1.12-1.09-1.5-1.79-.24-.45-.39-.91-.51-1.4-.25-1-.32-2-.29-3.03.02-.8.09-1.6.1-2.4.02-1.01.1-2.03-.01-3.05-.03-.3-.09-.6-.15-.9,0-.1,0-.2-.02-.3-.02-.13-.03-.26-.07-.38-.05-.1-.11-.18-.22-.2-.07.22,0,.43.01.64.05,1.32-.04,2.64-.16,3.96-.12,1.33-.27,2.66-.33,4-.05,1,.09,1.97.5,2.89.63,1.44,1.6,2.59,2.99,3.34,1.84.99,3.83.85,5.49-.51,1.23-1.01,2.04-2.29,2.43-3.84.41-1.63.3-3.26-.11-4.87-.27-1.09-.68-2.14-1.18-3.14Z"/>
        </g>
        <path class="cls-20" d="M28.2,52.56c.03.72-.01,1.43-.12,2.14-.06.4-.07.8-.19,1.19-.03.1-.03.2-.11.28-.58-.5-.96-1.17-1.41-1.78-.32-.43-.76-.8-.94-1.33-.01-.05-.01-.1-.01-.15,0-.07.01-.15.02-.23.13-.76.35-1.49.64-2.21.07-.17.09-.41.37-.41.7.66,1.23,1.45,1.73,2.27.04.07.08.14.03.23h0Z"/>
        <path class="cls-20" d="M25.48,52.93c.05.2.18.35.3.51.58.75,1.15,1.5,1.72,2.26.11.14.18.31.27.47,0,.31-.08.6-.19.87-.09.23-.08.5-.28.68-.13,0-.21-.09-.28-.19-.65-.88-1.35-1.73-1.97-2.62-.02-.69,0-1.38.43-1.97h0Z"/>
        <path class="cls-20" d="M23.69,50.88c.41-.8.96-1.46,1.74-1.93.25-.08.3.14.4.26.14.2.32.37.45.58.07.18-.05.32-.1.47-.24.62-.47,1.25-.62,1.9-.04.17-.03.37-.22.48-.2.07-.31-.07-.42-.19-.45-.49-.85-1.02-1.21-1.58h0Z"/>
        <path class="cls-20" d="M23.7,50.88c.28.08.4.33.54.55.27.42.62.76.94,1.13.02.03.09.01.14.02.04.03.09.07.08.11-.15.61-.19,1.26-.43,1.85-.15.01-.26-.06-.34-.17-.56-.73-1.14-1.44-1.67-2.19.16-.48.41-.91.74-1.3h0Z"/>
        <path class="cls-20" d="M28.2,52.55c-.25-.45-.58-.85-.89-1.27-.06-.08-.13-.15-.18-.23-.18-.26-.35-.53-.58-.75-.07-.07-.11-.17-.16-.25-.01-.62.24-1.09.75-1.43.61.48,1.12,1.03,1.3,1.82-.06.56-.12,1.12-.19,1.68-.02.15.06.3-.06.43Z"/>
        <path class="cls-20" d="M21.78,56.64s-.01-.05,0-.07c.18-.06.23.1.3.2.69,1,1.46,1.94,2.18,2.93.11.15.3.29.19.53-.03,0-.07,0-.1,0-.08-.05-.17-.02-.25-.03-.25.03-.46-.07-.67-.17-.33-.16-.63-.37-.91-.62-.58-.51-.79-1.18-.82-1.92,0-.2-.03-.4.04-.6.05-.08.01-.16.03-.24h0Z"/>
        <path class="cls-20" d="M22.1,54.65c.02-.2.06-.39.16-.56.28-.05.37.18.49.34,1.12,1.47,2.23,2.96,3.37,4.42.16.21.36.41.26.72-.05.12-.15.19-.26.25-.21-.02-.31-.18-.42-.33-1.1-1.52-2.27-2.98-3.39-4.49-.08-.11-.16-.21-.21-.34h0Z"/>
        <path class="cls-20" d="M26.37,59.57c-.08-.3-.26-.54-.45-.77-.46-.55-.88-1.13-1.3-1.71-.29-.4-.63-.77-.91-1.18-.3-.44-.68-.82-.97-1.27-.13-.21-.27-.42-.5-.55-.04-.17.07-.29.12-.43.25-.06.3.16.41.29.67.8,1.29,1.65,1.92,2.49.02.04.04.08.05.12.01.1.04.18.17.1.05,0,.09,0,.13.02.58.61,1.01,1.35,1.56,1.98.1.12.14.26.08.41-.07.18-.16.35-.31.48h0Z"/>
        <path class="cls-20" d="M21.86,56.03c-.02-.22.03-.42.09-.63.22-.07.3.09.4.22,1.04,1.29,1.99,2.64,3.01,3.95.36.46.33.5-.28.62-.25-.03-.36-.22-.49-.39-.8-1.05-1.59-2.11-2.41-3.15-.15-.19-.25-.39-.32-.62h0Z"/>
        <path class="cls-20" d="M21.86,56.03c.05.04.12.07.15.12.28.51.7.91,1.02,1.39.17.26.36.51.57.74.22.24.39.53.59.79.21.27.44.54.61.84.06.1.16.17.24.25-.08.1-.18.11-.3.08-.1.02-.21.05-.31-.01-.03-.06-.04-.13-.08-.18-.3-.4-.6-.79-.91-1.19-.48-.64-.96-1.28-1.44-1.91-.09-.12-.07-.3-.24-.37-.03-.19,0-.37.07-.54h0Z"/>
        <path class="cls-65" d="M24.66,56.65s0-.07,0-.11c-.01-.21-.06-.42-.02-.63.03-.21.04-.43.07-.64.08-.25.03-.54.21-.76.13-.64.26-1.29.39-1.94.05-.17.12-.34.16-.52.18-.67.4-1.34.67-1.98.04-.09.06-.19.09-.28,0-.02-.01-.04-.01-.07,0-.05,0-.09.01-.14.23-.35.27-.81.66-1.05.18-.25.37-.5.55-.76.08-.11.04-.17-.1-.19-.33-.05-.65-.04-.98,0-.03-.18.12-.2.23-.26.14-.04.29-.08.43-.04.37.1.65-.12.95-.26.04.03.08.06.12.08-.2.32-.41.63-.61.95-.08.12-.15.25-.23.37.03.13-.06.18-.15.24-.31.42-.55.89-.71,1.38-.18.25-.25.54-.35.82-.21.59-.42,1.19-.51,1.82,0,.06-.02.1-.04.15-.02.02-.02.05-.02.07-.2.64-.32,1.3-.37,1.97.09.26-.02.5-.03.75-.01.11-.02.23-.03.35-.05.23,0,.49-.16.69h0c-.01.08-.06.16-.14.15-.09-.01-.1-.1-.09-.19h0Z"/>
        <path class="cls-20" d="M22.1,54.65c.24.08.34.31.48.49.09.1.14.22.22.33.67.87,1.35,1.74,2.02,2.62.44.57.86,1.15,1.29,1.72-.08.08-.15.15-.27.16-.21-.09-.34-.27-.47-.44-1-1.34-2.03-2.66-3.04-4-.13-.18-.24-.36-.29-.57-.03-.11.01-.21.05-.31h0Z"/>
        <path class="cls-20" d="M22.05,54.97c.15.19.32.38.46.58.5.65.98,1.3,1.48,1.95.6.78,1.19,1.56,1.79,2.34.03.04.04.09.06.14-.33.2-.68.35-1.08.26.1-.03.2-.05.3-.08.06-.01.13-.02.2-.04.28-.08.28-.08.09-.34-.48-.62-.95-1.24-1.42-1.87-.51-.7-1.03-1.4-1.58-2.07-.07-.09-.13-.19-.19-.29-.05-.07-.12-.11-.2-.14,0-.15.04-.3.09-.44h0Z"/>
        <path class="cls-20" d="M24.81,55.31c.01.21,0,.41-.08.61-.13,0-.22-.08-.29-.17-.6-.77-1.2-1.54-1.79-2.32-.05-.07-.07-.15-.1-.23-.02-.22.11-.37.19-.55.21-.07.29.11.4.22.56.62,1.02,1.32,1.54,1.97.11.14.13.3.12.47h0Z"/>
        <path class="cls-20" d="M25,55.64c0-.26.02-.51.12-.75.24.16.39.4.55.63.08.11.15.22.23.32.5.6.95,1.24,1.41,1.87.02.21-.11.37-.19.55-.44-.27-.63-.76-.95-1.13-.41-.48-.76-1-1.16-1.49h0Z"/>
        <path class="cls-20" d="M22.57,53.19c.29.21.48.5.68.79.31.43.66.84.98,1.26.17.22.34.45.51.68.02.21,0,.42-.07.63-.27-.23-.49-.5-.66-.81-.14-.26-.32-.5-.52-.72-.32-.36-.65-.72-.9-1.14-.05-.08-.11-.17-.21-.21.02-.12.04-.24.12-.34.02-.04.06-.07.07-.13h0s0,0,0,0Z"/>
        <path class="cls-20" d="M24.89,56.69c-.03-.25.01-.49.07-.72.1-.04.17,0,.22.07.65.78,1.33,1.54,1.79,2.47,0,.24-.14.42-.29.59-.03-.11-.06-.22-.14-.31-.57-.64-1.04-1.37-1.57-2.04-.02-.02-.05-.03-.08-.05Z"/>
        <path class="cls-20" d="M24.81,55.31c-.04-.16-.11-.32-.24-.43-.14-.12-.24-.27-.34-.42-.38-.57-.83-1.08-1.26-1.61-.06-.08-.12-.17-.22-.2.05-.16.05-.34.21-.46.08.02.16.05.21.12.26.33.53.64.77.98.31.43.62.85.99,1.24,0,.27-.04.53-.12.79h0Z"/>
        <path class="cls-20" d="M26.97,58.51c-.2-.18-.34-.4-.5-.61-.44-.59-.85-1.2-1.35-1.74-.05-.06-.07-.15-.15-.19-.04-.11,0-.22.04-.32.09,0,.16.01.22.09.21.26.44.5.62.77.21.32.45.61.69.9.22.27.41.56.58.86-.01.1-.06.18-.14.24h0Z"/>
        <path class="cls-21" d="M26.91,48.54l-.61,1.15s-.03.07-.06.11c-.26-.08-.37-.32-.51-.52-.09-.12-.14-.26-.29-.33.12-.16.29-.26.48-.31.25-.07.51-.11.77-.17.08-.02.16.01.22.07Z"/>
        <path class="cls-33" d="M27.11,48.67c.02-.1.07-.18.15-.24.23.06.42.2.56.39.2.27.41.53.59.81.18.26.14.53.03.81-.04-.09-.06-.2-.11-.27-.32-.43-.64-.85-.97-1.27-.07-.09-.13-.19-.26-.23h0Z"/>
        <path class="cls-67" d="M26.66,47.42c-.1.06-.23.05-.3.17-.35.11-.71.23-1.06.35-.04-.02-.09-.04-.13-.06-.03-.06-.03-.11.02-.17.29-.23.63-.34.99-.41.17-.03.36-.08.49.11Z"/>
        <path class="cls-20" d="M21.79,56.64c.03.09.04.17-.03.24-.03-.09-.03-.17.03-.24Z"/>
        <path class="cls-20" d="M24.11,60.19c.09-.03.17-.04.25.03-.09.03-.17.03-.25-.03Z"/>
        <path class="cls-7" d="M22.57,53.19s-.05.08-.07.13c.02-.04.05-.08.07-.13Z"/>
        <path class="cls-115" d="M24.25,48.69s.07-.07.1-.1c-.01.06-.05.09-.1.1Z"/>
        <path class="cls-115" d="M24.42,48.54s.07-.06.1-.1c0,.06-.04.09-.1.1Z"/>
        <path class="cls-115" d="M24.59,48.39s.07-.06.11-.09c-.01.06-.05.09-.11.09Z"/>
        <path class="cls-18" d="M21.62,45.27c.17.19.39.21.63.17.21-.04.41-.09.62-.14-.05.1-.14.13-.24.15l-3.48.78c-.51-.03-.99.17-1.48.22-.48.05-.96.13-1.43.22-.06.01-.12-.03-.18-.05.15-.13.06-.38.26-.48.78-.17,1.56-.3,2.37-.21l2.95-.66h0Z"/>
        <path class="cls-105" d="M16.18,46.28s.07.06.11.08c.08.04.06.1.01.15-.07.07-.17.08-.26.11-.4.12-.83.08-1.24.14-.44.07-.89.09-1.34.13-.35.03-.7.06-1.04.08-.54.04-1.09.07-1.64.11-.04-.03-.08-.02-.1.02l-.1.02s-.08-.04-.12-.07l-.2.04c-.1-.07-.22.04-.32-.03l-.2.04-.07-.29c.05-.1.14-.12.25-.13.12,0,.24,0,.36-.02.1-.02.2-.02.3-.03.11,0,.21,0,.32-.02,1.48-.12,2.96-.21,4.43-.36.27-.03.56-.1.83.05h0Z"/>
        <path class="cls-76" d="M7.07,48.1c.31-.21.65-.28,1.02-.2.1.4-.27.56-.43.82-.36.4-.27.81-.02,1.22.03.04.06.08.12.08.06.13-.06.22-.13.17-.27-.16-.45-.1-.64.12-.06.07-.15,0-.21-.06-.03-.02-.05-.05-.04-.08.07-.36.29-.68.32-1.05.06-.34.31-.68.02-1.02h0Z"/>
        <path class="cls-97" d="M7.13,49.14c0,.4-.12.75-.41,1.04h0c-.05-.06-.06-.14-.11-.19-.16-.45-.23-.9,0-1.35.02-.05.05-.08.06-.13h0c.44-.05.49.02.46.63h0Z"/>
        <path class="cls-68" d="M17.38,49.41c-.05-.47-.11-.94-.16-1.41-.01-.16.04-.21.19-.22.11,0,.23,0,.34.01.24.19.15.48.23.72-.03.27-.18.5-.28.75-.01.04-.03.08-.05.12-.02.04-.05.07-.07.1-.02.01-.04.03-.05.04-.04.01-.08.02-.12,0-.03-.03-.03-.07-.03-.12h0Z"/>
        <path class="cls-59" d="M15.1,49.72c.04-.52.22-1,.33-1.51.02-.12.1-.17.22-.14.19.05.38.1.57.16-.23.41-.31.89-.67,1.24-.13.12-.23.3-.45.25h0Z"/>
        <path class="cls-121" d="M7.66,48.72c.02-.13.04-.26.15-.36.13-.13.23-.28.28-.46.36-.03.64.13.86.41-.1.32-.28.55-.64.58-.19-.15-.4-.26-.65-.16h0Z"/>
        <path class="cls-71" d="M14.3,49.38c-.17.07-.25.17-.24.29.02.39-.17.6-.59.62-.08-.21-.25-.41-.17-.66.03-.04.07-.06.12-.06.17.12.18-.04.22-.13.09-.19.16-.4.37-.5.11-.05.23-.08.35-.08.05,0,.1.02.14.04.15.25-.08.34-.2.48h0Z"/>
        <path class="cls-81" d="M6.77,50.26c.08,0,.17.04.22-.05.07-.11.13-.23.2-.34.07-.12.13-.11.2.02.04.07.05.16.13.21.11.08.18.04.23-.07.16,0,.32-.04.47-.09.11.2-.02.33-.16.4-.2.1-.26.29-.36.45-.42.03-.72-.15-.93-.51h0Z"/>
        <path class="cls-64" d="M7.7,50.76c-.03-.11-.05-.23,0-.34.04-.07.07-.16.17-.16.24,0,.3-.16.35-.35.04-.09.09-.17.13-.26.05-.12.13-.12.23-.06.06.06.08.15.05.22-.12.32.03.47.31.55-.05.14-.17.21-.29.25-.31.12-.63.22-.96.14h0Z"/>
        <path class="cls-113" d="M17.38,49.41s.04.06.06.09c.03.03.06.03.08-.01.03-.04.05-.08.07-.12.12-.25.26-.49.37-.74.17-.06.33-.07.49.02.1.19.02.34-.11.47-.03-.01-.06-.03-.09-.04-.16-.05-.21-.04-.21.08,0,.15.01.29.01.44,0,.24-.04.3-.26.33-.08,0-.16.01-.25.01-.09,0-.15-.05-.17-.15-.02-.13-.06-.26-.01-.39h0Z"/>
        <path class="cls-116" d="M9.36,49.87c.11-.37.22-.73.32-1.1.07-.22.23-.33.49-.32.12.57-.23,1-.42,1.49-.14.12-.16.45-.47.28-.06-.13,0-.24.08-.34h0Z"/>
        <path class="cls-27" d="M11.71,49.36c-.25-.08-.38-.25-.38-.51,0-.27.18-.47.47-.56.09-.03.19-.03.29-.05.35.21-.02.4,0,.6-.05.23,0,.53-.38.51h0Z"/>
        <path class="cls-98" d="M10.82,49.13c.1.22.24.41.28.65.11.19.19.4-.01.57-.2.17-.31-.05-.44-.14h.01c-.11-.08-.33-.03-.33-.26,0-.04,0-.08.02-.13.05-.09.08-.18.07-.28,0-.04,0-.08,0-.12,0-.06.02-.12.04-.18.01-.04.03-.08.05-.11.02-.03.05-.06.08-.09.02,0,.04-.01.06-.02.07.01.12.04.15.1h0Z"/>
        <path class="cls-10" d="M10.49,49.41s.01.07.01.1c-.01.01-.03.03-.04.05-.04,0-.08-.02-.11-.04-.04-.04-.07-.08-.12-.09-.07.04-.08.11-.11.17-.03.08-.06.16-.1.23-.02.04-.06.07-.09.09-.09.04-.17.05-.25-.01.17-.48.4-.95.5-1.45.17-.07.31-.05.39.14.05.12.1.23.14.35,0,.06-.05.09-.09.13h0s-.05.08-.07.12h0c-.05.07,0,.16-.05.22h0Z"/>
        <path class="cls-55" d="M13.44,49.68s-.03-.06-.05-.09c-.12-.15-.1-.32-.1-.5-.02-.23-.03-.45-.05-.68-.02-.23-.02-.23.27-.27.07.02.14,0,.21.01h0c.24.71.15,1.17-.29,1.52Z"/>
        <path class="cls-127" d="M18.83,48.8s0,.06-.02.09c0,.11.03.19.16.16.21.18.35.42.46.7-.21.1-.41.07-.6.06-.11-.01-.15-.12-.17-.22-.05-.07-.06-.17-.14-.22h0c-.06-.05-.07-.12-.09-.19,0-.2,0-.4.23-.5.08,0,.14.04.18.12h0Z"/>
        <path class="cls-11" d="M8.96,50.37s-.1.02-.15.03c-.36.04-.44-.07-.33-.42.04-.13.07-.25.11-.38.18-.02.34.04.51.08.12.02.14.12.15.21.04.2-.03.36-.21.45-.03.01-.05.02-.08.03h0Z"/>
        <path class="cls-83" d="M13.19,49.94c-.08.09-.11.23-.25.27-.25.13-.52.18-.8.19-.23-.36.25-.31.31-.51.06-.1.11-.2.03-.32-.04-.02-.08-.04-.12-.06-.12-.33.05-.41.33-.41h0c.13.15.05.36.17.51.16-.03.08-.23.2-.29.04.03.08.07.11.1.14.17.16.34,0,.52h0Z"/>
        <path class="cls-119" d="M13.44,49.68c.27-.3.36-.66.27-1.05-.04-.17-.04-.32.02-.48.16-.02.32-.05.48-.07.2,0,.33.05.17.28-.1.14-.33.17-.3.4,0,.1-.02.18-.06.27-.13.09-.2.22-.24.37-.04.15-.11.28-.23.38-.07.06-.1-.04-.11-.1h0Z"/>
        <path class="cls-47" d="M15.1,49.72c.16-.15.32-.29.47-.44.11-.11.21-.23.23-.38.05-.28.21-.48.41-.67.11-.03.21.03.31.05.04.02.08.05.13.05.05.51-.41.32-.63.45-.04.06-.06.13-.04.21.1.34-.25.4-.36.61-.22.19-.4.23-.54.12h.02s0,0,0,0Z"/>
        <path class="cls-89" d="M15.57,49.53c.03-.12.13-.18.22-.26.09-.08.16-.16.19-.28.19.06.38.11.57.18-.05.2-.25.19-.38.29-.02,0-.03,0-.05,0-.22-.02-.28,0-.3.11-.03.15.07.19.18.23.06.02.11.05.17.08-.15.25-.44.23-.65.37-.08.02-.16,0-.22-.05-.08-.29.26-.41.27-.67h0Z"/>
        <path class="cls-117" d="M9.67,49.9l.29-.07c.22.21-.07.32-.09.48,0,.19-.07.31-.27.33-.08,0-.16.02-.24.03-.17.02-.16-.11-.17-.22.03-.09-.09-.26.12-.25.07.04.11,0,.15-.05.07-.09.13-.17.2-.25Z"/>
        <path class="cls-22" d="M13.96,48.73c-.04-.12-.02-.23.1-.3.08-.05.18-.08.26-.12.07-.04.06-.11-.03-.17-.03-.02-.05-.04-.08-.06.29-.06.57-.07.76.22-.11.18-.15.42-.44.39-.02,0,.05.16-.03.23-.03,0-.06.01-.1.02-.13-.1-.29-.16-.44-.22h0Z"/>
        <path class="cls-96" d="M16.02,48.78s.07-.1.09-.1c.27.02.42-.14.54-.35.11-.03.19.03.28.06.2.07.23.12.2.27-.04.2-.15.29-.34.26-.26-.04-.51-.15-.77-.14h0Z"/>
        <path class="cls-61" d="M18.46,47.73c.22-.06.42-.04.58.16-.07.29-.26.45-.53.54-.18.01-.37.04-.54-.05-.17-.47.32-.44.49-.65Z"/>
        <path class="cls-3" d="M16.43,49.92c.09-.02.17,0,.24.04.15.1.18.39.04.51-.03.03-.09.04-.13.03-.21-.05-.41-.11-.61-.16-.07-.22-.02-.37.23-.41.08-.02.16-.02.24-.02Z"/>
        <path class="cls-63" d="M7.13,49.14c-.03-.13-.06-.26-.09-.39-.05-.2-.18-.26-.37-.24.06-.2.19-.35.39-.41.08,0,.18,0,.22.07.08.11.11.24.06.37-.07.2-.15.4-.23.6h0Z"/>
        <path class="cls-114" d="M12.45,49.89c.03.13-.03.21-.15.25-.13.04-.16.14-.15.26-.11.03-.22.04-.32-.04.05-.32-.13-.3-.34-.24-.04-.05-.09-.09-.12-.15-.05-.09-.01-.18.06-.21.21-.09.42-.19.63.02.11.11.25.15.4.11h0Z"/>
        <path class="cls-87" d="M11.99,48.76c.04-.09.07-.18.13-.26.07-.1.04-.18-.03-.26.34-.05.66-.05.87.29-.13.33-.41.25-.67.25-.08.02-.17.03-.25,0-.02-.01-.03-.02-.05-.04Z"/>
        <path class="cls-79" d="M12.7,49.1c-.23.04-.3.21-.33.41-.23,0-.46-.02-.66-.15.17-.07.27-.18.23-.37-.02-.08,0-.16.05-.23h.02c.11.1.26.1.38.17.02.01.04.03.05.04.08.04.17.08.25.13Z"/>
        <path class="cls-88" d="M18.46,47.73c-.05.21-.17.35-.38.41-.1.03-.1.11-.09.2.09.08.09.16,0,.24-.02,0-.05,0-.07-.01-.07-.17-.17-.34-.12-.55.02-.07-.03-.16-.04-.23.23-.07.47-.11.71-.06h0Z"/>
        <path class="cls-122" d="M13.07,49.32c0,.15.08.29,0,.44-.03.06-.09.1-.15.11-.07,0-.13-.02-.16-.09,0-.02-.02-.03-.02-.05-.06-.21-.12-.42-.03-.63.17,0,.29.06.36.22Z"/>
        <path class="cls-31" d="M18.49,48.35c.09-.03.17-.09.24-.16.1-.11.21-.2.32-.3.09.04.11.11.11.2-.14.22-.22.49-.47.62-.16.12-.16.3-.21.46-.02.05-.05.05-.09.02-.03-.01-.04-.04-.04-.07-.04-.18.1-.31.11-.47v-.05s-.02-.07-.02-.11c0-.05.02-.1.06-.15h0Z"/>
        <path class="cls-44" d="M15.07,48.61c.06.17.02.33-.07.48-.1.15-.23.24-.41.24-.13-.33.04-.57.24-.79.09-.1.21-.11.25.07h0Z"/>
        <path class="cls-75" d="M15.08,48.61c-.09-.08-.19-.08-.25.03-.13.21-.24.43-.24.69-.09.06-.19.06-.3.05.07-.15.14-.3.21-.45-.01-.08-.03-.16-.04-.24,0-.03.02-.08.02-.07.28.07.26-.32.49-.31.07.09.16.17.1.3Z"/>
        <path class="cls-5" d="M15.57,49.53c.13.16,0,.29-.07.42-.05.09-.13.17-.2.25-.3-.04-.3-.05-.28-.3,0-.06.04-.11.06-.17.07.07.14.07.22.01.09-.07.18-.14.27-.21h0Z"/>
        <path class="cls-40" d="M10.65,50.22s.03,0,.05,0c.36.16.46.09.42-.3,0-.05-.01-.1-.02-.15.17.15.19.38.3.56.04.07-.01.12-.09.14-.05.01-.1.02-.15.03-.23.03-.4-.07-.52-.3h0Z"/>
        <path class="cls-102" d="M18.68,48.71c.11-.24.2-.5.47-.62.12.34,0,.57-.32.71-.05-.03-.1-.06-.15-.09h0Z"/>
        <path class="cls-80" d="M8.31,48.88c.12-.03.19-.12.26-.2.12-.13.25-.25.37-.38.08.04.12.12.14.2.01.04,0,.12-.02.14-.23.16-.45.34-.76.24h0Z"/>
        <path class="cls-93" d="M11.48,50.12c.07-.07.13-.15.2-.21.12-.1.25-.04.28.12.03.15-.03.25-.14.34-.16-.01-.27-.1-.34-.24Z"/>
        <path class="cls-46" d="M16.19,49.99c-.1.03-.16.08-.17.2,0,.06-.04.11-.07.17-.07-.06-.15,0-.23-.05-.08.02-.15,0-.21-.05.03-.16.13-.24.28-.28.12-.03.25-.06.37-.09.03.02.05.04.04.06,0,.03-.01.04-.02.04h0Z"/>
        <path class="cls-43" d="M12.28,48.74s.04-.08.05-.08c.24.09.44.02.63-.12.05.07.1.14.05.22-.03.05-.09.1-.14.12-.14.04-.28.06-.43.1h.01c-.09-.05-.18-.11-.17-.23Z"/>
        <path class="cls-94" d="M16.62,49.18c.09-.02.17,0,.22.07.06.07.03.16,0,.23-.03.07-.08.11-.15.1-.15-.02-.3-.03-.43-.12.06-.17.25-.18.35-.29h0Z"/>
        <path class="cls-32" d="M13.19,49.94c0-.17,0-.35,0-.52.1-.09.02-.24.11-.33.03.17.07.33.1.5-.07.24.04.47.08.7-.09-.02-.12-.09-.14-.17s-.06-.15-.14-.18Z"/>
        <path class="cls-10" d="M9.88,50.32c-.03-.17.15-.3.09-.48h0c.05-.06.1-.12.18-.14.1-.03.2-.04.3,0,.05.03.06.07.03.13-.03.01-.06.02-.1.03-.08.12-.1.28-.23.36-.09.04-.18.07-.27.11h0Z"/>
        <path class="cls-92" d="M10.15,50.22c.04-.14.03-.32.23-.36,0,.2.19.24.28.37-.17,0-.34,0-.51,0h0Z"/>
        <path class="cls-51" d="M19.37,47.64c.09-.15.19-.06.28,0,.08.05.07.14.02.22-.03.05-.09.09-.14.13-.07-.11-.25-.16-.17-.35h0Z"/>
        <path class="cls-82" d="M9.33,50.21c-.04.08-.08.16-.12.25-.05-.03-.11-.07-.17-.1.07-.15.14-.3.21-.45.04,0,.07-.02.11-.02-.01.11-.02.22-.03.33h0Z"/>
        <path class="cls-114" d="M12.14,50.4c.27-.06.53-.13.8-.19-.23.21-.5.25-.8.19Z"/>
        <path class="cls-102" d="M18.97,49.05s0,.1-.02.14c-.03.05-.08.06-.12.01-.08-.1-.09-.21-.02-.32.05.06.11.11.16.16Z"/>
        <path class="cls-4" d="M16.62,49.18c-.08.15-.21.23-.35.29-.03.01-.06,0-.09,0,.05-.19.22-.23.38-.29.03,0,.05,0,.07.02h0Z"/>
        <path class="cls-17" d="M19.37,47.64c.06.12.11.23.17.35-.27-.1-.3-.15-.17-.35Z"/>
        <path class="cls-104" d="M9.96,47.06c.11-.02.22-.07.32.03-.11.02-.22.07-.32-.03Z"/>
        <path class="cls-92" d="M10.62,49.07s.06-.09.09-.13c.07.04.11.1.11.18-.06-.02-.13-.04-.19-.05Z"/>
        <path class="cls-119" d="M13.73,48.15c-.07.03-.15.05-.21-.01.08-.03.15-.04.21.01Z"/>
        <path class="cls-76" d="M6.61,49.98c.09.03.11.1.11.19-.09-.03-.11-.1-.11-.19Z"/>
        <path class="cls-113" d="M18.39,49.19l.09-.02c.02.07.02.14.04.2-.08-.03-.12-.1-.12-.18h0Z"/>
        <path class="cls-89" d="M16.19,49.99s-.02-.07-.02-.1c.09-.03.18-.02.26.04-.08.02-.16.04-.24.06h0Z"/>
        <path class="cls-31" d="M18.51,49.37c.11.03.13.12.14.22-.09-.04-.13-.12-.14-.22Z"/>
        <path class="cls-3" d="M15.73,50.3c.08-.03.16-.02.23.05-.09.03-.16,0-.23-.05Z"/>
        <path class="cls-79" d="M12.36,49.51c.05,0,.09.01.12.06-.04-.02-.08-.04-.12-.06Z"/>
        <path class="cls-96" d="M16.65,48.33c-.06.01-.1,0-.13-.05.06-.02.1,0,.13.05Z"/>
        <path class="cls-81" d="M7.76,50.02c-.06,0-.1-.03-.12-.08.06,0,.1.03.12.08Z"/>
        <path class="cls-63" d="M6.68,48.51s-.04.09-.07.13c-.01-.06.01-.1.07-.13Z"/>
        <path class="cls-104" d="M10.69,47.1c.02-.06.06-.07.1-.02l-.1.02Z"/>
        <path class="cls-104" d="M10.47,47.05s.08.05.12.07c-.04-.02-.08-.05-.12-.07Z"/>
        <path class="cls-90" d="M43.53,31.69h0c-.31-.53-.68-1.02-1.08-1.49-.04-.03-.07-.05-.1-.08-.53-.4-1.07-.78-1.69-1.05-.8-.34-1.63-.44-2.48-.47-.23,0-.46.02-.69.04-.12.01-.17.09-.15.21.03.18.08.36.21.5-.02.16.01.31.08.45-.05.21.13.41.03.61,0,.05,0,.1.04.14,0,0,0,0,0,0-.05.24-.04.47-.04.71-.09.36-.18.73-.27,1.09-.15.3-.29.6-.44.9l-.38.53s-.05.07-.09.11c-.02.05-.05.09-.1.12-.03,0-.05.03-.06.05-.03.03-.06.06-.08.09l-.35.3s-.06.08-.1.1c-.03,0-.05.02-.07.04-.04.06-.13.06-.17.13-.43.22-.85.47-1.31.62-.02.03-.04.05-.06.07,0-.03.01-.08.02-.12-.62-.01-1.22.17-1.85.16-.04.02-.07.03-.11.04-.05-.02-.1-.04-.15-.05-.03,0-.07-.01-.11-.01-.05,0-.11,0-.16-.02-.03,0-.07-.01-.1-.02-.05-.01-.11-.03-.16-.04-.04-.01-.07-.03-.1-.04-.06-.02-.11-.05-.16-.08-.44-.16-.83-.48-1.32-.53v-.05s-.05-.08-.08-.12c-.26-.24-.45-.57-.83-.65,0-.4-.25-.64-.58-.81.11-.23-.07-.4-.11-.6-.07-.17-.06-.39-.32-.42,0,0,0,0-.01.01h0c.06-.12.03-.22-.03-.32,0,0-.01,0-.01-.01.07-.15.03-.3,0-.45-.04-.11-.08-.21-.15-.3,0,0,.02-.02.02-.02.05.07.11.12.2.11.17-.59.21-1.19.17-1.8-.04-.03-.07-.06-.11-.08-.08.03-.15.1-.16.17-.05.46-.35.44-.68.36-.8-.19-1.48-.57-2.05-1.17-.14-.15-.22-.38-.48-.4-.07.04-.1.1-.04.17,0,.11.15.17.13.31-.1-.02-.18-.04-.26-.06-2.14-.56-4.2-1.34-6.16-2.37-.16-.08-.31-.2-.49-.23-.03.13-.06.25-.03.39.12.51.24,1.03.36,1.54.03.18.07.36.09.54.02.21,0,.43.06.64-.06.27-.05.54-.03.82-.08.28-.11.57-.12.86-.09.21-.14.43-.16.66-.11.22-.19.46-.24.7-.15.3-.29.59-.43.89-.16.17-.27.38-.38.58-.28.31-.55.61-.83.92-.35.26-.7.51-1.05.77-.62.28-1.23.56-1.89.74-.63.12-1.27.18-1.91.22.15.32.42.54.67.78.12.25.33.43.55.59.13.25.37.4.56.59.02,0,.05.01.07.02,0,.02.01.04.03.06.05.02.09.05.12.09,0,.03.02.06.04.08.03.03.07.05.11.07.04.03.08.05.12.08h0s.09.04.12.08h0c.04.14.13.21.26.25.14.17.28.34.5.4.05.07.09.15.15.2.39.29.78.57,1.18.84.64.43,1.32.77,2.01,1.12,1.03.52,2.12.92,3.23,1.22,1.18.32,2.38.52,3.6.62,1.08.09,2.16.09,3.25.03.3-.02.59-.06.89-.09.53-.05,1.07-.07,1.59-.19,1.14-.25,2.3-.44,3.41-.84.55-.2,1.1-.38,1.62-.64.25-.12.51-.17.77-.22.09-.02.2,0,.3.02.39.11.53.48.3.82-.08.11-.18.2-.26.31-.82,1.1-1.74,2.11-2.68,3.11-.96,1.04-1.99,2.02-3.03,2.99-.28.26-.52.57-.88.74-.46.41-.37,1.01-.56,1.51-.04.1-.09.25.04.32.14.07.2-.09.28-.15.79-.65,1.54-1.33,2.32-2,1.92-1.65,3.78-3.34,5.57-5.14.43-.44.94-.81,1.23-1.38,1.06-1.14,2.06-2.33,3-3.58.45-.72.9-1.43,1.35-2.15.04-.11.06-.22.12-.33.37-.7.58-1.45.72-2.22.08-.44.06-.89-.02-1.34-.09-.45-.25-.86-.48-1.25ZM41.46,30.55s0,0,0-.02h0s0,0,0,0c0,0,0,0,0,.01ZM42.79,35.81s0-.01,0-.02c0,0,0,0,.01,0,0,0,0,.01,0,.02Z"/>
        <path class="cls-90" d="M36.49,33.9h0s0,0,0,0h0Z"/>
        <path class="cls-90" d="M42.9,32.16c-.13-.05-.14-.17-.16-.28.12.06.14.17.16.28Z"/>
        <path class="cls-100" d="M41.54,38.03s.05-.08.08-.12c-.03.04-.05.08-.08.12Z"/>
        <path class="cls-90" d="M41.47,30.42s-.07-.05-.11-.08c.05,0,.09.03.11.08Z"/>
        <g>
          <path class="cls-90" d="M60,27.9s0,.02,0,.02c0,0,0-.01-.01-.02-.23-.51-.6-.93-.97-1.33-.83-.9-1.82-1.59-2.91-2.12-2.85-1.4-5.87-1.78-9-1.36-1.21.16-2.4.48-3.52.98-1.41.63-2.65,1.48-3.66,2.67-.06.08-.11.16-.17.25h0s.07.07.11.09c-.32.43-.61.88-.88,1.4.71.09,1.35.26,1.96.53.26.04.39-.15.55-.29.47-.41.97-.76,1.56-.99,1.76-.69,3.58-.78,5.43-.48.26.04.52.14.79.04.02-.01.03-.03.05-.05.06.05.13.06.2.04,0,0,0,0,0,0,0,0,0,0,0,0,.2.11.41.16.64.16,0,0,0,0,0,0,.2.11.42.17.65.17,0,0,0,0,0,0,0,0,0,0,0,0,.04.02.08.04.12.07.26.09.49.24.78.25,0,0,0,0,0,0,0,0,0,0,0,0,.3.13.61.25.91.38.22.12.43.24.68.29,0,0,0,0,0,0,.2.18.46.25.7.35,0,0,0,0,0,0,0,0,0,0,0,0,.04.03.08.05.12.06h.01s.06.05.1.06c.22.11.42.28.68.31,0,0,0,0,0,0h0s0,0,0,0c0,0,0,0,0,0,.21.16.45.25.7.32.17.11.35.19.55.22,0,0,0,0,0,0,0,0,0,0,0,.01.21.12.43.21.68.24,0,0,0,0,0,0h0c.28.14.57.22.87.22,0,0,0,0,0,0h0c.28.1.56.15.85.1,0,0,0,0,0,0,.48.08.91-.08,1.32-.31,0,0,0,.02.02.02.26.04.43-.08.56-.25.2.82.18,1.63-.06,2.44-.05.15-.13.32.03.46.01.03.02.07.03.1h0c.04-.07.1-.14.13-.21.31-.7.38-1.44.31-2.2-.09-.96-.41-1.85-.95-2.65ZM60.06,28.23s0,0,0,0c0,0,0,0,0,0h0s-.01-.02-.02-.02c0,0,.01,0,.02,0,0,0,0,.02,0,.03Z"/>
          <polygon class="cls-90" points="42.78 29.71 42.78 29.7 42.78 29.7 42.78 29.71"/>
          <path class="cls-90" d="M60.13,32.98c-.98.76-1.52.97-2.67,1.08-.92.09-1.79-.07-2.65-.37-.84-.29-1.62-.7-2.37-1.18-.59-.38-1.18-.75-1.75-1.17-.73-.53-1.52-.96-2.34-1.34-1.01-.47-2.06-.77-3.19-.74-.32,0-.64-.01-.95.04-.4.06-.78.17-1.18.25-.1.02-.19.05-.24.15.13-.02.25-.04.38-.07.3-.13.63-.08.94-.11.69-.07,1.37,0,2.03.19.74.23,1.42.58,2.08.98.53.32,1.05.66,1.55,1.03.54.4,1.13.72,1.71,1.04.79.44,1.57.89,2.4,1.25.58.25,1.18.47,1.8.6.96.2,1.89.09,2.82-.19.08-.02.16-.06.23-.09.61-.27,1.13-.65,1.5-1.22.02-.04.05-.08.07-.12-.05-.06-.12-.07-.18-.02Z"/>
          <path class="cls-90" d="M49.96,36.96c-.02-.08-.05-.15-.14-.17.02.08.05.15.14.17Z"/>
        </g>
        <path class="cls-109" d="M28.38,32.4s-.02.03-.05.03c0-.05,0-.1-.01-.15.07.02.08.06.06.12h0Z"/>
        <path class="cls-90" d="M20.42,28.22c-.06,0-.11-.01-.15-.07.05.02.1.04.15.07Z"/>
        <path class="cls-90" d="M20.27,28.16s-.09-.04-.13-.07c.06,0,.1.02.13.07Z"/>
        <path class="cls-90" d="M20.14,28.09s-.07-.04-.11-.05c.05-.01.08.01.11.05Z"/>
        <path class="cls-57" d="M10,46.74l-.29.07s-.1-.06-.13-.06c-.43.1-.86,0-1.29.04-.51.04-1.02.03-1.54.04-.04,0-.09-.04-.13-.06.23-.05.44-.13.66-.22.44-.16.9-.27,1.37-.29.1,0,.21.02.3-.01.51-.17,1.05-.19,1.58-.23.66-.05,1.32-.17,1.99-.18.32,0,.66-.01.99-.09.11-.03.23-.02.35-.01.45.01.9-.01,1.34-.05.1-.01.2,0,.3,0,.7,0,1.4-.02,2.09-.02.3,0,.6.05.89.08.11.01.18.08.21.18-.31.06-.61.17-.93.12-.09-.01-.2.03-.29.05-.11.02-.23.07-.34.06-.32-.04-.62.06-.93.13-.42.12-.86.08-1.29.14-.1.01-.2,0-.3.01-.67.13-1.35.14-2.03.16-.23,0-.45.08-.69.07-.35,0-.69.06-1.04.09-.06-.05-.15,0-.22-.05l-.29.07c-.1-.07-.22.04-.32-.03h0Z"/>
        <path class="cls-18" d="M22.09,45.06c-.07.17-.24.14-.37.19.07-.17.24-.14.37-.19Z"/>
        <path class="cls-111" d="M25.17,47.79s0,.06,0,.09c-.07,0-.13.02-.2.03-.09.01-.17-.02-.2-.11-.04-.11-.06-.22-.09-.34l-.32-1.41c-.04-.19-.09-.38-.18-.57-.08-.17-.01-.39-.15-.56-.08-.1.02-.18.13-.22.03.1.07.21.1.32.12.07.19.18.25.3.16.34.14.73.33,1.06.04.07.07.15.09.23.09.29.11.59.25.86.04.11.04.22-.02.32h0Z"/>
        <path class="cls-84" d="M24.75,46.44c-.22-.36-.25-.77-.36-1.16.2-.28.52-.29.81-.33.36-.06.72-.09,1.09-.11.35-.07.71-.03,1.07-.06.11-.01.22-.03.33-.04.03,0,.06.01.09.02.09.03.14.08.06.17-.03.04-.06.07-.1.1-.81.25-1.63.47-2.44.7-.25.07-.49.14-.46.47,0,.09-.02.17-.09.24h0Z"/>
        <path class="cls-84" d="M26.28,44.83c-.63.15-1.26.29-1.89.44-.1-.06-.1-.16-.13-.25.02,0,.03-.01.04-.02.2-.23.45-.26.75-.23.34.04.69.02,1.04.03.07,0,.13.02.19.04Z"/>
        <path class="cls-90" d="M35.72,34.6c-.03.08-.1.11-.17.13.03-.08.09-.12.17-.13Z"/>
        <path class="cls-90" d="M35.89,34.46s-.07.07-.1.1c.02-.05.05-.09.1-.1Z"/>
        <path class="cls-90" d="M36.32,34.07s-.05.07-.08.1c0-.05.03-.08.08-.1Z"/>
        <path class="cls-90" d="M36.49,33.9c-.01.06-.05.1-.11.12.03-.04.07-.08.11-.12Z"/>
        <path class="cls-90" d="M36.57,33.79s-.06.07-.09.11c0-.05.03-.09.09-.11Z"/>
        <path class="cls-84" d="M24.73,46.23s0-.03-.01-.05c-.15-.46-.01-.46.33-.54.4-.1.8-.19,1.2-.35.43-.17.91-.22,1.37-.31.04,0,.09.03.14.05-.09.2-.17.4-.25.6-.77.25-1.57.34-2.32.64-.14.06-.3.05-.44-.04h0Z"/>
        <path class="cls-84" d="M25.17,47.79c-.02-.1-.05-.19-.08-.29-.05-.06-.04-.11,0-.17.73-.32,1.48-.56,2.26-.7.12-.02.23,0,.34.06.1.11.19.22.29.33-.03.04-.07.07-.09.11-.13.25-.29.36-.59.28-.2-.06-.42-.06-.63,0-.35-.07-.67.07-1,.18-.17.06-.33.13-.5.19h0Z"/>
        <path class="cls-84" d="M25.1,47.38s0,.08,0,.12c-.17-.27-.22-.58-.28-.88.82-.47,1.67-.8,2.64-.69.02.13.04.26.06.4-.15.21-.39.24-.61.29-.47.09-.92.25-1.37.41-.19.07-.37.15-.44.36h0Z"/>
        <path class="cls-84" d="M27.46,45.93c-.44.1-.88.2-1.32.29-.18.04-.35.09-.51.18-.25.14-.54.15-.82.22-.02-.06-.04-.12-.06-.18,0-.07-.01-.14-.02-.21.3-.08.62-.11.89-.28.09-.06.22-.07.33-.09l1.16-.26c.13-.03.26-.06.37.04.01.1.03.2-.03.3h0Z"/>
        <path class="cls-84" d="M25.1,47.38s-.04-.09-.04-.14c-.02-.21,0-.24.17-.3.75-.25,1.51-.47,2.29-.62.06.12.12.25.18.37l-.88.2c-.18.04-.35.09-.52.18-.14.08-.31.11-.47.15-.24.06-.49.11-.73.17h0Z"/>
        <path class="cls-56" d="M42.05,68.83s.06-.03.09-.04c0,.08-.03.1-.09.04Z"/>
        <path class="cls-90" d="M32.84,58.52s0,.06,0,.09c-.04,0-.05-.03-.03-.06,0-.01.02-.02.03-.03h0Z"/>
        <path class="cls-90" d="M32.93,58.5s-.06.02-.09.03c.02-.05.04-.08.09-.03Z"/>
        <path class="cls-90" d="M33.17,58.14s-.05.09-.08.13c.03-.04.05-.09.08-.13Z"/>
        <path class="cls-30" d="M25.5,52.85c-.02-.06,0-.11.04-.15.01.06,0,.11-.04.15Z"/>
        <path class="cls-20" d="M24.66,56.65s.01.06.02.09c.04.11.07.11.15.02.02-.02.04-.05.06-.07-.02.18-.06.26-.15.23-.14-.05-.15-.15-.08-.27Z"/>
        <path class="cls-107" d="M26.25,49.8s.04-.07.06-.11c.01.05-.01.09-.06.11Z"/>
        <path class="cls-104" d="M9.99,46.74c.11-.02.22-.07.32.03-.11.02-.22.07-.32-.03Z"/>
        <path class="cls-104" d="M10.61,46.71c.08-.02.16-.02.22.05-.08.02-.16.02-.22-.05Z"/>
        <path class="cls-88" d="M17.97,48.64c0,.31-.18.52-.38.73.01-.31.18-.55.33-.8h.02s.02.05.02.07Z"/>
        <path class="cls-88" d="M17.52,49.49c-.02.06-.05.08-.08.01.03,0,.06,0,.08-.01Z"/>
        <path class="cls-35" d="M13.96,48.73c.31-.15.4-.11.44.22l-.38.09-.06-.3h0Z"/>
        <path class="cls-50" d="M17.97,48.64s0-.05-.02-.06c.01-.08.03-.16.04-.24.17-.05.34-.06.5,0l.04.19s-.05.09-.08.12h0c-.16.03-.32.07-.48-.01Z"/>
        <path class="cls-92" d="M10.48,49.82l-.05-.13s-.05-.09-.02-.15c.03-.01.07-.02.1-.03.03.11.08.21-.03.31Z"/>
        <path class="cls-92" d="M10.49,49.41c-.02-.08-.02-.15.05-.21.02.08.02.15-.05.21Z"/>
        <path class="cls-92" d="M10.55,49.2s.05-.08.07-.12c-.02.04-.05.08-.07.12Z"/>
        <path class="cls-58" d="M10.41,49.54s.01.1.02.15c-.08.03-.16.06-.25.09-.08-.03-.19-.03-.17-.16.04-.12.07-.25.12-.36.04-.09.1-.04.14,0,.07.08.04.21.14.28h0s0,0,0,0Z"/>
        <path class="cls-92" d="M10.41,49.54c-.09-.07-.12-.17-.14-.28.11.06.12.17.14.28Z"/>
        <path class="cls-92" d="M10.02,49.62c.03.08.09.12.17.16-.07.02-.14.03-.21.05-.02-.08-.02-.15.04-.21Z"/>
        <path class="cls-1" d="M12.28,48.74c.07.07.18.11.17.23-.1.05-.21.04-.32,0-.11-.03-.14-.1-.13-.21.09-.01.18-.02.27-.03h0Z"/>
        <path class="cls-113" d="M18.45,48.65s.05-.08.08-.12c0,.06-.03.1-.08.12Z"/>
        <path class="cls-19" d="M19.89,43.5s-.06,0-.1.02c-.04-.02-.08-.05-.12-.07-.41-.18-.82-.35-1.23-.54-.39-.18-.77-.38-1.16-.58-.55-.29-1.07-.61-1.59-.94-.49-.31-.95-.68-1.4-1.04-.35-.28-.7-.56-1.05-.84-.63-.52-1.19-1.11-1.77-1.69-.43-.44-.81-.93-1.2-1.41-.05-.06-.13-.12-.06-.21.38.02.77.04,1.15.06.3.19.52.46.74.72.15.22.37.4.55.6.16.19.35.34.52.52.03.03.06.06.09.09.01.01.03.03.04.04.03.03.06.05.09.08.03.03.05.05.07.08.02.03.05.05.07.08.01.01.03.02.04.04.03.02.06.04.09.06.02.01.03.02.05.03.03.02.06.04.09.07.03.03.06.05.09.08.07.07.16.13.24.19.17.15.35.29.53.43,3.86,3,8.27,4.15,13.09,3.88,2.68-.15,5.28-.66,7.73-1.78.23-.1.48-.16.73-.18.33-.03.6.08.77.37.17.29.05.55-.14.78-1.15,1.47-2.37,2.86-3.69,4.18-.85.85-1.7,1.71-2.61,2.51-.15.13-.27.3-.5.3-.29-.28-.03-.53.07-.75.4-.92.93-1.76,1.63-2.49,1.51-1.18,2.87-2.51,4.23-3.91-2.55,1.24-5.17,2.16-7.98,2.4-.84.05-1.68.13-2.53.07-.34-.02-.7.03-1-.2-1.23-.1-2.43-.32-3.6-.7-.23-.07-.46-.2-.71-.19-.04-.02-.08-.05-.12-.07-.04-.03-.08-.05-.12-.07h-.01Z"/>
        <path class="cls-62" d="M22,51.58c0,.05.02.11,0,.15-.38.78-.63,1.62-.88,2.45-.05.15-.11.18-.26.08-.4-.25-.81-.48-1.12-.83-.13-.35.05-.65.17-.95.07-.19.14-.38.21-.56.07-.02.14-.04.2-.06.21.08.4-.11.61-.04.36-.08.72-.16,1.08-.23h0Z"/>
        <path class="cls-19" d="M23.81,76.19c-.1.09-.21.17-.28.28-.16.24-.21.48-.05.75.28.49.67.87,1.12,1.2.63.45,1.32.78,2.08.95.19.05.4.06.57.18-.24.1-.5.06-.74.03-.87-.07-1.73-.19-2.54-.52-.56-.23-1.06-.56-1.36-1.13-.31-.59-.06-1.33.55-1.59.12-.05.24-.12.36-.17.09-.04.19-.06.29.01h0Z"/>
        <path class="cls-19" d="M23.12,74.5c-.45.32-.55.74-.31,1.19.09.18.22.33.38.44-.35.13-.64.33-.78.69-.03.08-.09.13-.17.16-.03-.01-.07-.02-.1-.03-.85-.4-.86-1.39-.22-1.98.24-.22.53-.35.82-.47.12-.05.26-.09.38,0Z"/>
        <path class="cls-19" d="M21.05,62.91c.27.24.62.34.96.37,1.16.12,2.32.2,3.48.17.07,0,.13-.02.2-.03-.1.18-.32.17-.48.25-.28.14-.58.24-.87.35-.18.07-.36.04-.54,0-.4-.11-.81-.19-1.21-.31-.44-.13-.89-.11-1.34-.11-.23,0-.4.16-.59.26-.14.07-.2.06-.29-.06-.21-.3-.31-.65-.26-.98.02-.14.08-.28.2-.33.23-.09.46-.2.72-.1,0,.04,0,.09,0,.13,0,.02,0,.04,0,.06-.01.11.01.22.02.33h0Z"/>
        <path class="cls-19" d="M22.43,66.32c-.1.13-.2.27-.3.39-.19.24-.24.52.1.84.23.22.5.38.81.49.11.04.22.08.33.12-.35.1-.7.24-.96.5-.21.21-.43.2-.68.1-.51-.2-.84-.6-.82-1.07.03-.54.29-.95.78-1.2.18-.09.37-.15.56-.21.06-.02.13.01.2.02h0Z"/>
        <path class="cls-19" d="M23.16,70.07c-.01.08-.03.16-.05.24-.05.33.07.58.35.75.19.12.41.22.61.33-.04.05-.07.12-.12.16-.29.22-.45.53-.6.84-.06.13-.17.16-.29.08-.67-.46-.9-.97-.54-1.74.13-.28.29-.57.63-.67h0Z"/>
        <path class="cls-19" d="M21.71,64.94c-.15.18-.29.35-.36.59-.07.26-.02.45.18.61.05.04.1.09.15.13-.38.2-.66.5-.86.87-.08.14-.15.14-.27.02-.38-.38-.49-.82-.29-1.32.17-.41.49-.66.9-.79.17-.06.36-.08.54-.11h0Z"/>
        <path class="cls-19" d="M23.31,68.4c-.09.19-.18.39-.27.58-.03.06-.05.12-.06.19-.04.3.13.46.44.43.05,0,.1-.02.15-.02-.02.03-.04.07-.06.08-.37.11-.64.35-.89.62-.08.08-.13.27-.31.2-.14-.06-.13-.22-.16-.35-.15-.6.06-1.14.58-1.47.18-.12.36-.25.6-.25h0Z"/>
        <path class="cls-19" d="M24.59,71.4c-.1.24-.23.46-.26.74-.05.36.04.65.33.87.04.03.07.07.11.1-.34.02-.69-.05-1.03.02-.14.03-.22-.06-.23-.19-.02-.29.03-.58.19-.8.23-.32.49-.63.9-.73h0Z"/>
        <path class="cls-19" d="M22.48,73.43c-.02.11-.03.23-.06.34-.07.28.04.48.28.62-.41.07-.75.26-1.01.58-.08.09-.2.06-.22-.06-.1-.59.05-1.13.56-1.28.16-.05.28-.19.45-.19h0Z"/>
        <path class="cls-19" d="M21.75,63.78c-.14.04-.28.09-.33.25-.05.17-.09.34.02.51.04.07.09.13.13.2-.34.09-.67.17-.96.38-.1.08-.2.03-.22-.09-.08-.55.25-1.09.79-1.21.19-.04.38-.16.58-.04Z"/>
        <path class="cls-19" d="M43.63,37.76c-.06-.34,0-.7-.11-1.04-.05-.18.06-.35.13-.52.29-.65.48-1.34.56-2.06.02-.15-.06-.3.04-.44.19.06.28.23.39.38,1.06,1.55,1.77,3.26,2.24,5.07.41,1.57.66,3.18.86,4.78.05.86.22,1.71.28,2.57.01.21.08.42.19.61.17.49.3,1.01.52,1.48.14.32.31.63.5.91.19.29.37.58.63.81.03.03.07.06.1.09.05.04.1.09.15.14.2.2.45.33.68.48.13.08.26.17.4.23.29.14.63.1.9.28-.4.32-.8.65-1.26.88-.53-.05-1.06.04-1.59-.03-2.31-.31-4.01-1.47-4.94-3.61-.52-1.19-.63-2.49-.6-3.79.03-1.66.21-3.31.14-4.97-.03-.64.05-1.3-.2-1.92-.05-.11,0-.22,0-.34h0Z"/>
        <path class="cls-19" d="M59.95,30.17c.11,0,.18-.07.27-.12.13-.08.26-.16.38-.23.29.94.23,1.88-.09,2.8-.03.08-.03.16-.04.24-.06.05-.11.1-.17.14-2.18,1.83-4.47,1.39-6.76.28-1.04-.5-1.99-1.17-2.94-1.83-1.27-.88-2.61-1.65-4.16-1.93-1.23-.22-2.46-.21-3.66.19-.05.01-.1.02-.14.04-.23.08-.42.04-.63-.12-.32-.25-.67-.47-1.05-.63.07-.05.15-.08.2-.14.58-.57,1.22-1.02,1.99-1.32.71-.27,1.45-.44,2.19-.55,1.03-.14,2.06-.07,3.09.09.3.05.59.09.89.13h.06c.08-.02.17,0,.25,0,.19.05.37.09.56.13.18.05.38.1.56.14.04,0,.08.02.13.03.06.02.13.04.19.06.23.08.45.18.69.24.32.1.63.24.94.37.22.1.45.21.67.3.19.12.4.2.6.3.04.02.08.04.11.07.04.02.07.04.11.06.02,0,.04.02.06.03.04.01.08.03.12.05.2.08.39.21.6.28.23.12.48.22.71.33.18.08.36.15.55.21.22.09.45.19.68.25.29.08.58.16.87.2.29.05.57.11.87.09.45.06.85-.25,1.3-.21h0Z"/>
        <path class="cls-19" d="M39.55,46.2c-.28.13-.53.32-.84.39-.02-.15.03-.3.07-.44.24-.86.33-1.74.44-2.62.04-.33.06-.66.08-1,.01-.18.08-.31.2-.44.29-.32.59-.64.87-.97.44-.52.87-1.05,1.3-1.58.02.47-.14.91-.21,1.37-.16,1.05-.27,2.1-.31,3.16,0,.14.1.29-.02.43-.04.03-.08.06-.11.1-.21.38-.5.69-.79,1.01-.11.34-.34.54-.69.58h0Z"/>
        <path class="cls-19" d="M33.35,75.51c-.19-.03-.34-.15-.48-.27-.83-.72-1.56-1.51-2.06-2.49-.62-1.21-.6-2.44-.06-3.66.2-.47.5-.91.88-1.27.05-.04.11-.07.17-.1-.31.71-.5,1.45-.46,2.23.03.73.11,1.44.38,2.15.27.72.55,1.42.91,2.1.17.32.36.64.55.95.07.11.15.22.17.36Z"/>
        <path class="cls-19" d="M28.21,73.78c.32-.02.63.1.93.15.77.13,1.54.31,2.32.39.12.01.23.05.31.14.49.55,1.06,1.01,1.65,1.45-.46.01-.9-.11-1.32-.25-.91-.29-1.79-.63-2.62-1.1-.44-.24-.88-.46-1.27-.78h0Z"/>
        <path class="cls-19" d="M32.88,58.72c-.06.03-.14.05-.17.1-.4.55-.84,1.07-1.24,1.62-.44.63-.87,1.26-1.27,1.91-.32.54-.64,1.09-.87,1.68-.14.36-.31.68-.56.99-.3.36-.61.7-.96,1.01-.27.26-.52.56-.89.7,0-.26.17-.47.27-.7.27-.61.57-1.21.93-1.77.2-.31.32-.66.54-.96.43-.57.81-1.18,1.25-1.75.44-.57.88-1.14,1.34-1.68.59-.69,1.19-1.35,1.85-1.97.07-.07.14-.09.21,0,0,.02,0,.04,0,.05,0,.03-.02.07-.04.1,0,.02-.02.03-.02.05-.01.03-.03.06-.05.09,0,.02-.01.03-.02.05-.01.04-.03.07-.04.11-.03.06-.06.11-.12.15-.04.01-.07.02-.11.01-.02.02-.05.04-.07.06,0,.03,0,.05.04.07.01.03.01.06-.01.08h0Z"/>
        <path class="cls-19" d="M29.27,64.78c.13.09.25.05.38-.01.58-.27,1.11-.62,1.54-1.09.38-.4.74-.81,1.08-1.25.3-.4.58-.82.86-1.24.05-.07.11-.13.16-.19.04.27-.15.47-.25.69-.2.42-.41.83-.66,1.23-.36.58-.79,1.12-1.22,1.64-.55.67-1.18,1.26-1.84,1.82-.07.05-.13.1-.2.15-.05.04-.14-.02-.13-.09,0-.23,0-.47.04-.69.06-.33.11-.66.25-.96h0Z"/>
        <path class="cls-25" d="M37.03,28.56c.2.52.37,1.04.47,1.59.57,2.02-1.3,4.72-3.42,5.15-1.68.34-3.15.1-4.45-1.01-.57-.49-1.04-1.09-1.29-1.82-.02-.11-.08-.21-.12-.31-.12-.35-.3-.69-.18-1.08.07-.18,0-.36.01-.54.02-.43.12-.85.19-1.27.05-.12.1-.24.16-.36.68-1.58,1.87-2.53,3.55-2.87,1.8-.36,3.89.49,4.94,2.33.04.07.06.16.14.2h0Z"/>
        <path class="cls-25" d="M24.3,27.23c-.06-.28-.12-.56-.19-.84,0-.08.02-.16.02-.25-.03-1.64.68-2.85,2.1-3.65.14-.08.3-.15.45-.22.13-.03.26-.06.38-.1.85-.22,1.67-.16,2.49.17.12.05.24.1.37.15.2.13.4.26.61.39.45.4.84.86,1.1,1.41.2.45.31.92.35,1.4,0,.08-.03.13-.1.15-.16.04-.33.07-.48.13-1.61.53-2.72,1.57-3.24,3.2-.07.22-.14.44-.21.68-.11.07-.24.04-.37.02-1-.14-1.83-.58-2.49-1.35-.1-.11-.19-.23-.28-.35-.16-.32-.32-.63-.49-.95h0Z"/>
        <path class="cls-14" d="M32,27.88c-.49.07-.64.19-.63.47,0,.24.21.37.64.4-.16.45-.5.67-.98.62-.47-.05-.83-.39-.9-.87-.07-.44.18-.88.59-1.05.49-.2.91-.07,1.28.43Z"/>
        <path class="cls-112" d="M29.39,25.7c-.1.02-.17.03-.23.05-.2.07-.3.18-.29.35,0,.17.1.27.32.33.07.02.16-.03.22.05-.28.43-.54.55-.94.46-.36-.08-.61-.38-.64-.74-.03-.39.18-.74.53-.88.37-.14.68-.04,1.04.37h0Z"/>
      </g>
    </g>
  </g>
</svg>