<svg width="92" height="92" viewBox="0 0 92 92" fill="none" xmlns="http://www.w3.org/2000/svg">
<circle cx="46" cy="46" r="44.5" stroke="#8BB453" stroke-width="3"/>
<path fill-rule="evenodd" clip-rule="evenodd" d="M41.5433 47.7605C39.9185 46.6566 37.9569 46.0115 35.8446 46.0115C30.2375 46.0115 25.6921 50.5569 25.6921 56.1639C25.6921 61.771 30.2375 66.3164 35.8446 66.3164C41.4516 66.3164 45.997 61.771 45.997 56.1639C45.997 54.0428 45.3466 52.0737 44.2342 50.445L51.1379 43.5379L54.4574 46.8575L56.9956 44.3194L53.6753 40.9992L58.7503 35.9216L62.9178 40.0892L65.456 37.5511L61.2878 33.3829L65.7689 28.8995C66.5038 28.1643 66.493 26.9958 65.7634 26.2713L65.7321 26.2402C65.0043 25.5174 63.821 25.5172 63.0934 26.2437L41.5433 47.7605ZM56.1495 40.9352L58.6876 38.3971L62.9178 42.6273L67.9941 37.5511L63.7639 33.3208L66.9373 30.1474C68.361 28.7238 68.3673 26.4181 66.9491 24.9999L67.0086 25.0594C65.5926 23.6434 63.2858 23.6465 61.8611 25.0712L41.2898 45.6425C39.6595 44.797 37.8078 44.3194 35.8446 44.3194C29.303 44.3194 24 49.6224 24 56.1639C24 62.7055 29.303 68.0085 35.8446 68.0085C42.3861 68.0085 47.6891 62.7055 47.6891 56.1639C47.6891 54.2007 47.2115 52.349 46.366 50.7187L51.0733 46.0115L54.4574 49.3956L59.5337 44.3194L56.1495 40.9352ZM42.6129 56.1639C42.6129 59.902 39.5826 62.9323 35.8446 62.9323C32.1065 62.9323 29.0762 59.902 29.0762 56.1639C29.0762 52.4259 32.1065 49.3956 35.8446 49.3956C39.5826 49.3956 42.6129 52.4259 42.6129 56.1639ZM40.9208 56.1639C40.9208 58.9675 38.6481 61.2402 35.8446 61.2402C33.041 61.2402 30.7683 58.9675 30.7683 56.1639C30.7683 53.3604 33.041 51.0877 35.8446 51.0877C38.6481 51.0877 40.9208 53.3604 40.9208 56.1639Z" fill="#8BB453"/>
<path d="M23.8008 56.1645C23.8009 62.8165 29.1937 68.2094 35.8457 68.2094C42.4976 68.2093 47.8896 62.8164 47.8897 56.1645C47.8897 54.2207 47.4285 52.3843 46.6104 50.7582L51.0742 46.2944L54.3174 49.5375L54.458 49.6791L59.8174 44.3198L56.4326 40.935L58.6885 38.6801L62.9189 42.9106L68.2783 37.5512L64.0469 33.3207L67.0801 30.2895C68.5613 28.8082 68.5873 26.4206 67.1494 24.9194L67.1514 24.9184L67.0918 24.8588L67.0898 24.8598C65.5908 23.4248 63.2029 23.448 61.7207 24.9301L41.251 45.3989C39.6252 44.581 37.7891 44.1196 35.8457 44.1196C29.1937 44.1196 23.8008 49.5125 23.8008 56.1645ZM24.001 56.1645C24.001 49.6229 29.3041 44.3198 35.8457 44.3198C37.8089 44.3198 39.6608 44.7976 41.291 45.643L61.8623 25.0717C63.2769 23.6572 65.5601 23.6448 66.9785 25.0307C66.9689 25.0208 66.96 25.0102 66.9502 25.0004L67.0098 25.06C66.9997 25.05 66.9887 25.0406 66.9785 25.0307C68.3673 26.4512 68.3522 28.7341 66.9385 30.1479L63.7646 33.3217L67.9951 37.5512L62.9189 42.6274L58.6885 38.3979L56.1504 40.936L59.5342 44.3198L54.458 49.3959L51.0742 46.0122L46.3672 50.7192C47.2126 52.3494 47.6904 54.2013 47.6904 56.1645C47.6904 62.706 42.3872 68.0091 35.8457 68.0092C29.3042 68.0092 24.001 62.706 24.001 56.1645ZM25.6934 56.1645C25.6934 61.7715 30.2387 66.3168 35.8457 66.3168C41.4527 66.3168 45.998 61.7715 45.9981 56.1645C45.9981 54.0435 45.3476 52.0744 44.2354 50.4458L51.1387 43.5385L54.458 46.8579L56.9961 44.3198L53.6768 40.9995L58.751 35.9223L62.9189 40.0893L65.457 37.5512L61.2891 33.3832L65.7695 28.8998C66.5043 28.1647 66.4941 26.9965 65.7646 26.2719L65.7334 26.2407C65.0056 25.5179 63.8224 25.5181 63.0947 26.2446L41.5439 47.7612C39.9193 46.6573 37.9579 46.0122 35.8457 46.0122C30.2386 46.0122 25.6934 50.5574 25.6934 56.1645ZM25.8926 56.1645C25.8926 50.6679 30.3491 46.2124 35.8457 46.2124C37.9165 46.2124 39.8391 46.8442 41.4316 47.9262L41.5684 48.019L41.6856 47.9028L63.2354 26.3852C63.8848 25.7368 64.942 25.7373 65.5918 26.3823L65.623 26.4135L65.7383 26.5395C66.2738 27.1896 66.2429 28.143 65.6279 28.7582L61.0059 33.3832L65.1738 37.5512L62.918 39.8061L58.751 35.6391L53.3936 40.9995L56.7139 44.3198L54.458 46.5747L51.1387 43.2553L43.9766 50.4213L44.0703 50.5581C45.1607 52.1545 45.7979 54.0849 45.7979 56.1645C45.7978 61.661 41.3422 66.1166 35.8457 66.1167C30.3491 66.1167 25.8926 61.6611 25.8926 56.1645ZM28.877 56.1645C28.877 60.0129 31.9973 63.1323 35.8457 63.1323C39.6941 63.1322 42.8134 60.0129 42.8135 56.1645C42.8135 52.3161 39.6941 49.1958 35.8457 49.1958C31.9972 49.1958 28.877 52.316 28.877 56.1645ZM29.0772 56.1645C29.0772 52.4265 32.1077 49.3959 35.8457 49.3959C39.5837 49.396 42.6143 52.4265 42.6143 56.1645C42.6142 59.9024 39.5836 62.933 35.8457 62.9331C32.1077 62.9331 29.0772 59.9025 29.0772 56.1645ZM30.7695 56.1645C30.7696 58.968 33.0422 61.2407 35.8457 61.2407C38.6491 61.2406 40.9218 58.9679 40.9219 56.1645C40.9219 53.361 38.6492 51.0884 35.8457 51.0883C33.0422 51.0883 30.7695 53.361 30.7695 56.1645ZM30.9697 56.1645C30.9697 53.4714 33.1526 51.2885 35.8457 51.2885C38.5387 51.2886 40.7217 53.4715 40.7217 56.1645C40.7216 58.8575 38.5387 61.0404 35.8457 61.0405C33.1527 61.0405 30.9698 58.8575 30.9697 56.1645Z" fill="#8BB453"/>
</svg>
