<?xml version="1.0" encoding="UTF-8"?>
<svg id="Capa_2" data-name="Capa 2" xmlns="http://www.w3.org/2000/svg" viewBox="0 0 167.03 134.11">
  <defs>
    <style>
      .cls-1 {
        opacity: .2;
      }

      .cls-1, .cls-2 {
        fill: #fff;
      }

      .cls-2 {
        opacity: .4;
      }

      .cls-3 {
        fill: #2d3444;
        stroke: #3a4151;
        stroke-miterlimit: 10;
      }

      .cls-4 {
        fill: #3a4151;
      }
    </style>
  </defs>
  <g id="Capa_1-2" data-name="Capa 1">
    <g>
      <rect class="cls-3" x="33.04" y="13.67" width="103.78" height="88.49" rx="14.03" ry="14.03"/>
      <path class="cls-1" d="M12.64,119.71l.91,5.02,3.74,1.67c.31.14.31.57,0,.71l-3.74,1.67-.91,5.02c-.08.42-.69.42-.76,0l-.91-5.02-3.74-1.67c-.31-.14-.31-.57,0-.71l3.74-1.67.91-5.02c.08-.42.69-.42.76,0Z"/>
      <path class="cls-1" d="M4.82,96.03l.15.48c.41,1.32,1.47,2.34,2.81,2.69l.51.13c.51.13.51.85,0,.98l-.51.13c-1.34.35-2.4,1.37-2.81,2.69l-.15.48c-.15.48-.82.48-.97,0l-.15-.48c-.41-1.32-1.47-2.34-2.81-2.69l-.51-.13c-.51-.13-.51-.85,0-.98l.51-.13c1.34-.35,2.4-1.37,2.81-2.69l.15-.48c.15-.48.82-.48.97,0Z"/>
      <path class="cls-1" d="M163.18,42.09l.15.48c.41,1.32,1.47,2.34,2.81,2.69l.51.13c.51.13.51.85,0,.98l-.51.13c-1.34.35-2.4,1.37-2.81,2.69l-.15.48c-.15.48-.82.48-.97,0l-.15-.48c-.41-1.32-1.47-2.34-2.81-2.69l-.51-.13c-.51-.13-.51-.85,0-.98l.51-.13c1.34-.35,2.4-1.37,2.81-2.69l.15-.48c.15-.48.82-.48.97,0Z"/>
      <path class="cls-3" d="M135.75,125.36H32.95c-7.75,0-14.03-6.28-14.03-14.03v-51.99c0-7.75,6.28-14.03,14.03-14.03h47.24c9.56,0,12.81-23,21.69-23h33.87c7.75,0,14.03,6.28,14.03,14.03v74.99c0,7.75-6.28,14.03-14.03,14.03Z"/>
      <path class="cls-4" d="M118.68,107.62l-8.61-8.61c3.59-4.82,5.71-10.78,5.71-17.25,0-15.96-12.94-28.9-28.9-28.9s-28.9,12.94-28.9,28.9,12.94,28.9,28.9,28.9c7.42,0,14.18-2.8,19.29-7.39l8.42,8.42c1.13,1.13,2.95,1.13,4.08,0s1.13-2.95,0-4.08Z"/>
      <rect class="cls-2" x="73.16" y="70.26" width="30.77" height="3.18" rx="1.59" ry="1.59"/>
      <rect class="cls-2" x="73.16" y="80.58" width="26.59" height="3.18" rx="1.59" ry="1.59"/>
      <rect class="cls-2" x="73.16" y="91.65" width="22.64" height="3.18" rx="1.59" ry="1.59"/>
      <path class="cls-1" d="M28.72,63.86h0c.21.67.74,1.18,1.41,1.36h0c.25.07.25.43,0,.49h0c-.67.18-1.2.69-1.41,1.35h0c-.07.25-.41.25-.49,0h0c-.21-.67-.74-1.18-1.41-1.36h0c-.25-.07-.25-.43,0-.49h0c.67-.18,1.2-.69,1.41-1.35h0c.07-.25.41-.25.49,0Z"/>
      <path class="cls-1" d="M122.06,26.95h0c.21.67.74,1.18,1.41,1.36h0c.25.07.25.43,0,.49h0c-.67.18-1.2.69-1.41,1.35h0c-.07.25-.41.25-.49,0h0c-.21-.67-.74-1.18-1.41-1.36h0c-.25-.07-.25-.43,0-.49h0c.67-.18,1.2-.69,1.41-1.35h0c.07-.25.41-.25.49,0Z"/>
      <path class="cls-1" d="M155.85,126.05l.15.48c.41,1.32,1.47,2.34,2.81,2.69l.51.13c.51.13.51.85,0,.98l-.51.13c-1.34.35-2.4,1.37-2.81,2.69l-.15.48c-.15.48-.82.48-.97,0l-.15-.48c-.41-1.32-1.47-2.34-2.81-2.69l-.51-.13c-.51-.13-.51-.85,0-.98l.51-.13c1.34-.35,2.4-1.37,2.81-2.69l.15-.48c.15-.48.82-.48.97,0Z"/>
      <path class="cls-1" d="M34.57.32l.91,5.02,3.74,1.67c.31.14.31.57,0,.71l-3.74,1.67-.91,5.02c-.08.42-.69.42-.76,0l-.91-5.02-3.74-1.67c-.31-.14-.31-.57,0-.71l3.74-1.67.91-5.02c.08-.42.69-.42.76,0Z"/>
    </g>
  </g>
</svg>