<svg width="14" height="15" viewBox="0 0 14 15" fill="none" xmlns="http://www.w3.org/2000/svg">
<path d="M7.79638 12.584H5.47202C5.00715 12.584 4.60869 13.1153 4.87433 13.5801C5.27279 14.1778 5.93689 14.5763 6.66741 14.5763C7.39792 14.5763 8.06202 14.1778 8.39407 13.5801C8.65971 13.1153 8.32766 12.584 7.79638 12.584Z" fill="#8BB453"/>
<path d="M13.1753 10.3933L12.9096 10.0613C11.8471 8.66668 11.3158 7.00643 11.3158 5.27976V4.81489C11.3158 2.42413 9.58912 0.299 7.19835 0.0333588C4.40913 -0.298692 2.01836 1.89284 2.01836 4.61566V5.27976C2.01836 7.00643 1.48708 8.66668 0.424514 10.0613L0.158873 10.3933C0.0260531 10.5262 -0.0403572 10.7918 0.026053 10.9246C0.225284 11.5223 0.756565 11.9208 1.35426 11.9208H11.9799C12.5776 11.9208 13.1089 11.5223 13.2417 10.9246C13.3081 10.7254 13.2417 10.5262 13.1753 10.3933Z" fill="#8BB453"/>
</svg>
