<svg width="24" height="24" viewBox="0 0 24 24" fill="none" xmlns="http://www.w3.org/2000/svg">
<path d="M19.9338 11.6453C19.8448 11.5564 19.8448 11.4675 19.7558 11.3786L17.0854 8.71198C16.7294 8.35642 16.1953 8.35642 15.8393 8.71198C15.4832 9.06753 15.4832 9.60087 15.8393 9.95642L16.9964 11.112H12.9018C12.3678 11.112 12.0117 11.4675 12.0117 12.0009C12.0117 12.5342 12.3678 12.8898 12.9018 12.8898H16.9964L15.8393 14.0453C15.4832 14.4009 15.4832 14.9342 15.8393 15.2898C16.0173 15.4675 16.2843 15.5564 16.4623 15.5564C16.6404 15.5564 16.9074 15.4675 17.0854 15.2898L19.7558 12.6231C19.8448 12.5342 19.9338 12.4453 19.9338 12.3564C20.0228 12.0898 20.0228 11.912 19.9338 11.6453Z" fill="white"/>
<path d="M15.1266 17.4222C14.1474 17.9556 13.0793 18.2222 12.0111 18.2222C8.53964 18.2222 5.78025 15.4667 5.78025 12C5.78025 8.53333 8.53964 5.77778 12.0111 5.77778C13.0793 5.77778 14.1474 6.04444 15.1266 6.57778C15.5716 6.84444 16.1057 6.66667 16.3727 6.22222C16.6398 5.77778 16.4618 5.24444 16.0167 4.97778C14.7705 4.35556 13.4353 4 12.0111 4C7.5605 4 4 7.55556 4 12C4 16.4444 7.5605 20 12.0111 20C13.4353 20 14.7705 19.6444 16.0167 18.9333C16.4618 18.6667 16.5508 18.1333 16.3727 17.6889C16.1057 17.3333 15.5716 17.1556 15.1266 17.4222Z" fill="white"/>
</svg>
