<svg width="65" height="65" viewBox="0 0 65 65" fill="none" xmlns="http://www.w3.org/2000/svg">
<path d="M56.9853 24.0225C56.3409 24.6666 55.2962 24.6661 54.652 24.0218L44.604 13.9738C43.96 13.3295 43.96 12.2855 44.604 11.6412C45.2483 10.9969 46.2929 10.9964 46.9373 11.6405L56.9853 21.6885C57.6296 22.3328 57.6296 23.3781 56.9853 24.0225Z" stroke="#53C990"/>
<path d="M55.8164 24.5039C55.4337 24.5039 55.064 24.3712 54.7705 24.1309L54.6494 24.0205L44.6025 13.9736C44.4864 13.859 44.388 13.7279 44.3105 13.585L44.2402 13.4385C44.1771 13.2881 44.1367 13.1294 44.1201 12.9678L44.1113 12.8047C44.1108 12.6416 44.1348 12.4798 44.1816 12.3242L44.2363 12.1709C44.3031 12.009 44.3962 11.8601 44.5098 11.7275C44.5208 11.8362 44.537 11.9446 44.5615 12.0518C44.6567 12.4669 44.8511 12.8519 45.126 13.1748L45.248 13.3086L45.252 13.3135L55.3027 23.3633L55.3066 23.3672L55.4414 23.4893C55.7181 23.7247 56.04 23.9014 56.3877 24.0068L56.5635 24.0537C56.6709 24.0783 56.7798 24.0954 56.8887 24.1064C56.5909 24.3615 56.2112 24.5038 55.8164 24.5039Z" fill="#363354" stroke="#53C990"/>
<path d="M54.2985 24.3757C55.1382 25.2154 56.4995 25.2154 57.3391 24.3757C58.1787 23.5361 58.1787 22.1748 57.3391 21.3352L47.2911 11.2872C46.4515 10.4476 45.0902 10.4476 44.2506 11.2872C43.4109 12.1268 43.4109 13.4881 44.2505 14.3278L54.2985 24.3757Z" stroke="#53C990" stroke-linecap="round" stroke-linejoin="round"/>
<path d="M44.7119 26.247L42.3786 23.9137L47.7565 18.5358L50.0898 20.8691L44.7119 26.247Z" fill="#EAEAEA" stroke="#53C990"/>
<path d="M44.7122 26.9538L50.7969 20.8691L47.7563 17.8286L41.6717 23.9132L44.7122 26.9538Z" stroke="#53C990" stroke-linecap="round" stroke-linejoin="round"/>
<path d="M26.6777 48.7969C26.2406 48.7969 25.8071 48.7213 25.3965 48.5742L25.2227 48.5068C24.819 48.3395 24.447 48.1045 24.124 47.8115L23.9893 47.6826L23.9883 47.6816L20.9434 44.6465C20.6341 44.3376 20.381 43.9781 20.1943 43.584L20.1182 43.4131C19.927 42.9518 19.8281 42.4573 19.8281 41.958C19.8281 41.5209 19.9037 41.0874 20.0508 40.6768L20.1182 40.5029C20.2856 40.0991 20.5213 39.7273 20.8145 39.4043L20.9434 39.2695L20.9434 39.2686L38.625 21.583L47.0439 30.002L29.3662 47.6816L29.3662 47.6826C29.0574 47.9918 28.6978 48.245 28.3037 48.4316L28.1328 48.5068C27.6715 48.6981 27.1771 48.7968 26.6777 48.7969Z" fill="#EAEAEA" stroke="#53C990"/>
<path d="M29.8477 30.3594L38.6406 21.5664L41.4102 24.3359C40.9936 24.2481 40.5684 24.2021 40.1406 24.2021C39.433 24.2021 38.7313 24.3236 38.0664 24.5615L37.7842 24.6709C37.1305 24.9418 36.5289 25.3226 36.0059 25.7969L35.7871 26.0059L30.6406 31.1523L29.8477 30.3594Z" fill="#C2D2D3" stroke="#53C990"/>
<path d="M38.625 20.8755L47.75 30.0005L29.72 48.0355C29.3206 48.4354 28.8464 48.7526 28.3243 48.969C27.8022 49.1855 27.2426 49.2969 26.6775 49.2969C26.1124 49.2969 25.5527 49.1855 25.0307 48.969C24.5086 48.7526 24.0344 48.4354 23.635 48.0355L20.59 45.0005C20.1901 44.6011 19.8729 44.1269 19.6565 43.6048C19.44 43.0827 19.3286 42.5231 19.3286 41.958C19.3286 41.3928 19.44 40.8332 19.6565 40.3112C19.8729 39.7891 20.1901 39.3149 20.59 38.9155L38.625 20.8755Z" stroke="#53C990" stroke-linecap="round" stroke-linejoin="round"/>
<path d="M26.6777 48.7969C26.2409 48.7968 25.8079 48.7211 25.3975 48.5742L25.2227 48.5068C24.8192 48.3395 24.4478 48.1044 24.125 47.8115L23.9893 47.6826L23.9883 47.6816L20.9443 44.6475L20.9443 44.6465C20.6351 44.3377 20.3819 43.9781 20.1953 43.584L20.1191 43.4131C19.9279 42.9518 19.8291 42.4574 19.8291 41.958C19.8291 41.4586 19.9279 40.9642 20.1191 40.5029C20.2865 40.0992 20.5214 39.7273 20.8145 39.4043L20.9443 39.2695L20.9443 39.2686L29.1406 31.0684L37.5596 39.5L29.3672 47.6816L29.3672 47.6826C29.0584 47.9918 28.6988 48.245 28.3047 48.4316L28.1338 48.5068C27.6724 48.6981 27.1772 48.7969 26.6777 48.7969Z" fill="#AAE1E9" stroke="#53C990"/>
<path d="M12.0003 56.625L19.0703 49.555" stroke="#53C990" stroke-linecap="round" stroke-linejoin="round"/>
<path d="M20.6094 49.6699C20.2267 49.6699 19.857 49.5372 19.5635 49.2969L19.4424 49.1865C19.1333 48.8771 18.959 48.4579 18.959 48.0205C18.959 47.6376 19.0924 47.2682 19.333 46.9746L19.4424 46.8545L20.5898 45.708L22.9219 48.041L21.7754 49.1865C21.5045 49.4573 21.1493 49.6247 20.7715 49.6621L20.6094 49.6699Z" fill="#EAEAEA" stroke="#53C990"/>
<path d="M20.5889 45.0005L23.6289 48.0405L22.1289 49.5405C21.7257 49.9435 21.179 50.1699 20.6089 50.1699C20.0388 50.1699 19.4921 49.9435 19.0889 49.5405C18.6859 49.1373 18.4595 48.5906 18.4595 48.0205C18.4595 47.4504 18.6859 46.9037 19.0889 46.5005L20.5889 45.0005Z" stroke="#53C990" stroke-linecap="round" stroke-linejoin="round"/>
<path d="M32.8359 44.9199L30.8009 42.8849" stroke="#53C990" stroke-linecap="round" stroke-linejoin="round"/>
<path d="M35.5469 42.2051L32.1569 38.8201" stroke="#53C990" stroke-linecap="round" stroke-linejoin="round"/>
<path d="M38.2539 39.4961L36.2189 37.4661" stroke="#53C990" stroke-linecap="round" stroke-linejoin="round"/>
<path d="M40.9648 36.7852L37.5748 33.4002" stroke="#53C990" stroke-linecap="round" stroke-linejoin="round"/>
<path d="M43.6758 34.0742L41.6458 32.0442" stroke="#53C990" stroke-linecap="round" stroke-linejoin="round"/>
<path d="M26.6836 48.7891C25.7383 48.789 24.8296 48.4368 24.1318 47.8057L23.9951 47.6758L23.9941 47.6748L20.9443 44.6465L20.9443 44.6455C20.5902 44.2921 20.3089 43.8722 20.1172 43.4102C19.9255 42.948 19.8271 42.4524 19.8271 41.9521C19.8272 41.5143 19.9025 41.0802 20.0498 40.6689L20.1172 40.4941C20.285 40.0897 20.5217 39.718 20.8154 39.3945L20.9443 39.2588L20.9453 39.2588L29.2363 30.9717L30.1143 31.8496L25.5879 36.376C24.6879 37.2769 24.1816 38.499 24.1816 39.7725C24.1817 40.9663 24.6268 42.114 25.4238 42.9951L25.5879 43.168L26.0879 43.668C26.5881 44.1685 27.1703 44.5788 27.8086 44.8809L28.085 45.0039C28.832 45.3135 29.6328 45.4727 30.4414 45.4727C30.8687 45.4727 31.2938 45.4275 31.71 45.3398L29.373 47.6758C28.7041 48.344 27.812 48.7377 26.8721 48.7842L26.6836 48.7891Z" fill="#75C9C9" stroke="#53C990"/>
<path d="M20.5906 38.9054L29.0006 30.5004L29.1506 30.3504L38.2656 39.5004L34.4356 43.3304L29.7206 48.0454C28.9134 48.8517 27.8191 49.3047 26.6781 49.3047C25.5372 49.3047 24.4428 48.8517 23.6356 48.0454L20.5906 45.0004C20.1898 44.6005 19.8719 44.1255 19.6549 43.6026C19.438 43.0796 19.3263 42.519 19.3263 41.9529C19.3263 41.3867 19.438 40.8261 19.6549 40.3032C19.8719 39.7803 20.1898 39.3053 20.5906 38.9054Z" stroke="#53C990" stroke-linecap="round" stroke-linejoin="round"/>
<path d="M30.125 47.6289L26.735 44.2389" stroke="#53C990" stroke-linecap="round" stroke-linejoin="round"/>
<path d="M50.7969 33.0391L35.5869 17.8291" stroke="#53C990" stroke-linecap="round" stroke-linejoin="round"/>
</svg>
