<svg width="18" height="20" viewBox="0 0 18 20" fill="none" xmlns="http://www.w3.org/2000/svg">
<path d="M10.5795 17.2656H7.42645C6.79584 17.2656 6.25532 17.9946 6.61567 18.6325C7.15619 19.4526 8.05706 19.9993 9.04802 19.9993C10.039 19.9993 10.9399 19.4526 11.3903 18.6325C11.7506 17.9946 11.3002 17.2656 10.5795 17.2656Z" fill="white"/>
<path d="M17.8726 14.2609L17.5122 13.8053C16.0709 11.8917 15.3502 9.61365 15.3502 7.24446V6.6066C15.3502 3.32619 13.0079 0.410263 9.76475 0.0457722C5.98109 -0.409841 2.73796 2.59721 2.73796 6.33323V7.24446C2.73796 9.61365 2.01726 11.8917 0.575864 13.8053L0.215516 14.2609C0.0353417 14.4431 -0.0547455 14.8076 0.0353416 14.9899C0.305603 15.81 1.0263 16.3567 1.83708 16.3567H16.251C17.0618 16.3567 17.7825 15.81 17.9627 14.9899C18.0528 14.7165 17.9627 14.4431 17.8726 14.2609Z" fill="white"/>
</svg>
