<svg width="24" height="24" viewBox="0 0 24 24" fill="none" xmlns="http://www.w3.org/2000/svg">
<path d="M12.8008 5.2262V5.24251C12.8008 5.78869 13.1608 6.2452 13.6647 6.40824C15.9445 7.13376 17.6003 9.29403 17.6003 11.8537C17.6003 12.2776 17.5523 12.6771 17.4643 13.0684C17.3523 13.5901 17.5603 14.1281 18.0162 14.4053L18.0242 14.4135C18.7122 14.8211 19.608 14.4542 19.792 13.6716C19.928 13.0847 20 12.4733 20 11.8537C20 8.18536 17.6163 5.07131 14.3367 4.05232C13.5768 3.81591 12.8008 4.41101 12.8008 5.2262ZM11.153 17.4949C8.76132 17.1444 6.81755 15.1634 6.46559 12.7342C6.03364 9.79945 7.79344 7.21528 10.3291 6.40824C10.8411 6.25335 11.201 5.78869 11.201 5.24251V5.2262C11.201 4.41101 10.4251 3.81591 9.65722 4.05232C6.04964 5.17729 3.52994 8.82937 4.07388 12.9869C4.54582 16.5574 7.37749 19.4432 10.8811 19.9242C13.3928 20.2666 15.7125 19.4269 17.3843 17.8617C17.9762 17.3074 17.8722 16.321 17.1763 15.9134C16.7124 15.6362 16.1365 15.7259 15.7365 16.0928C14.5606 17.1851 12.9288 17.7639 11.153 17.4949Z" fill="white"/>
</svg>
