<svg width="65" height="65" viewBox="0 0 65 65" fill="none" xmlns="http://www.w3.org/2000/svg">
<path d="M21.4556 51.2746C26.6779 51.2746 30.9113 47.0411 30.9113 41.8189C30.9113 36.5967 26.6779 32.3633 21.4556 32.3633C16.2334 32.3633 12 36.5967 12 41.8189C12 47.0411 16.2334 51.2746 21.4556 51.2746Z" fill="#FCC9E7"/>
<path d="M21.4555 32.3633C20.8344 32.3629 20.2147 32.4235 19.6055 32.5442C21.7497 32.9722 23.6793 34.1301 25.0658 35.8208C26.4523 37.5114 27.2101 39.6304 27.2101 41.8169C27.2101 44.0034 26.4523 46.1223 25.0658 47.813C23.6793 49.5037 21.7497 50.6616 19.6055 51.0896C20.9007 51.3496 22.236 51.3354 23.5254 51.0477C24.8148 50.7601 26.0296 50.2055 27.0915 49.4196C28.1535 48.6338 29.0389 47.6341 29.6908 46.4851C30.3428 45.3361 30.7467 44.0632 30.8766 42.7486C31.0064 41.4339 30.8594 40.1066 30.4449 38.8522C30.0304 37.5978 29.3577 36.4442 28.4701 35.4658C27.5825 34.4873 26.4997 33.7057 25.2915 33.1714C24.0833 32.637 22.7766 32.3617 21.4555 32.3633Z" fill="#FF9AD6"/>
<path d="M49.0013 21.6745V32.7746H33.3789V21.6745C33.3789 19.6028 34.2019 17.616 35.6668 16.1511C37.1316 14.6862 39.1184 13.8633 41.1901 13.8633C43.2617 13.8633 45.2486 14.6862 46.7134 16.1511C48.1783 17.616 49.0013 19.6028 49.0013 21.6745Z" fill="#FCC9E7"/>
<path d="M41.1874 13.8633C40.6346 13.8638 40.0833 13.9231 39.543 14.0401C41.2887 14.416 42.8529 15.3787 43.975 16.7679C45.0971 18.157 45.7093 19.8887 45.7097 21.6745V32.7746H48.9986V21.6745C48.9986 19.6028 48.1757 17.616 46.7108 16.1511C45.2459 14.6862 43.2591 13.8633 41.1874 13.8633Z" fill="#FF9AD6"/>
<path d="M49.0013 32.7734V43.8735C49.0013 45.9452 48.1783 47.932 46.7134 49.3969C45.2486 50.8618 43.2617 51.6847 41.1901 51.6847C39.1184 51.6847 37.1316 50.8618 35.6668 49.3969C34.2019 47.932 33.3789 45.9452 33.3789 43.8735V32.7734H49.0013Z" fill="#EAEAEA"/>
<path d="M45.7097 32.7734V43.8735C45.7093 45.6593 45.0971 47.391 43.975 48.7801C42.8529 50.1693 41.2887 51.132 39.543 51.508C40.6821 51.7533 41.8617 51.7406 42.9953 51.4709C44.1289 51.2012 45.1878 50.6814 46.0944 49.9494C47.001 49.2174 47.7324 48.2918 48.2349 47.2405C48.7374 46.1892 48.9984 45.0388 48.9986 43.8735V32.7734H45.7097Z" fill="#BACECE"/>
</svg>
