<svg width="17" height="16" viewBox="0 0 17 16" fill="none" xmlns="http://www.w3.org/2000/svg">
<path d="M15.9728 13.7241L12.5881 10.3394C13.2874 9.28543 13.6968 8.02342 13.6968 6.66674C13.6968 2.9907 10.7061 0 7.03002 0C3.35398 0 0.363281 2.9907 0.363281 6.66674C0.363281 10.3428 3.35398 13.3335 7.03002 13.3335C8.3867 13.3335 9.64871 12.9241 10.7027 12.2248L14.0874 15.6095C14.6074 16.1302 15.4528 16.1302 15.9728 15.6095C16.4935 15.0888 16.4935 14.2448 15.9728 13.7241ZM2.3633 6.66674C2.3633 4.09338 4.45666 2.00002 7.03002 2.00002C9.60338 2.00002 11.6967 4.09338 11.6967 6.66674C11.6967 9.2401 9.60338 11.3335 7.03002 11.3335C4.45666 11.3335 2.3633 9.2401 2.3633 6.66674Z" fill="white"/>
</svg>
