<svg width="24" height="24" viewBox="0 0 24 24" fill="none" xmlns="http://www.w3.org/2000/svg">
<path d="M4.88889 4H10.2222C10.7111 4 11.1111 4.4 11.1111 4.88889V10.2222C11.1111 10.7111 10.7111 11.1111 10.2222 11.1111H4.88889C4.4 11.1111 4 10.7111 4 10.2222V4.88889C4 4.4 4.4 4 4.88889 4ZM13.7778 4H19.1111C19.6 4 20 4.4 20 4.88889V10.2222C20 10.7111 19.6 11.1111 19.1111 11.1111H13.7778C13.2889 11.1111 12.8889 10.7111 12.8889 10.2222V4.88889C12.8889 4.4 13.2889 4 13.7778 4ZM4.88889 12.8889H10.2222C10.7111 12.8889 11.1111 13.2889 11.1111 13.7778V19.1111C11.1111 19.6 10.7111 20 10.2222 20H4.88889C4.4 20 4 19.6 4 19.1111V13.7778C4 13.2889 4.4 12.8889 4.88889 12.8889ZM16.4444 12.8889C15.9556 12.8889 15.5556 13.2889 15.5556 13.7778V15.5556H13.7778C13.2889 15.5556 12.8889 15.9556 12.8889 16.4444C12.8889 16.9333 13.2889 17.3333 13.7778 17.3333H15.5556V19.1111C15.5556 19.6 15.9556 20 16.4444 20C16.9333 20 17.3333 19.6 17.3333 19.1111V17.3333H19.1111C19.6 17.3333 20 16.9333 20 16.4444C20 15.9556 19.6 15.5556 19.1111 15.5556H17.3333V13.7778C17.3333 13.2889 16.9333 12.8889 16.4444 12.8889Z" fill="white"/>
</svg>
