<svg width="16" height="16" viewBox="0 0 16 16" fill="none" xmlns="http://www.w3.org/2000/svg">
<path d="M1.88812 7.33333C1.51993 7.33334 1.22146 7.63181 1.22145 8C1.22146 8.36819 1.51993 8.66666 1.88812 8.66667L7.33257 8.66666L7.33259 14.1111C7.33258 14.4793 7.63107 14.7777 7.99925 14.7777C8.36743 14.7777 8.66591 14.4793 8.66592 14.1111L8.66589 8.66666L14.1103 8.66666C14.4785 8.66666 14.777 8.36817 14.777 8C14.777 7.63183 14.4785 7.33334 14.1103 7.33334L8.66589 7.33334L8.66594 1.88885C8.66592 1.52067 8.36745 1.2222 7.99927 1.22218C7.63109 1.22217 7.3326 1.52067 7.33261 1.88884L7.33257 7.33334L1.88812 7.33333Z" fill="white"/>
</svg>
