<svg width="66" height="66" viewBox="0 0 66 66" fill="none" xmlns="http://www.w3.org/2000/svg">
<path d="M43.5566 20.1387V31.327C43.5566 35.218 42.0109 38.9496 39.2596 41.7009C36.5083 44.4522 32.7767 45.9979 28.8857 45.9979C24.9948 45.9979 21.2632 44.4522 18.5118 41.7009C15.7605 38.9496 14.2148 35.218 14.2148 31.327V20.1387H43.5566Z" fill="#AAE1E9"/>
<path d="M39.7078 20.1387V31.327C39.7197 34.8998 38.4338 38.3553 36.0892 41.0512C33.7446 43.747 30.5008 45.4998 26.9609 45.9835C29.0421 46.2629 31.159 46.0915 33.1681 45.481C35.1773 44.8705 37.0316 43.8351 38.6055 42.4451C40.1794 41.055 41.436 39.3428 42.2901 37.4246C43.1443 35.5063 43.5759 33.4268 43.5559 31.327V20.1387H39.7078Z" fill="#75C9C9"/>
<path d="M14.2148 20.1392V17.5706C14.2148 12.6595 15.8647 11 17.885 11H39.8913C40.8652 11.0051 41.7974 11.3955 42.4842 12.086C43.1711 12.7764 43.5566 13.7107 43.5566 14.6846V20.1392H14.2148Z" fill="#EAEAEA"/>
<path d="M39.8902 11H32.4922C34.4058 11 36.241 11.7602 37.5941 13.1133C38.9472 14.4664 39.7074 16.3016 39.7074 18.2152V20.1392H43.5555V14.6846C43.5555 13.7107 43.1699 12.7764 42.4831 12.086C41.7963 11.3955 40.864 11.0051 39.8902 11Z" fill="#BACECE"/>
<path d="M43.5566 14.6942V31.3276C43.5566 35.2186 42.0109 38.9502 39.2596 41.7015C36.5083 44.4528 32.7767 45.9985 28.8857 45.9985C24.9948 45.9985 21.2632 44.4528 18.5118 41.7015C15.7605 38.9502 14.2148 35.2186 14.2148 31.3276V14.6942C14.2148 13.7186 14.6007 12.7826 15.2883 12.0905C15.9759 11.3984 16.9094 11.0064 17.885 11H39.8913C40.866 11.0076 41.7983 11.4002 42.4848 12.0922C43.1714 12.7841 43.5566 13.7194 43.5566 14.6942Z" stroke="#69A8ED" stroke-linecap="round" stroke-linejoin="round"/>
<path d="M29.125 46.1144C29.125 51.1602 34.0794 55.2537 40.1883 55.2537C46.2972 55.2537 51.2516 51.1602 51.2516 46.1144V27.8359" stroke="#69A8ED" stroke-linecap="round" stroke-linejoin="round"/>
<path d="M52.2131 35.5319H51.2511H50.2891V32.6458L51.2511 29.7598L52.2131 32.6458V35.5319Z" stroke="#69A8ED" stroke-linecap="round" stroke-linejoin="round"/>
<path d="M14.2148 20.1387H22.8731" stroke="#69A8ED" stroke-linecap="round" stroke-linejoin="round"/>
<path d="M14.2148 23.9883H18.0629" stroke="#69A8ED" stroke-linecap="round" stroke-linejoin="round"/>
<path d="M14.2148 27.8359H22.8731" stroke="#69A8ED" stroke-linecap="round" stroke-linejoin="round"/>
<path d="M14.2148 31.6836H18.0629" stroke="#69A8ED" stroke-linecap="round" stroke-linejoin="round"/>
</svg>
