<svg width="66" height="66" viewBox="0 0 66 66" fill="none" xmlns="http://www.w3.org/2000/svg">
<path d="M52.2652 26.7606L26.0946 52.9312C25.5155 53.5104 24.7967 53.9304 24.0077 54.1505C23.2187 54.3706 22.3863 54.3834 21.591 54.1877C21.4469 54.1517 21.3028 54.1066 21.1406 54.0616L20.9109 53.976C20.7728 53.916 20.6377 53.8529 20.5056 53.7869C20.3083 53.6786 20.1187 53.5567 19.9382 53.4221C19.8121 53.3275 19.686 53.2284 19.5644 53.1203L19.3887 52.9717L13.6151 47.1801C12.7235 46.2875 12.2227 45.0775 12.2227 43.8159C12.2227 42.5543 12.7235 41.3442 13.6151 40.4517L36.5836 17.4832L39.7856 14.2811C40.6782 13.3895 41.8882 12.8887 43.1498 12.8887C44.4115 12.8887 45.6215 13.3895 46.5141 14.2811L52.2652 20.0322C53.1568 20.9248 53.6576 22.1348 53.6576 23.3964C53.6576 24.658 53.1568 25.868 52.2652 26.7606Z" fill="#FFEFE9"/>
<path d="M52.2581 40.442L45.4215 33.6055L32.9375 46.085L39.774 52.9215C40.2159 53.3681 40.7419 53.7227 41.3217 53.9647C41.9015 54.2067 42.5235 54.3313 43.1517 54.3313C43.78 54.3313 44.402 54.2067 44.9818 53.9647C45.5616 53.7227 46.0876 53.3681 46.5294 52.9215L52.2581 47.1749C52.7013 46.7334 53.053 46.2088 53.293 45.6311C53.5329 45.0534 53.6565 44.434 53.6565 43.8084C53.6565 43.1829 53.5329 42.5635 53.293 41.9858C53.053 41.408 52.7013 40.8834 52.2581 40.442Z" fill="#FCCFBE"/>
<path d="M28.7046 16.1052C28.3688 15.7768 27.9179 15.5926 27.4481 15.5918H18.7066C18.2324 15.5926 17.7777 15.7803 17.4411 16.1142L13.6715 19.8747C13.2101 20.3309 12.8437 20.8741 12.5936 21.4728C12.3436 22.0715 12.2148 22.7139 12.2148 23.3628C12.2148 24.0117 12.3436 24.6541 12.5936 25.2528C12.8437 25.8515 13.2101 26.3947 13.6715 26.8509L20.454 33.6063L33.3884 20.6989L28.7046 16.1052Z" fill="#FCCFBE"/>
<path d="M28.7046 16.1052C28.3688 15.7768 27.9179 15.5926 27.4481 15.5918H18.7066C18.2324 15.5926 17.7777 15.7803 17.4411 16.1142L13.6715 19.8747C13.2101 20.3309 12.8437 20.8741 12.5936 21.4728C12.3436 22.0715 12.2148 22.7139 12.2148 23.3628C12.2148 24.0117 12.3436 24.6541 12.5936 25.2528C12.8437 25.8515 13.2101 26.3947 13.6715 26.8509L20.454 33.6063L33.3884 20.6989L28.7046 16.1052Z" stroke="#FC865B" stroke-linecap="round" stroke-linejoin="round"/>
<path d="M16.6406 16.906L21.6802 21.9365C22.0173 22.2693 22.472 22.4559 22.9457 22.4559C23.4194 22.4559 23.8741 22.2693 24.2112 21.9365L29.3904 16.7754" stroke="#FC865B" stroke-linecap="round" stroke-linejoin="round"/>
<path d="M30.1154 41.0922L25.4541 36.431C25.0038 35.9806 25.1074 35.0799 25.7108 34.4989L33.8174 26.3924C34.4209 25.7889 35.2856 25.6718 35.7494 26.1357L40.4242 30.7834C40.8745 31.2338 40.771 32.1345 40.1675 32.7155L32.061 40.822C31.444 41.439 30.5793 41.5561 30.1154 41.0922Z" fill="#FFD7C8"/>
<path d="M30.1154 41.0922L25.4541 36.431C25.0038 35.9806 25.1074 35.0799 25.7108 34.4989L33.8174 26.3924C34.4209 25.7889 35.2856 25.6718 35.7494 26.1357L40.4242 30.7834C40.8746 31.2338 40.771 32.1345 40.1675 32.7155L32.061 40.822C31.444 41.439 30.5793 41.5561 30.1154 41.0922Z" stroke="#FC865B" stroke-linecap="round" stroke-linejoin="round"/>
<path d="M52.2627 26.7606L26.0922 52.9312C25.513 53.5104 24.7942 53.9304 24.0052 54.1505C23.2163 54.3706 22.3839 54.3834 21.5885 54.1877C21.4444 54.1517 21.3003 54.1066 21.1382 54.0616L20.9085 53.976C20.7704 53.916 20.6353 53.8529 20.5032 53.7869C20.3058 53.6786 20.1162 53.5567 19.9357 53.4221C19.8096 53.3275 19.6835 53.2284 19.5619 53.1203L19.3863 52.9717L16.1797 49.7651C17.4463 51.0302 19.1633 51.7408 20.9535 51.7408C22.7437 51.7408 24.4607 51.0302 25.7274 49.7651L47.2502 28.1658C48.5153 26.8991 49.2258 25.1821 49.2258 23.3919C49.2258 21.6017 48.5153 19.8847 47.2502 18.6181L46.1153 17.4877C45.4905 16.8602 44.748 16.3623 43.9303 16.0226C43.1126 15.6828 42.2359 15.5079 41.3504 15.5079C40.465 15.5079 39.5883 15.6828 38.7706 16.0226C37.9529 16.3623 37.2104 16.8602 36.5856 17.4877L39.7832 14.2811C40.6758 13.3895 41.8858 12.8887 43.1474 12.8887C44.409 12.8887 45.619 13.3895 46.5116 14.2811L52.2627 20.0322C53.1543 20.9248 53.6551 22.1348 53.6551 23.3964C53.6551 24.658 53.1543 25.868 52.2627 26.7606Z" fill="#FC865B"/>
<path d="M52.2652 26.7614L26.0946 52.932C25.203 53.8167 23.9978 54.3132 22.7417 54.3132C21.4856 54.3132 20.2804 53.8167 19.3887 52.932L13.6151 47.1809C12.7235 46.2883 12.2227 45.0783 12.2227 43.8166C12.2227 42.555 12.7235 41.345 13.6151 40.4524L36.5836 17.4839L39.7856 14.2819C39.926 14.1391 40.0765 14.0066 40.236 13.8855C40.5733 13.6201 40.9463 13.4033 41.3439 13.2415C41.5744 13.1469 41.8125 13.0716 42.0555 13.0163C42.1771 12.9893 42.2987 12.9623 42.4203 12.9443C43.1601 12.8322 43.9159 12.8962 44.6264 13.1309C45.3369 13.3657 45.9821 13.7646 46.5095 14.2954L52.2652 20.033C53.1568 20.9256 53.6576 22.1356 53.6576 23.3972C53.6576 24.6588 53.1568 25.8688 52.2652 26.7614Z" stroke="#FC865B" stroke-linecap="round" stroke-linejoin="round"/>
<path d="M52.2593 47.1749L46.5082 52.9215C46.0664 53.3681 45.5403 53.7227 44.9605 53.9647C44.3808 54.2067 43.7587 54.3313 43.1305 54.3313C42.5022 54.3313 41.8802 54.2067 41.3004 53.9647C40.7207 53.7227 40.1946 53.3681 39.7528 52.9215L36.8164 49.9852C38.1038 51.1331 39.7816 51.745 41.5057 51.6956C43.2299 51.6462 44.8698 50.9392 46.0894 49.7194L48.6339 47.1749C49.0795 46.7324 49.4331 46.2062 49.6744 45.6265C49.9157 45.0468 50.0399 44.4251 50.0399 43.7972C50.0399 43.1693 49.9157 42.5475 49.6744 41.9678C49.4331 41.3881 49.0795 40.8619 48.6339 40.4195L43.6214 35.4069L45.4228 33.6055L52.2593 40.442C52.7015 40.884 53.0522 41.4088 53.2915 41.9865C53.5308 42.5641 53.654 43.1832 53.654 43.8084C53.654 44.4337 53.5308 45.0528 53.2915 45.6304C53.0522 46.208 52.7015 46.7328 52.2593 47.1749Z" fill="#FFD7C8"/>
<path d="M52.2581 47.1749L46.5069 52.9215C46.0651 53.3681 45.539 53.7227 44.9593 53.9647C44.3795 54.2067 43.7575 54.3313 43.1292 54.3313C42.5009 54.3313 41.8789 54.2067 41.2992 53.9647C40.7194 53.7227 40.1933 53.3681 39.7515 52.9215L36.8151 49.9852L36.7836 49.9581L32.9375 46.085L43.6201 35.4069L45.4215 33.6055L52.2581 40.442C52.7002 40.884 53.051 41.4088 53.2903 41.9865C53.5296 42.5641 53.6527 43.1832 53.6527 43.8084C53.6527 44.4337 53.5296 45.0528 53.2903 45.6304C53.051 46.208 52.7002 46.7328 52.2581 47.1749Z" stroke="#FC865B" stroke-linecap="round" stroke-linejoin="round"/>
</svg>
