<svg width="66" height="66" viewBox="0 0 66 66" fill="none" xmlns="http://www.w3.org/2000/svg">
<path d="M35.5928 5.49805C37.7058 5.49816 39.4199 7.21219 39.4199 9.3252C39.4198 11.4381 37.7057 13.1522 35.5928 13.1523C33.4798 13.1523 31.7657 11.4382 31.7656 9.3252C31.7656 7.21212 33.4797 5.49805 35.5928 5.49805ZM35.585 5.8623C33.6677 5.86246 32.1143 7.41673 32.1143 9.33398C32.1145 11.251 33.6679 12.8045 35.585 12.8047C37.5022 12.8047 39.0564 11.2511 39.0566 9.33398C39.0566 7.41663 37.5023 5.8623 35.585 5.8623Z" fill="#056FC2" stroke="#056FC2"/>
<path d="M24.8945 8.5918C25.3063 8.59192 25.6406 8.92604 25.6406 9.33789C25.6405 9.74963 25.3063 10.0839 24.8945 10.084C24.4827 10.084 24.1486 9.74971 24.1484 9.33789C24.1484 8.92597 24.4826 8.5918 24.8945 8.5918Z" fill="#056FC2" stroke="#056FC2"/>
<path d="M54.0312 30.8633C54.7276 34.5759 54.4605 38.3017 51.5752 40.7178L51.2627 40.9668C50.2132 41.7605 49.0214 42.505 47.8467 43.2598L46.6836 44.0205C42.886 46.5657 38.6489 49.7039 34.751 52.0039L33.9766 52.4521C31.0273 54.1245 28.3284 54.0128 25.6982 53.1006C23.0932 52.1971 20.6068 50.5324 18.0078 48.9951L17.4404 45.3037C17.4138 44.368 17.437 43.4402 17.5029 42.5107C18.5943 43.0484 19.6895 43.738 20.8379 44.4238C22.1051 45.1806 23.4308 45.9245 24.8115 46.3535L25.0889 46.4355C25.4178 46.5267 25.7765 46.6175 26.1162 46.668C26.4456 46.7169 26.8133 46.7375 27.1377 46.6445C27.4982 46.541 27.812 46.2903 27.9238 45.8525C27.9726 45.6615 27.9779 45.4522 27.9482 45.2275C30.2143 45.3519 32.572 44.9296 34.6035 43.9062L35.0469 43.6709C38.2093 41.8968 41.3194 39.7279 44.3984 37.5439C47.485 35.3546 50.5379 33.1514 53.6143 31.2812L53.6729 31.2461L53.7197 31.1963L54.0312 30.8633Z" fill="#82CEF3" stroke="#056FC2"/>
<path d="M47.9639 16.3213C49.2728 15.9877 50.6548 16.238 51.8008 16.9111C52.9468 17.5843 53.8334 18.6657 54.1689 19.9658C54.5017 21.2555 54.3056 22.8105 53.1992 24.4658L52.9746 24.8018L53.2559 25.0918C53.8551 25.709 54.3069 26.5796 54.6523 27.5537C54.9102 28.2809 55.1024 29.0465 55.252 29.7744L55.3887 30.4863C56.1291 34.625 55.7976 38.9157 52.626 41.6357L52.3105 41.8945C49.5974 44.0096 46.555 45.9116 43.4727 47.8203C40.4103 49.7167 37.3063 51.62 34.4941 53.7246C31.6056 55.3364 29.1209 55.4627 26.7246 54.8447C24.8924 54.3722 23.1107 53.4666 21.2256 52.4141L19.3008 51.3242C18.3344 50.7757 17.1914 50.2053 16.0645 49.5283C14.9476 48.8574 13.9655 48.1475 13.3906 47.4033H13.3916C12.7114 46.5219 12.3249 45.2976 12.0947 43.9521C11.8984 42.8045 11.8246 41.6194 11.7549 40.5459H12.165C12.1376 41.89 12.2802 43.22 12.6064 44.5234L12.7783 45.1533C13.212 46.6085 13.7666 47.4445 14.5498 48.083C14.9286 48.3919 15.3487 48.6448 15.7988 48.8965C16.0293 49.0254 16.2643 49.1522 16.5117 49.2881L17.2998 49.7334C19.8895 51.2546 22.5785 53.0738 25.376 54.0439C28.1282 54.9984 31.0362 55.1546 34.1699 53.4873L34.4746 53.3193C38.1025 51.2612 42.1067 48.3636 45.7217 45.8828L47.2451 44.8486C48.6978 43.8755 50.4457 42.8401 51.8701 41.7617L51.8711 41.7627C55.8134 38.7815 55.782 33.919 54.8184 29.7051L54.6084 28.7891L53.9658 29.4746L53.042 30.46C49.9476 32.3454 46.88 34.5597 43.8252 36.7266C40.9367 38.7754 38.0572 40.7839 35.1455 42.4648L34.5625 42.7969C32.4312 43.9918 29.8116 44.4381 27.3496 44.1768L27.3311 44.1748C26.8604 44.1206 26.0925 43.8985 25.4609 43.6787L24.8838 43.4639C22.614 42.544 18.8296 40.3618 16.251 38.7764L15.2275 38.1396L15.2266 38.1387L14.9199 37.9385C14.2215 37.4683 13.6568 36.9752 13.2861 36.4072C12.9013 35.8174 12.7084 35.1218 12.835 34.2246L12.8652 34.042C13.0275 33.1595 13.6816 32.399 14.5898 31.7148C15.4957 31.0325 16.5561 30.4953 17.4326 30.0078L17.8086 29.7988L17.6572 29.3955C17.5207 29.0321 17.318 28.7427 17.1523 28.5039C17.0226 28.3169 16.9115 28.1562 16.8232 27.9834L16.7432 27.8047C15.6621 25.065 17.7742 22.2873 20.6807 22.5195L21.1797 22.5596L21.2188 22.0605C21.6023 17.1549 27.6863 15.0058 31.0283 18.5791L31.1855 18.7539C35.0277 23.1903 30.53 29.7215 25.1416 27.9492L24.8848 27.8584H24.8838C24.8022 27.8277 24.6813 27.7662 24.5166 27.6748C24.37 27.5935 24.1681 27.4763 23.9961 27.3828C23.8172 27.2856 23.6208 27.1854 23.4355 27.1162C23.2767 27.0569 23.0166 26.9767 22.7607 27.042L22.6855 27.0605L22.6201 27.1016L15.1094 31.7783L15.1016 31.7832L15.0938 31.7891C13.9549 32.5576 13.21 33.5203 13.1455 34.5938C13.0841 35.6192 13.6511 36.5677 14.7021 37.3574L14.9189 37.5127C16.6685 38.7177 19.214 40.1195 21.4463 41.2959L23.5332 42.3818C27.0453 44.1917 30.611 44.4774 34.1777 42.5947L34.5225 42.4062C37.5652 40.6807 40.5432 38.5893 43.4971 36.498C46.4583 34.4016 49.3948 32.3055 52.3848 30.541L52.418 30.5215L52.4473 30.498C53.4112 29.7101 54.044 28.7919 54.0986 27.7871C54.1542 26.7627 53.6021 25.8126 52.5635 24.9893L52.5244 24.958L52.4805 24.9355L52.0303 24.7012C50.9874 24.1444 49.9846 23.5281 48.9814 22.9062C47.8405 22.199 46.6958 21.4814 45.5186 20.8584C43.3025 19.6857 40.9336 18.826 38.1172 18.9336L37.5479 18.9678C37.4109 18.9791 37.2214 19.0169 37.041 19.0557C36.8533 19.096 36.6356 19.1465 36.4365 19.1914C36.2319 19.2376 36.0448 19.2785 35.8994 19.3037C35.8976 19.304 35.8953 19.3034 35.8936 19.3037C35.867 19.2442 35.8385 19.1739 35.8135 19.0977C35.7992 19.054 35.7881 19.011 35.7773 18.9707C38.4204 18.2008 41.299 18.4469 43.8301 19.5479L44.2559 19.7334L44.4727 19.3213C45.392 17.5695 46.6653 16.6523 47.9639 16.3213ZM26.7197 17.1592L26.4971 17.1719C24.1972 17.3467 22.2772 18.9712 21.7129 21.1895L21.6631 21.4062C21.1874 23.6618 22.208 25.9598 24.1787 27.124L24.3721 27.2334C26.2772 28.2556 28.6022 28.0279 30.2725 26.6768L30.4326 26.543C32.0584 25.1192 32.6645 22.8619 31.9863 20.8232L31.917 20.626C31.1047 18.4686 29.0081 17.0801 26.7197 17.1592ZM53.0391 18.5713C51.5896 16.49 49.0943 15.9046 46.8652 17.1582L46.6504 17.2861C46.332 17.4839 45.8597 17.9156 45.4863 18.3662C45.2968 18.595 45.1154 18.8493 44.9883 19.1016C44.8855 19.3056 44.783 19.5768 44.8047 19.8584L44.8213 19.9795L44.8223 19.9814C44.8488 20.1044 44.9138 20.1864 44.9355 20.2129C44.9655 20.2494 44.9959 20.2779 45.0176 20.2969C45.0618 20.3356 45.1124 20.3711 45.1572 20.4014C45.2495 20.4636 45.37 20.5354 45.502 20.6104C45.7687 20.7618 46.1197 20.9474 46.4756 21.1309C46.8415 21.3195 47.206 21.5035 47.502 21.6533L48.1172 21.9717H48.1182C48.6882 22.2961 49.3504 22.7254 50.0518 23.1553C50.7363 23.5749 51.4535 23.9924 52.0791 24.249V24.248C52.1096 24.2606 52.1008 24.2586 52.1562 24.2822C52.1921 24.2975 52.2468 24.32 52.3105 24.3369C52.4473 24.3732 52.6566 24.3913 52.8682 24.2666L52.9736 24.2041L53.0391 24.0996C53.6095 23.1811 53.95 22.2711 53.9678 21.3369C53.9833 20.513 53.7468 19.7128 53.2617 18.9141L53.0391 18.5723V18.5713ZM22.5605 26.4268L22.5205 26.333C22.3779 25.9962 22.1914 25.6911 22.0303 25.4229C21.9047 25.2139 21.7929 25.0236 21.7002 24.8311L21.6143 24.6367C21.5102 24.3765 21.4576 24.1479 21.4102 23.9336C21.3703 23.7535 21.3177 23.4773 21.1855 23.2666C21.1074 23.1421 20.9972 23.0296 20.8457 22.9502C20.6997 22.8737 20.5436 22.8435 20.3926 22.8369C20.1784 22.8276 19.9252 22.8644 19.6299 22.9326L19.3193 23.0107C17.0668 23.6201 16.067 26.4039 17.3955 28.3057L17.5322 28.4873C17.6358 28.6159 17.8073 28.8301 18.0342 28.9648C18.1575 29.038 18.3111 29.097 18.4902 29.1045C18.6715 29.112 18.8455 29.0649 19.0059 28.9775L19.0176 28.9717L19.0273 28.9658L22.3213 26.9561L22.5605 26.8096V26.4268Z" fill="#056FC2" stroke="#056FC2"/>
<path d="M38.0166 26.8984C38.4271 26.8984 38.7606 27.2311 38.7607 27.6416C38.7607 28.0522 38.4272 28.3857 38.0166 28.3857C37.6061 28.3856 37.2734 28.0521 37.2734 27.6416C37.2736 27.2312 37.6062 26.8986 38.0166 26.8984Z" fill="#056FC2" stroke="#056FC2"/>
<path d="M25.3877 25.0352C25.9627 22.5061 28.5114 20.8573 31.0693 21.2441C31.5346 22.7672 31.1321 24.4227 30.0205 25.5596L29.7744 25.792C28.5054 26.9033 26.7185 27.1744 25.1885 26.5176C25.2277 26.3067 25.2523 26.1043 25.2705 25.916C25.2941 25.6727 25.312 25.4575 25.3467 25.2461L25.3877 25.0352Z" fill="#82CEF3" stroke="#056FC2"/>
<path d="M52.3789 19.3926C52.8012 20.0732 52.9784 20.7021 52.9668 21.3174C52.9552 21.9308 52.7559 22.5732 52.3594 23.2803C51.8361 23.0537 51.2169 22.6979 50.5723 22.3027C50.1036 22.0154 49.6167 21.7055 49.165 21.4307C49.1897 21.3958 49.2146 21.3628 49.2363 21.3301C49.3477 21.1621 49.4179 21.0424 49.4971 20.9375L49.5811 20.8369C50.3397 20.012 51.2688 19.5593 52.3789 19.3926Z" fill="#82CEF3" stroke="#056FC2"/>
</svg>
